M48
; DRILL file {KiCad 9.0.4} date 2026-06-02T20:44:29-0700
; FORMAT={-:-/ absolute / metric / decimal}
; #@! TF.CreationDate,2026-06-02T20:44:29-07:00
; #@! TF.GenerationSoftware,Kicad,Pcbnew,9.0.4
; #@! TF.FileFunction,MixedPlating,1,2
FMAT,2
METRIC
; #@! TA.AperFunction,Plated,PTH,ViaDrill
T1C0.300
; #@! TA.AperFunction,Plated,PTH,ComponentDrill
T2C0.750
; #@! TA.AperFunction,Plated,PTH,ComponentDrill
T3C1.000
; #@! TA.AperFunction,NonPlated,NPTH,ComponentDrill
T4C3.200
%
G90
G05
T1
X119.863Y-106.324
X125.959Y-105.893
X126.022Y-81.242
X126.975Y-103.81
X126.975Y-106.832
X127.178Y-115.748
X128.422Y-110.414
X132.817Y-84.074
X137.719Y-112.37
X137.947Y-117.348
X138.29Y-81.902
X142.875Y-106.629
X149.555Y-106.375
X156.032Y-95.606
X156.449Y-92.217
X157.556Y-110.363
T2
X110.905Y-84.065
X110.905Y-86.065
X110.947Y-110.465
X110.947Y-112.465
X122.104Y-76.378
X124.104Y-76.378
X126.104Y-76.378
X128.104Y-76.378
X134.516Y-77.512
X136.516Y-77.512
X138.516Y-77.512
X140.516Y-77.512
T3
X110.744Y-95.397
X110.744Y-97.937
X112.09Y-121.412
X114.63Y-121.412
X117.17Y-121.412
X119.71Y-121.412
X122.25Y-121.412
X133.045Y-121.666
X135.585Y-121.666
X138.125Y-121.666
X140.665Y-121.666
X143.205Y-121.666
X149.84Y-77.5
X152.38Y-77.5
X154.8Y-120.0
X154.92Y-77.5
X157.34Y-120.0
X157.46Y-77.5
X159.88Y-120.0
X160.0Y-77.5
X162.42Y-120.0
X162.54Y-77.5
X164.96Y-120.0
X165.08Y-77.5
X167.5Y-120.0
X167.62Y-77.5
T4
X111.912Y-77.191
X148.311Y-115.316
M30
