%TF.GenerationSoftware,KiCad,Pcbnew,9.0.4*%
%TF.CreationDate,2026-06-02T20:43:56-07:00*%
%TF.ProjectId,Mykon,4d796b6f-6e2e-46b6-9963-61645f706362,rev?*%
%TF.SameCoordinates,Original*%
%TF.FileFunction,Copper,L2,Bot*%
%TF.FilePolarity,Positive*%
%FSLAX46Y46*%
G04 Gerber Fmt 4.6, Leading zero omitted, Abs format (unit mm)*
G04 Created by KiCad (PCBNEW 9.0.4) date 2026-06-02 20:43:56*
%MOMM*%
%LPD*%
G01*
G04 APERTURE LIST*
G04 Aperture macros list*
%AMRoundRect*
0 Rectangle with rounded corners*
0 $1 Rounding radius*
0 $2 $3 $4 $5 $6 $7 $8 $9 X,Y pos of 4 corners*
0 Add a 4 corners polygon primitive as box body*
4,1,4,$2,$3,$4,$5,$6,$7,$8,$9,$2,$3,0*
0 Add four circle primitives for the rounded corners*
1,1,$1+$1,$2,$3*
1,1,$1+$1,$4,$5*
1,1,$1+$1,$6,$7*
1,1,$1+$1,$8,$9*
0 Add four rect primitives between the rounded corners*
20,1,$1+$1,$2,$3,$4,$5,0*
20,1,$1+$1,$4,$5,$6,$7,0*
20,1,$1+$1,$6,$7,$8,$9,0*
20,1,$1+$1,$8,$9,$2,$3,0*%
G04 Aperture macros list end*
%TA.AperFunction,ComponentPad*%
%ADD10R,1.700000X1.700000*%
%TD*%
%TA.AperFunction,ComponentPad*%
%ADD11C,1.700000*%
%TD*%
%TA.AperFunction,ComponentPad*%
%ADD12RoundRect,0.250000X-0.350000X-0.625000X0.350000X-0.625000X0.350000X0.625000X-0.350000X0.625000X0*%
%TD*%
%TA.AperFunction,ComponentPad*%
%ADD13O,1.200000X1.750000*%
%TD*%
%TA.AperFunction,ComponentPad*%
%ADD14RoundRect,0.250000X0.350000X0.625000X-0.350000X0.625000X-0.350000X-0.625000X0.350000X-0.625000X0*%
%TD*%
%TA.AperFunction,ComponentPad*%
%ADD15RoundRect,0.250000X0.625000X-0.350000X0.625000X0.350000X-0.625000X0.350000X-0.625000X-0.350000X0*%
%TD*%
%TA.AperFunction,ComponentPad*%
%ADD16O,1.750000X1.200000*%
%TD*%
%TA.AperFunction,ViaPad*%
%ADD17C,0.600000*%
%TD*%
%TA.AperFunction,Conductor*%
%ADD18C,0.250000*%
%TD*%
G04 APERTURE END LIST*
D10*
%TO.P,23017_GPA1,1,Pin_1*%
%TO.N,Net-(23017_GPA1-Pin_1)*%
X167500000Y-120000000D03*
D11*
%TO.P,23017_GPA1,2,Pin_2*%
%TO.N,/SW_HOME*%
X164960000Y-120000000D03*
%TO.P,23017_GPA1,3,Pin_3*%
%TO.N,/SW_RIGHT*%
X162420000Y-120000000D03*
%TO.P,23017_GPA1,4,Pin_4*%
%TO.N,/SW_LEFT*%
X159880000Y-120000000D03*
%TO.P,23017_GPA1,5,Pin_5*%
%TO.N,/SW_DOWN*%
X157340000Y-120000000D03*
%TO.P,23017_GPA1,6,Pin_6*%
%TO.N,/SW_UP*%
X154800000Y-120000000D03*
%TD*%
D12*
%TO.P,I2C_IN1,1,Pin_1*%
%TO.N,GND*%
X122104400Y-76377800D03*
D13*
%TO.P,I2C_IN1,2,Pin_2*%
%TO.N,+3V3*%
X124104400Y-76377800D03*
%TO.P,I2C_IN1,3,Pin_3*%
%TO.N,SDA*%
X126104400Y-76377800D03*
%TO.P,I2C_IN1,4,Pin_4*%
%TO.N,SCL*%
X128104400Y-76377800D03*
%TD*%
D10*
%TO.P,Analog_Component_1,1,Pin_1*%
%TO.N,GND*%
X112090200Y-121412000D03*
D11*
%TO.P,Analog_Component_1,2,Pin_2*%
%TO.N,+3V3*%
X114630200Y-121412000D03*
%TO.P,Analog_Component_1,3,Pin_3*%
%TO.N,Net-(Analog_Component_1-Pin_3)*%
X117170200Y-121412000D03*
%TO.P,Analog_Component_1,4,Pin_4*%
%TO.N,Net-(Analog_Component_1-Pin_4)*%
X119710200Y-121412000D03*
%TO.P,Analog_Component_1,5,Pin_5*%
%TO.N,/SW_ANALOG_1*%
X122250200Y-121412000D03*
%TD*%
D10*
%TO.P,Power_Switch_1,1,A*%
%TO.N,Net-(LIPO_IN_1-Pin_2)*%
X110744000Y-95397400D03*
D11*
%TO.P,Power_Switch_1,2,B*%
%TO.N,Net-(JP7-A)*%
X110744000Y-97937400D03*
%TD*%
D14*
%TO.P,I2C_OUT1,1,Pin_1*%
%TO.N,GND*%
X140515600Y-77512000D03*
D13*
%TO.P,I2C_OUT1,2,Pin_2*%
%TO.N,+3V3*%
X138515600Y-77512000D03*
%TO.P,I2C_OUT1,3,Pin_3*%
%TO.N,SDA*%
X136515600Y-77512000D03*
%TO.P,I2C_OUT1,4,Pin_4*%
%TO.N,SCL*%
X134515600Y-77512000D03*
%TD*%
D10*
%TO.P,Analog_Component_2,1,Pin_1*%
%TO.N,GND*%
X133045200Y-121666000D03*
D11*
%TO.P,Analog_Component_2,2,Pin_2*%
%TO.N,+3V3*%
X135585200Y-121666000D03*
%TO.P,Analog_Component_2,3,Pin_3*%
%TO.N,Net-(Analog_Component_2-Pin_3)*%
X138125200Y-121666000D03*
%TO.P,Analog_Component_2,4,Pin_4*%
%TO.N,Net-(Analog_Component_2-Pin_4)*%
X140665200Y-121666000D03*
%TO.P,Analog_Component_2,5,Pin_5*%
%TO.N,/SW_ANALOG_2*%
X143205200Y-121666000D03*
%TD*%
D15*
%TO.P,LIPO_OUT_1,1,Pin_1*%
%TO.N,Net-(LIPO_IN_1-Pin_1)*%
X110905200Y-86064600D03*
D16*
%TO.P,LIPO_OUT_1,2,Pin_2*%
%TO.N,Net-(JP7-A)*%
X110905200Y-84064600D03*
%TD*%
D10*
%TO.P,23017_GPB1,1,Pin_1*%
%TO.N,Net-(23017_GPB1-Pin_1)*%
X149840000Y-77500000D03*
D11*
%TO.P,23017_GPB1,2,Pin_2*%
%TO.N,Net-(23017_GPB1-Pin_2)*%
X152380000Y-77500000D03*
%TO.P,23017_GPB1,3,Pin_3*%
%TO.N,Net-(23017_GPB1-Pin_3)*%
X154920000Y-77500000D03*
%TO.P,23017_GPB1,4,Pin_4*%
%TO.N,Net-(23017_GPB1-Pin_4)*%
X157460000Y-77500000D03*
%TO.P,23017_GPB1,5,Pin_5*%
%TO.N,Net-(23017_GPB1-Pin_5)*%
X160000000Y-77500000D03*
%TO.P,23017_GPB1,6,Pin_6*%
%TO.N,Net-(23017_GPB1-Pin_6)*%
X162540000Y-77500000D03*
%TO.P,23017_GPB1,7,Pin_7*%
%TO.N,Net-(23017_GPB1-Pin_7)*%
X165080000Y-77500000D03*
%TO.P,23017_GPB1,8,Pin_8*%
%TO.N,Net-(23017_GPB1-Pin_8)*%
X167620000Y-77500000D03*
%TD*%
D15*
%TO.P,LIPO_IN_1,1,Pin_1*%
%TO.N,Net-(LIPO_IN_1-Pin_1)*%
X110947200Y-112464600D03*
D16*
%TO.P,LIPO_IN_1,2,Pin_2*%
%TO.N,Net-(LIPO_IN_1-Pin_2)*%
X110947200Y-110464600D03*
%TD*%
D17*
%TO.N,GND*%
X156449401Y-92216599D03*
X126974600Y-103809800D03*
X142875000Y-106629200D03*
X138290300Y-81902300D03*
X156032200Y-95605600D03*
X132816600Y-84074000D03*
X128422400Y-110413800D03*
X149555200Y-106375200D03*
X137947400Y-117348000D03*
X157556200Y-110363000D03*
X126022100Y-81241900D03*
X127177800Y-115747800D03*
%TO.N,Net-(Analog_Component_2-Pin_4)*%
X137718800Y-112369600D03*
X119862600Y-106324400D03*
%TO.N,Net-(U2-AIN2)*%
X126974600Y-106832400D03*
X125958600Y-105892600D03*
%TD*%
D18*
%TO.N,Net-(Analog_Component_2-Pin_4)*%
X121234200Y-106324400D02*
X119862600Y-106324400D01*
X129946400Y-107924600D02*
X122834400Y-107924600D01*
X137718800Y-112369600D02*
X134391400Y-112369600D01*
X122834400Y-107924600D02*
X121234200Y-106324400D01*
X134391400Y-112369600D02*
X129971800Y-107950000D01*
X129971800Y-107950000D02*
X129946400Y-107924600D01*
%TO.N,Net-(U2-AIN2)*%
X126034800Y-105892600D02*
X126974600Y-106832400D01*
X125958600Y-105892600D02*
X126034800Y-105892600D01*
%TD*%
%TA.AperFunction,Conductor*%
%TO.N,GND*%
G36*
X174118339Y-72148185D02*
G01*
X174164094Y-72200989D01*
X174175300Y-72252500D01*
X174175300Y-126451700D01*
X174155615Y-126518739D01*
X174102811Y-126564494D01*
X174051300Y-126575700D01*
X106872700Y-126575700D01*
X106805661Y-126556015D01*
X106759906Y-126503211D01*
X106748700Y-126451700D01*
X106748700Y-120514155D01*
X110740200Y-120514155D01*
X110740200Y-121162000D01*
X111657188Y-121162000D01*
X111624275Y-121219007D01*
X111590200Y-121346174D01*
X111590200Y-121477826D01*
X111624275Y-121604993D01*
X111657188Y-121662000D01*
X110740200Y-121662000D01*
X110740200Y-122309844D01*
X110746601Y-122369372D01*
X110746603Y-122369379D01*
X110796845Y-122504086D01*
X110796849Y-122504093D01*
X110883009Y-122619187D01*
X110883012Y-122619190D01*
X110998106Y-122705350D01*
X110998113Y-122705354D01*
X111132820Y-122755596D01*
X111132827Y-122755598D01*
X111192355Y-122761999D01*
X111192372Y-122762000D01*
X111840200Y-122762000D01*
X111840200Y-121845012D01*
X111897207Y-121877925D01*
X112024374Y-121912000D01*
X112156026Y-121912000D01*
X112283193Y-121877925D01*
X112340200Y-121845012D01*
X112340200Y-122762000D01*
X112988028Y-122762000D01*
X112988044Y-122761999D01*
X113047572Y-122755598D01*
X113047579Y-122755596D01*
X113182286Y-122705354D01*
X113182293Y-122705350D01*
X113297387Y-122619190D01*
X113297390Y-122619187D01*
X113383550Y-122504093D01*
X113383554Y-122504086D01*
X113432622Y-122372529D01*
X113474493Y-122316595D01*
X113539957Y-122292178D01*
X113608230Y-122307030D01*
X113636485Y-122328181D01*
X113750413Y-122442109D01*
X113922379Y-122567048D01*
X113922381Y-122567049D01*
X113922384Y-122567051D01*
X114111788Y-122663557D01*
X114313957Y-122729246D01*
X114523913Y-122762500D01*
X114523914Y-122762500D01*
X114736486Y-122762500D01*
X114736487Y-122762500D01*
X114946443Y-122729246D01*
X115148612Y-122663557D01*
X115338016Y-122567051D01*
X115424671Y-122504093D01*
X115509986Y-122442109D01*
X115509988Y-122442106D01*
X115509992Y-122442104D01*
X115660304Y-122291792D01*
X115660306Y-122291788D01*
X115660309Y-122291786D01*
X115785248Y-122119820D01*
X115785247Y-122119820D01*
X115785251Y-122119816D01*
X115789714Y-122111054D01*
X115837688Y-122060259D01*
X115905508Y-122043463D01*
X115971644Y-122065999D01*
X116010686Y-122111056D01*
X116015151Y-122119820D01*
X116140090Y-122291786D01*
X116290413Y-122442109D01*
X116462379Y-122567048D01*
X116462381Y-122567049D01*
X116462384Y-122567051D01*
X116651788Y-122663557D01*
X116853957Y-122729246D01*
X117063913Y-122762500D01*
X117063914Y-122762500D01*
X117276486Y-122762500D01*
X117276487Y-122762500D01*
X117486443Y-122729246D01*
X117688612Y-122663557D01*
X117878016Y-122567051D01*
X117964671Y-122504093D01*
X118049986Y-122442109D01*
X118049988Y-122442106D01*
X118049992Y-122442104D01*
X118200304Y-122291792D01*
X118200306Y-122291788D01*
X118200309Y-122291786D01*
X118325248Y-122119820D01*
X118325247Y-122119820D01*
X118325251Y-122119816D01*
X118329714Y-122111054D01*
X118377688Y-122060259D01*
X118445508Y-122043463D01*
X118511644Y-122065999D01*
X118550686Y-122111056D01*
X118555151Y-122119820D01*
X118680090Y-122291786D01*
X118830413Y-122442109D01*
X119002379Y-122567048D01*
X119002381Y-122567049D01*
X119002384Y-122567051D01*
X119191788Y-122663557D01*
X119393957Y-122729246D01*
X119603913Y-122762500D01*
X119603914Y-122762500D01*
X119816486Y-122762500D01*
X119816487Y-122762500D01*
X120026443Y-122729246D01*
X120228612Y-122663557D01*
X120418016Y-122567051D01*
X120504671Y-122504093D01*
X120589986Y-122442109D01*
X120589988Y-122442106D01*
X120589992Y-122442104D01*
X120740304Y-122291792D01*
X120740306Y-122291788D01*
X120740309Y-122291786D01*
X120865248Y-122119820D01*
X120865247Y-122119820D01*
X120865251Y-122119816D01*
X120869714Y-122111054D01*
X120917688Y-122060259D01*
X120985508Y-122043463D01*
X121051644Y-122065999D01*
X121090686Y-122111056D01*
X121095151Y-122119820D01*
X121220090Y-122291786D01*
X121370413Y-122442109D01*
X121542379Y-122567048D01*
X121542381Y-122567049D01*
X121542384Y-122567051D01*
X121731788Y-122663557D01*
X121933957Y-122729246D01*
X122143913Y-122762500D01*
X122143914Y-122762500D01*
X122356486Y-122762500D01*
X122356487Y-122762500D01*
X122566443Y-122729246D01*
X122768612Y-122663557D01*
X122958016Y-122567051D01*
X123044671Y-122504093D01*
X123129986Y-122442109D01*
X123129988Y-122442106D01*
X123129992Y-122442104D01*
X123280304Y-122291792D01*
X123280306Y-122291788D01*
X123280309Y-122291786D01*
X123405248Y-122119820D01*
X123405247Y-122119820D01*
X123405251Y-122119816D01*
X123501757Y-121930412D01*
X123567446Y-121728243D01*
X123600700Y-121518287D01*
X123600700Y-121305713D01*
X123567446Y-121095757D01*
X123501757Y-120893588D01*
X123437846Y-120768155D01*
X131695200Y-120768155D01*
X131695200Y-121416000D01*
X132612188Y-121416000D01*
X132579275Y-121473007D01*
X132545200Y-121600174D01*
X132545200Y-121731826D01*
X132579275Y-121858993D01*
X132612188Y-121916000D01*
X131695200Y-121916000D01*
X131695200Y-122563844D01*
X131701601Y-122623372D01*
X131701603Y-122623379D01*
X131751845Y-122758086D01*
X131751849Y-122758093D01*
X131838009Y-122873187D01*
X131838012Y-122873190D01*
X131953106Y-122959350D01*
X131953113Y-122959354D01*
X132087820Y-123009596D01*
X132087827Y-123009598D01*
X132147355Y-123015999D01*
X132147372Y-123016000D01*
X132795200Y-123016000D01*
X132795200Y-122099012D01*
X132852207Y-122131925D01*
X132979374Y-122166000D01*
X133111026Y-122166000D01*
X133238193Y-122131925D01*
X133295200Y-122099012D01*
X133295200Y-123016000D01*
X133943028Y-123016000D01*
X133943044Y-123015999D01*
X134002572Y-123009598D01*
X134002579Y-123009596D01*
X134137286Y-122959354D01*
X134137293Y-122959350D01*
X134252387Y-122873190D01*
X134252390Y-122873187D01*
X134338550Y-122758093D01*
X134338554Y-122758086D01*
X134387622Y-122626529D01*
X134429493Y-122570595D01*
X134494957Y-122546178D01*
X134563230Y-122561030D01*
X134591485Y-122582181D01*
X134705413Y-122696109D01*
X134877379Y-122821048D01*
X134877381Y-122821049D01*
X134877384Y-122821051D01*
X135066788Y-122917557D01*
X135268957Y-122983246D01*
X135478913Y-123016500D01*
X135478914Y-123016500D01*
X135691486Y-123016500D01*
X135691487Y-123016500D01*
X135901443Y-122983246D01*
X136103612Y-122917557D01*
X136293016Y-122821051D01*
X136373605Y-122762500D01*
X136464986Y-122696109D01*
X136464988Y-122696106D01*
X136464992Y-122696104D01*
X136615304Y-122545792D01*
X136615306Y-122545788D01*
X136615309Y-122545786D01*
X136740248Y-122373820D01*
X136740247Y-122373820D01*
X136740251Y-122373816D01*
X136744714Y-122365054D01*
X136792688Y-122314259D01*
X136860508Y-122297463D01*
X136926644Y-122319999D01*
X136965686Y-122365056D01*
X136970151Y-122373820D01*
X137095090Y-122545786D01*
X137245413Y-122696109D01*
X137417379Y-122821048D01*
X137417381Y-122821049D01*
X137417384Y-122821051D01*
X137606788Y-122917557D01*
X137808957Y-122983246D01*
X138018913Y-123016500D01*
X138018914Y-123016500D01*
X138231486Y-123016500D01*
X138231487Y-123016500D01*
X138441443Y-122983246D01*
X138643612Y-122917557D01*
X138833016Y-122821051D01*
X138913605Y-122762500D01*
X139004986Y-122696109D01*
X139004988Y-122696106D01*
X139004992Y-122696104D01*
X139155304Y-122545792D01*
X139155306Y-122545788D01*
X139155309Y-122545786D01*
X139280248Y-122373820D01*
X139280247Y-122373820D01*
X139280251Y-122373816D01*
X139284714Y-122365054D01*
X139332688Y-122314259D01*
X139400508Y-122297463D01*
X139466644Y-122319999D01*
X139505686Y-122365056D01*
X139510151Y-122373820D01*
X139635090Y-122545786D01*
X139785413Y-122696109D01*
X139957379Y-122821048D01*
X139957381Y-122821049D01*
X139957384Y-122821051D01*
X140146788Y-122917557D01*
X140348957Y-122983246D01*
X140558913Y-123016500D01*
X140558914Y-123016500D01*
X140771486Y-123016500D01*
X140771487Y-123016500D01*
X140981443Y-122983246D01*
X141183612Y-122917557D01*
X141373016Y-122821051D01*
X141453605Y-122762500D01*
X141544986Y-122696109D01*
X141544988Y-122696106D01*
X141544992Y-122696104D01*
X141695304Y-122545792D01*
X141695306Y-122545788D01*
X141695309Y-122545786D01*
X141820248Y-122373820D01*
X141820247Y-122373820D01*
X141820251Y-122373816D01*
X141824714Y-122365054D01*
X141872688Y-122314259D01*
X141940508Y-122297463D01*
X142006644Y-122319999D01*
X142045686Y-122365056D01*
X142050151Y-122373820D01*
X142175090Y-122545786D01*
X142325413Y-122696109D01*
X142497379Y-122821048D01*
X142497381Y-122821049D01*
X142497384Y-122821051D01*
X142686788Y-122917557D01*
X142888957Y-122983246D01*
X143098913Y-123016500D01*
X143098914Y-123016500D01*
X143311486Y-123016500D01*
X143311487Y-123016500D01*
X143521443Y-122983246D01*
X143723612Y-122917557D01*
X143913016Y-122821051D01*
X143993605Y-122762500D01*
X144084986Y-122696109D01*
X144084988Y-122696106D01*
X144084992Y-122696104D01*
X144235304Y-122545792D01*
X144235306Y-122545788D01*
X144235309Y-122545786D01*
X144360248Y-122373820D01*
X144360247Y-122373820D01*
X144360251Y-122373816D01*
X144456757Y-122184412D01*
X144522446Y-121982243D01*
X144555700Y-121772287D01*
X144555700Y-121559713D01*
X144522446Y-121349757D01*
X144456757Y-121147588D01*
X144360251Y-120958184D01*
X144360249Y-120958181D01*
X144360248Y-120958179D01*
X144235309Y-120786213D01*
X144084986Y-120635890D01*
X143913020Y-120510951D01*
X143723614Y-120414444D01*
X143723613Y-120414443D01*
X143723612Y-120414443D01*
X143521443Y-120348754D01*
X143521441Y-120348753D01*
X143521440Y-120348753D01*
X143360157Y-120323208D01*
X143311487Y-120315500D01*
X143098913Y-120315500D01*
X143050242Y-120323208D01*
X142888960Y-120348753D01*
X142686785Y-120414444D01*
X142497379Y-120510951D01*
X142325413Y-120635890D01*
X142175090Y-120786213D01*
X142050149Y-120958182D01*
X142045684Y-120966946D01*
X141997709Y-121017742D01*
X141929888Y-121034536D01*
X141863753Y-121011998D01*
X141824716Y-120966946D01*
X141820250Y-120958182D01*
X141695309Y-120786213D01*
X141544986Y-120635890D01*
X141373020Y-120510951D01*
X141183614Y-120414444D01*
X141183613Y-120414443D01*
X141183612Y-120414443D01*
X140981443Y-120348754D01*
X140981441Y-120348753D01*
X140981440Y-120348753D01*
X140820157Y-120323208D01*
X140771487Y-120315500D01*
X140558913Y-120315500D01*
X140510242Y-120323208D01*
X140348960Y-120348753D01*
X140146785Y-120414444D01*
X139957379Y-120510951D01*
X139785413Y-120635890D01*
X139635090Y-120786213D01*
X139510149Y-120958182D01*
X139505684Y-120966946D01*
X139457709Y-121017742D01*
X139389888Y-121034536D01*
X139323753Y-121011998D01*
X139284716Y-120966946D01*
X139280250Y-120958182D01*
X139155309Y-120786213D01*
X139004986Y-120635890D01*
X138833020Y-120510951D01*
X138643614Y-120414444D01*
X138643613Y-120414443D01*
X138643612Y-120414443D01*
X138441443Y-120348754D01*
X138441441Y-120348753D01*
X138441440Y-120348753D01*
X138280157Y-120323208D01*
X138231487Y-120315500D01*
X138018913Y-120315500D01*
X137970242Y-120323208D01*
X137808960Y-120348753D01*
X137606785Y-120414444D01*
X137417379Y-120510951D01*
X137245413Y-120635890D01*
X137095090Y-120786213D01*
X136970149Y-120958182D01*
X136965684Y-120966946D01*
X136917709Y-121017742D01*
X136849888Y-121034536D01*
X136783753Y-121011998D01*
X136744716Y-120966946D01*
X136740250Y-120958182D01*
X136615309Y-120786213D01*
X136464986Y-120635890D01*
X136293020Y-120510951D01*
X136103614Y-120414444D01*
X136103613Y-120414443D01*
X136103612Y-120414443D01*
X135901443Y-120348754D01*
X135901441Y-120348753D01*
X135901440Y-120348753D01*
X135740157Y-120323208D01*
X135691487Y-120315500D01*
X135478913Y-120315500D01*
X135430242Y-120323208D01*
X135268960Y-120348753D01*
X135066785Y-120414444D01*
X134877379Y-120510951D01*
X134705415Y-120635889D01*
X134591485Y-120749819D01*
X134530162Y-120783303D01*
X134460470Y-120778319D01*
X134404537Y-120736447D01*
X134387622Y-120705470D01*
X134338554Y-120573913D01*
X134338550Y-120573906D01*
X134252390Y-120458812D01*
X134252387Y-120458809D01*
X134137293Y-120372649D01*
X134137286Y-120372645D01*
X134002579Y-120322403D01*
X134002572Y-120322401D01*
X133943044Y-120316000D01*
X133295200Y-120316000D01*
X133295200Y-121232988D01*
X133238193Y-121200075D01*
X133111026Y-121166000D01*
X132979374Y-121166000D01*
X132852207Y-121200075D01*
X132795200Y-121232988D01*
X132795200Y-120316000D01*
X132147355Y-120316000D01*
X132087827Y-120322401D01*
X132087820Y-120322403D01*
X131953113Y-120372645D01*
X131953106Y-120372649D01*
X131838012Y-120458809D01*
X131838009Y-120458812D01*
X131751849Y-120573906D01*
X131751845Y-120573913D01*
X131701603Y-120708620D01*
X131701601Y-120708627D01*
X131695200Y-120768155D01*
X123437846Y-120768155D01*
X123405251Y-120704184D01*
X123405249Y-120704181D01*
X123405248Y-120704179D01*
X123280309Y-120532213D01*
X123129986Y-120381890D01*
X122958020Y-120256951D01*
X122768614Y-120160444D01*
X122768613Y-120160443D01*
X122768612Y-120160443D01*
X122566443Y-120094754D01*
X122566441Y-120094753D01*
X122566440Y-120094753D01*
X122405157Y-120069208D01*
X122356487Y-120061500D01*
X122143913Y-120061500D01*
X122095242Y-120069208D01*
X121933960Y-120094753D01*
X121731785Y-120160444D01*
X121542379Y-120256951D01*
X121370413Y-120381890D01*
X121220090Y-120532213D01*
X121095149Y-120704182D01*
X121090684Y-120712946D01*
X121042709Y-120763742D01*
X120974888Y-120780536D01*
X120908753Y-120757998D01*
X120869716Y-120712946D01*
X120865250Y-120704182D01*
X120740309Y-120532213D01*
X120589986Y-120381890D01*
X120418020Y-120256951D01*
X120228614Y-120160444D01*
X120228613Y-120160443D01*
X120228612Y-120160443D01*
X120026443Y-120094754D01*
X120026441Y-120094753D01*
X120026440Y-120094753D01*
X119865157Y-120069208D01*
X119816487Y-120061500D01*
X119603913Y-120061500D01*
X119555242Y-120069208D01*
X119393960Y-120094753D01*
X119191785Y-120160444D01*
X119002379Y-120256951D01*
X118830413Y-120381890D01*
X118680090Y-120532213D01*
X118555149Y-120704182D01*
X118550684Y-120712946D01*
X118502709Y-120763742D01*
X118434888Y-120780536D01*
X118368753Y-120757998D01*
X118329716Y-120712946D01*
X118325250Y-120704182D01*
X118200309Y-120532213D01*
X118049986Y-120381890D01*
X117878020Y-120256951D01*
X117688614Y-120160444D01*
X117688613Y-120160443D01*
X117688612Y-120160443D01*
X117486443Y-120094754D01*
X117486441Y-120094753D01*
X117486440Y-120094753D01*
X117325157Y-120069208D01*
X117276487Y-120061500D01*
X117063913Y-120061500D01*
X117015242Y-120069208D01*
X116853960Y-120094753D01*
X116651785Y-120160444D01*
X116462379Y-120256951D01*
X116290413Y-120381890D01*
X116140090Y-120532213D01*
X116015149Y-120704182D01*
X116010684Y-120712946D01*
X115962709Y-120763742D01*
X115894888Y-120780536D01*
X115828753Y-120757998D01*
X115789716Y-120712946D01*
X115785250Y-120704182D01*
X115660309Y-120532213D01*
X115509986Y-120381890D01*
X115338020Y-120256951D01*
X115148614Y-120160444D01*
X115148613Y-120160443D01*
X115148612Y-120160443D01*
X114946443Y-120094754D01*
X114946441Y-120094753D01*
X114946440Y-120094753D01*
X114785157Y-120069208D01*
X114736487Y-120061500D01*
X114523913Y-120061500D01*
X114475242Y-120069208D01*
X114313960Y-120094753D01*
X114111785Y-120160444D01*
X113922379Y-120256951D01*
X113750415Y-120381889D01*
X113636485Y-120495819D01*
X113575162Y-120529303D01*
X113505470Y-120524319D01*
X113449537Y-120482447D01*
X113432622Y-120451470D01*
X113383554Y-120319913D01*
X113383550Y-120319906D01*
X113297390Y-120204812D01*
X113297387Y-120204809D01*
X113182293Y-120118649D01*
X113182286Y-120118645D01*
X113047579Y-120068403D01*
X113047572Y-120068401D01*
X112988044Y-120062000D01*
X112340200Y-120062000D01*
X112340200Y-120978988D01*
X112283193Y-120946075D01*
X112156026Y-120912000D01*
X112024374Y-120912000D01*
X111897207Y-120946075D01*
X111840200Y-120978988D01*
X111840200Y-120062000D01*
X111192355Y-120062000D01*
X111132827Y-120068401D01*
X111132820Y-120068403D01*
X110998113Y-120118645D01*
X110998106Y-120118649D01*
X110883012Y-120204809D01*
X110883009Y-120204812D01*
X110796849Y-120319906D01*
X110796845Y-120319913D01*
X110746603Y-120454620D01*
X110746601Y-120454627D01*
X110740200Y-120514155D01*
X106748700Y-120514155D01*
X106748700Y-119893713D01*
X153449500Y-119893713D01*
X153449500Y-120106286D01*
X153482715Y-120316000D01*
X153482754Y-120316243D01*
X153536757Y-120482447D01*
X153548444Y-120518414D01*
X153644951Y-120707820D01*
X153769890Y-120879786D01*
X153920213Y-121030109D01*
X154092179Y-121155048D01*
X154092181Y-121155049D01*
X154092184Y-121155051D01*
X154281588Y-121251557D01*
X154483757Y-121317246D01*
X154693713Y-121350500D01*
X154693714Y-121350500D01*
X154906286Y-121350500D01*
X154906287Y-121350500D01*
X155116243Y-121317246D01*
X155318412Y-121251557D01*
X155507816Y-121155051D01*
X155529789Y-121139086D01*
X155679786Y-121030109D01*
X155679788Y-121030106D01*
X155679792Y-121030104D01*
X155830104Y-120879792D01*
X155830106Y-120879788D01*
X155830109Y-120879786D01*
X155955048Y-120707820D01*
X155955047Y-120707820D01*
X155955051Y-120707816D01*
X155959514Y-120699054D01*
X156007488Y-120648259D01*
X156075308Y-120631463D01*
X156141444Y-120653999D01*
X156180484Y-120699054D01*
X156183754Y-120705470D01*
X156184951Y-120707820D01*
X156309890Y-120879786D01*
X156460213Y-121030109D01*
X156632179Y-121155048D01*
X156632181Y-121155049D01*
X156632184Y-121155051D01*
X156821588Y-121251557D01*
X157023757Y-121317246D01*
X157233713Y-121350500D01*
X157233714Y-121350500D01*
X157446286Y-121350500D01*
X157446287Y-121350500D01*
X157656243Y-121317246D01*
X157858412Y-121251557D01*
X158047816Y-121155051D01*
X158069789Y-121139086D01*
X158219786Y-121030109D01*
X158219788Y-121030106D01*
X158219792Y-121030104D01*
X158370104Y-120879792D01*
X158370106Y-120879788D01*
X158370109Y-120879786D01*
X158495048Y-120707820D01*
X158495047Y-120707820D01*
X158495051Y-120707816D01*
X158499514Y-120699054D01*
X158547488Y-120648259D01*
X158615308Y-120631463D01*
X158681444Y-120653999D01*
X158720484Y-120699054D01*
X158723754Y-120705470D01*
X158724951Y-120707820D01*
X158849890Y-120879786D01*
X159000213Y-121030109D01*
X159172179Y-121155048D01*
X159172181Y-121155049D01*
X159172184Y-121155051D01*
X159361588Y-121251557D01*
X159563757Y-121317246D01*
X159773713Y-121350500D01*
X159773714Y-121350500D01*
X159986286Y-121350500D01*
X159986287Y-121350500D01*
X160196243Y-121317246D01*
X160398412Y-121251557D01*
X160587816Y-121155051D01*
X160609789Y-121139086D01*
X160759786Y-121030109D01*
X160759788Y-121030106D01*
X160759792Y-121030104D01*
X160910104Y-120879792D01*
X160910106Y-120879788D01*
X160910109Y-120879786D01*
X161035048Y-120707820D01*
X161035047Y-120707820D01*
X161035051Y-120707816D01*
X161039514Y-120699054D01*
X161087488Y-120648259D01*
X161155308Y-120631463D01*
X161221444Y-120653999D01*
X161260484Y-120699054D01*
X161263754Y-120705470D01*
X161264951Y-120707820D01*
X161389890Y-120879786D01*
X161540213Y-121030109D01*
X161712179Y-121155048D01*
X161712181Y-121155049D01*
X161712184Y-121155051D01*
X161901588Y-121251557D01*
X162103757Y-121317246D01*
X162313713Y-121350500D01*
X162313714Y-121350500D01*
X162526286Y-121350500D01*
X162526287Y-121350500D01*
X162736243Y-121317246D01*
X162938412Y-121251557D01*
X163127816Y-121155051D01*
X163149789Y-121139086D01*
X163299786Y-121030109D01*
X163299788Y-121030106D01*
X163299792Y-121030104D01*
X163450104Y-120879792D01*
X163450106Y-120879788D01*
X163450109Y-120879786D01*
X163575048Y-120707820D01*
X163575047Y-120707820D01*
X163575051Y-120707816D01*
X163579514Y-120699054D01*
X163627488Y-120648259D01*
X163695308Y-120631463D01*
X163761444Y-120653999D01*
X163800484Y-120699054D01*
X163803754Y-120705470D01*
X163804951Y-120707820D01*
X163929890Y-120879786D01*
X164080213Y-121030109D01*
X164252179Y-121155048D01*
X164252181Y-121155049D01*
X164252184Y-121155051D01*
X164441588Y-121251557D01*
X164643757Y-121317246D01*
X164853713Y-121350500D01*
X164853714Y-121350500D01*
X165066286Y-121350500D01*
X165066287Y-121350500D01*
X165276243Y-121317246D01*
X165478412Y-121251557D01*
X165667816Y-121155051D01*
X165839792Y-121030104D01*
X165953329Y-120916566D01*
X166014648Y-120883084D01*
X166084340Y-120888068D01*
X166140274Y-120929939D01*
X166157189Y-120960917D01*
X166206202Y-121092328D01*
X166206206Y-121092335D01*
X166292452Y-121207544D01*
X166292455Y-121207547D01*
X166407664Y-121293793D01*
X166407671Y-121293797D01*
X166542517Y-121344091D01*
X166542516Y-121344091D01*
X166549444Y-121344835D01*
X166602127Y-121350500D01*
X168397872Y-121350499D01*
X168457483Y-121344091D01*
X168592331Y-121293796D01*
X168707546Y-121207546D01*
X168793796Y-121092331D01*
X168844091Y-120957483D01*
X168850500Y-120897873D01*
X168850499Y-119102128D01*
X168844091Y-119042517D01*
X168842810Y-119039083D01*
X168793797Y-118907671D01*
X168793793Y-118907664D01*
X168707547Y-118792455D01*
X168707544Y-118792452D01*
X168592335Y-118706206D01*
X168592328Y-118706202D01*
X168457482Y-118655908D01*
X168457483Y-118655908D01*
X168397883Y-118649501D01*
X168397881Y-118649500D01*
X168397873Y-118649500D01*
X168397864Y-118649500D01*
X166602129Y-118649500D01*
X166602123Y-118649501D01*
X166542516Y-118655908D01*
X166407671Y-118706202D01*
X166407664Y-118706206D01*
X166292455Y-118792452D01*
X166292452Y-118792455D01*
X166206206Y-118907664D01*
X166206203Y-118907669D01*
X166157189Y-119039083D01*
X166115317Y-119095016D01*
X166049853Y-119119433D01*
X165981580Y-119104581D01*
X165953326Y-119083430D01*
X165839786Y-118969890D01*
X165667820Y-118844951D01*
X165478414Y-118748444D01*
X165478413Y-118748443D01*
X165478412Y-118748443D01*
X165276243Y-118682754D01*
X165276241Y-118682753D01*
X165276240Y-118682753D01*
X165114957Y-118657208D01*
X165066287Y-118649500D01*
X164853713Y-118649500D01*
X164805042Y-118657208D01*
X164643760Y-118682753D01*
X164441585Y-118748444D01*
X164252179Y-118844951D01*
X164080213Y-118969890D01*
X163929890Y-119120213D01*
X163804949Y-119292182D01*
X163800484Y-119300946D01*
X163752509Y-119351742D01*
X163684688Y-119368536D01*
X163618553Y-119345998D01*
X163579516Y-119300946D01*
X163575050Y-119292182D01*
X163450109Y-119120213D01*
X163299786Y-118969890D01*
X163127820Y-118844951D01*
X162938414Y-118748444D01*
X162938413Y-118748443D01*
X162938412Y-118748443D01*
X162736243Y-118682754D01*
X162736241Y-118682753D01*
X162736240Y-118682753D01*
X162574957Y-118657208D01*
X162526287Y-118649500D01*
X162313713Y-118649500D01*
X162265042Y-118657208D01*
X162103760Y-118682753D01*
X161901585Y-118748444D01*
X161712179Y-118844951D01*
X161540213Y-118969890D01*
X161389890Y-119120213D01*
X161264949Y-119292182D01*
X161260484Y-119300946D01*
X161212509Y-119351742D01*
X161144688Y-119368536D01*
X161078553Y-119345998D01*
X161039516Y-119300946D01*
X161035050Y-119292182D01*
X160910109Y-119120213D01*
X160759786Y-118969890D01*
X160587820Y-118844951D01*
X160398414Y-118748444D01*
X160398413Y-118748443D01*
X160398412Y-118748443D01*
X160196243Y-118682754D01*
X160196241Y-118682753D01*
X160196240Y-118682753D01*
X160034957Y-118657208D01*
X159986287Y-118649500D01*
X159773713Y-118649500D01*
X159725042Y-118657208D01*
X159563760Y-118682753D01*
X159361585Y-118748444D01*
X159172179Y-118844951D01*
X159000213Y-118969890D01*
X158849890Y-119120213D01*
X158724949Y-119292182D01*
X158720484Y-119300946D01*
X158672509Y-119351742D01*
X158604688Y-119368536D01*
X158538553Y-119345998D01*
X158499516Y-119300946D01*
X158495050Y-119292182D01*
X158370109Y-119120213D01*
X158219786Y-118969890D01*
X158047820Y-118844951D01*
X157858414Y-118748444D01*
X157858413Y-118748443D01*
X157858412Y-118748443D01*
X157656243Y-118682754D01*
X157656241Y-118682753D01*
X157656240Y-118682753D01*
X157494957Y-118657208D01*
X157446287Y-118649500D01*
X157233713Y-118649500D01*
X157185042Y-118657208D01*
X157023760Y-118682753D01*
X156821585Y-118748444D01*
X156632179Y-118844951D01*
X156460213Y-118969890D01*
X156309890Y-119120213D01*
X156184949Y-119292182D01*
X156180484Y-119300946D01*
X156132509Y-119351742D01*
X156064688Y-119368536D01*
X155998553Y-119345998D01*
X155959516Y-119300946D01*
X155955050Y-119292182D01*
X155830109Y-119120213D01*
X155679786Y-118969890D01*
X155507820Y-118844951D01*
X155318414Y-118748444D01*
X155318413Y-118748443D01*
X155318412Y-118748443D01*
X155116243Y-118682754D01*
X155116241Y-118682753D01*
X155116240Y-118682753D01*
X154954957Y-118657208D01*
X154906287Y-118649500D01*
X154693713Y-118649500D01*
X154645042Y-118657208D01*
X154483760Y-118682753D01*
X154281585Y-118748444D01*
X154092179Y-118844951D01*
X153920213Y-118969890D01*
X153769890Y-119120213D01*
X153644951Y-119292179D01*
X153548444Y-119481585D01*
X153482753Y-119683760D01*
X153449500Y-119893713D01*
X106748700Y-119893713D01*
X106748700Y-115194711D01*
X146460100Y-115194711D01*
X146460100Y-115437288D01*
X146491761Y-115677785D01*
X146554547Y-115912104D01*
X146647373Y-116136205D01*
X146647376Y-116136212D01*
X146768664Y-116346289D01*
X146768666Y-116346292D01*
X146768667Y-116346293D01*
X146916333Y-116538736D01*
X146916339Y-116538743D01*
X147087856Y-116710260D01*
X147087862Y-116710265D01*
X147280311Y-116857936D01*
X147490388Y-116979224D01*
X147714500Y-117072054D01*
X147948811Y-117134838D01*
X148129186Y-117158584D01*
X148189311Y-117166500D01*
X148189312Y-117166500D01*
X148431889Y-117166500D01*
X148479988Y-117160167D01*
X148672389Y-117134838D01*
X148906700Y-117072054D01*
X149130812Y-116979224D01*
X149340889Y-116857936D01*
X149533338Y-116710265D01*
X149704865Y-116538738D01*
X149852536Y-116346289D01*
X149973824Y-116136212D01*
X150066654Y-115912100D01*
X150129438Y-115677789D01*
X150161100Y-115437288D01*
X150161100Y-115194712D01*
X150129438Y-114954211D01*
X150066654Y-114719900D01*
X149973824Y-114495788D01*
X149852536Y-114285711D01*
X149704865Y-114093262D01*
X149704860Y-114093256D01*
X149533343Y-113921739D01*
X149533336Y-113921733D01*
X149340893Y-113774067D01*
X149340892Y-113774066D01*
X149340889Y-113774064D01*
X149130812Y-113652776D01*
X149130805Y-113652773D01*
X148906704Y-113559947D01*
X148789544Y-113528554D01*
X148672389Y-113497162D01*
X148672388Y-113497161D01*
X148672385Y-113497161D01*
X148431889Y-113465500D01*
X148431888Y-113465500D01*
X148189312Y-113465500D01*
X148189311Y-113465500D01*
X147948814Y-113497161D01*
X147714495Y-113559947D01*
X147490394Y-113652773D01*
X147490385Y-113652777D01*
X147280306Y-113774067D01*
X147087863Y-113921733D01*
X147087856Y-113921739D01*
X146916339Y-114093256D01*
X146916333Y-114093263D01*
X146768667Y-114285706D01*
X146647377Y-114495785D01*
X146647373Y-114495794D01*
X146554547Y-114719895D01*
X146491761Y-114954214D01*
X146460100Y-115194711D01*
X106748700Y-115194711D01*
X106748700Y-110377989D01*
X109571700Y-110377989D01*
X109571700Y-110551211D01*
X109598798Y-110722301D01*
X109652327Y-110887045D01*
X109730968Y-111041388D01*
X109832786Y-111181528D01*
X109832788Y-111181530D01*
X109940327Y-111289069D01*
X109973812Y-111350392D01*
X109968828Y-111420084D01*
X109926956Y-111476017D01*
X109917744Y-111482288D01*
X109853544Y-111521887D01*
X109729489Y-111645942D01*
X109637387Y-111795263D01*
X109637385Y-111795268D01*
X109609549Y-111879270D01*
X109582201Y-111961803D01*
X109582201Y-111961804D01*
X109582200Y-111961804D01*
X109571700Y-112064583D01*
X109571700Y-112864601D01*
X109571701Y-112864619D01*
X109582200Y-112967396D01*
X109582201Y-112967399D01*
X109637385Y-113133931D01*
X109637387Y-113133936D01*
X109640719Y-113139338D01*
X109729488Y-113283256D01*
X109853544Y-113407312D01*
X110002866Y-113499414D01*
X110169403Y-113554599D01*
X110272191Y-113565100D01*
X111622208Y-113565099D01*
X111724997Y-113554599D01*
X111891534Y-113499414D01*
X112040856Y-113407312D01*
X112164912Y-113283256D01*
X112257014Y-113133934D01*
X112312199Y-112967397D01*
X112322700Y-112864609D01*
X112322699Y-112064592D01*
X112312199Y-111961803D01*
X112257014Y-111795266D01*
X112164912Y-111645944D01*
X112040856Y-111521888D01*
X112040852Y-111521885D01*
X111976656Y-111482288D01*
X111929931Y-111430340D01*
X111918710Y-111361377D01*
X111946553Y-111297295D01*
X111954050Y-111289091D01*
X112061614Y-111181528D01*
X112163432Y-111041388D01*
X112242073Y-110887045D01*
X112295602Y-110722301D01*
X112322700Y-110551211D01*
X112322700Y-110377989D01*
X112295602Y-110206899D01*
X112242073Y-110042155D01*
X112163432Y-109887812D01*
X112061614Y-109747672D01*
X111939128Y-109625186D01*
X111798988Y-109523368D01*
X111644645Y-109444727D01*
X111479901Y-109391198D01*
X111479899Y-109391197D01*
X111479898Y-109391197D01*
X111348471Y-109370381D01*
X111308811Y-109364100D01*
X110585589Y-109364100D01*
X110545928Y-109370381D01*
X110414502Y-109391197D01*
X110249752Y-109444728D01*
X110095411Y-109523368D01*
X110015456Y-109581459D01*
X109955272Y-109625186D01*
X109955270Y-109625188D01*
X109955269Y-109625188D01*
X109832788Y-109747669D01*
X109832788Y-109747670D01*
X109832786Y-109747672D01*
X109789059Y-109807856D01*
X109730968Y-109887811D01*
X109652328Y-110042152D01*
X109598797Y-110206902D01*
X109571700Y-110377989D01*
X106748700Y-110377989D01*
X106748700Y-106245553D01*
X119062100Y-106245553D01*
X119062100Y-106403246D01*
X119092861Y-106557889D01*
X119092864Y-106557901D01*
X119153202Y-106703572D01*
X119153209Y-106703585D01*
X119240810Y-106834688D01*
X119240813Y-106834692D01*
X119352307Y-106946186D01*
X119352311Y-106946189D01*
X119483414Y-107033790D01*
X119483427Y-107033797D01*
X119629098Y-107094135D01*
X119629103Y-107094137D01*
X119783753Y-107124899D01*
X119783756Y-107124900D01*
X119783758Y-107124900D01*
X119941444Y-107124900D01*
X119941445Y-107124899D01*
X120096097Y-107094137D01*
X120241779Y-107033794D01*
X120336059Y-106970798D01*
X120402736Y-106949920D01*
X120404950Y-106949900D01*
X120923748Y-106949900D01*
X120990787Y-106969585D01*
X121011429Y-106986219D01*
X122435663Y-108410455D01*
X122435667Y-108410458D01*
X122538110Y-108478909D01*
X122538111Y-108478909D01*
X122538115Y-108478912D01*
X122599437Y-108504312D01*
X122651948Y-108526063D01*
X122671997Y-108530051D01*
X122735065Y-108542596D01*
X122772792Y-108550101D01*
X122772794Y-108550101D01*
X122902121Y-108550101D01*
X122902141Y-108550100D01*
X129635948Y-108550100D01*
X129702987Y-108569785D01*
X129723629Y-108586419D01*
X133902416Y-112765206D01*
X133902445Y-112765237D01*
X133992663Y-112855455D01*
X133992667Y-112855458D01*
X134095107Y-112923907D01*
X134095113Y-112923910D01*
X134095114Y-112923911D01*
X134208948Y-112971063D01*
X134269371Y-112983081D01*
X134329793Y-112995100D01*
X134329794Y-112995100D01*
X137176450Y-112995100D01*
X137243489Y-113014785D01*
X137245341Y-113015998D01*
X137339621Y-113078994D01*
X137339623Y-113078995D01*
X137339627Y-113078997D01*
X137485298Y-113139335D01*
X137485303Y-113139337D01*
X137639953Y-113170099D01*
X137639956Y-113170100D01*
X137639958Y-113170100D01*
X137797644Y-113170100D01*
X137797645Y-113170099D01*
X137952297Y-113139337D01*
X138097979Y-113078994D01*
X138229089Y-112991389D01*
X138340589Y-112879889D01*
X138428194Y-112748779D01*
X138488537Y-112603097D01*
X138519300Y-112448442D01*
X138519300Y-112290758D01*
X138519300Y-112290755D01*
X138519299Y-112290753D01*
X138488538Y-112136110D01*
X138488537Y-112136103D01*
X138458919Y-112064598D01*
X138428197Y-111990427D01*
X138428190Y-111990414D01*
X138340589Y-111859311D01*
X138340586Y-111859307D01*
X138229092Y-111747813D01*
X138229088Y-111747810D01*
X138097985Y-111660209D01*
X138097972Y-111660202D01*
X137952301Y-111599864D01*
X137952289Y-111599861D01*
X137797645Y-111569100D01*
X137797642Y-111569100D01*
X137639958Y-111569100D01*
X137639955Y-111569100D01*
X137485310Y-111599861D01*
X137485298Y-111599864D01*
X137339627Y-111660202D01*
X137339615Y-111660209D01*
X137245341Y-111723202D01*
X137178664Y-111744080D01*
X137176450Y-111744100D01*
X134701852Y-111744100D01*
X134634813Y-111724415D01*
X134614171Y-111707781D01*
X130439550Y-107533160D01*
X130432260Y-107525870D01*
X130432258Y-107525867D01*
X130345133Y-107438742D01*
X130293909Y-107404515D01*
X130242686Y-107370288D01*
X130242683Y-107370286D01*
X130242680Y-107370285D01*
X130169003Y-107339768D01*
X130169001Y-107339767D01*
X130162192Y-107336947D01*
X130128852Y-107323137D01*
X130068429Y-107311118D01*
X130063706Y-107310178D01*
X130063704Y-107310178D01*
X130008010Y-107299100D01*
X130008007Y-107299100D01*
X130008006Y-107299100D01*
X127833320Y-107299100D01*
X127766281Y-107279415D01*
X127720526Y-107226611D01*
X127710582Y-107157453D01*
X127718758Y-107127650D01*
X127744337Y-107065897D01*
X127775100Y-106911242D01*
X127775100Y-106753558D01*
X127775100Y-106753555D01*
X127775099Y-106753553D01*
X127744952Y-106601997D01*
X127744337Y-106598903D01*
X127727349Y-106557889D01*
X127683997Y-106453227D01*
X127683990Y-106453214D01*
X127596389Y-106322111D01*
X127596386Y-106322107D01*
X127484892Y-106210613D01*
X127484888Y-106210610D01*
X127353785Y-106123009D01*
X127353772Y-106123002D01*
X127208101Y-106062664D01*
X127208089Y-106062661D01*
X127096885Y-106040541D01*
X127034974Y-106008156D01*
X127033395Y-106006605D01*
X126765474Y-105738684D01*
X126731989Y-105677361D01*
X126731548Y-105675246D01*
X126728337Y-105659103D01*
X126710070Y-105615002D01*
X126667997Y-105513427D01*
X126667990Y-105513414D01*
X126580389Y-105382311D01*
X126580386Y-105382307D01*
X126468892Y-105270813D01*
X126468888Y-105270810D01*
X126337785Y-105183209D01*
X126337772Y-105183202D01*
X126192101Y-105122864D01*
X126192089Y-105122861D01*
X126037445Y-105092100D01*
X126037442Y-105092100D01*
X125879758Y-105092100D01*
X125879755Y-105092100D01*
X125725110Y-105122861D01*
X125725098Y-105122864D01*
X125579427Y-105183202D01*
X125579414Y-105183209D01*
X125448311Y-105270810D01*
X125448307Y-105270813D01*
X125336813Y-105382307D01*
X125336810Y-105382311D01*
X125249209Y-105513414D01*
X125249202Y-105513427D01*
X125188864Y-105659098D01*
X125188861Y-105659110D01*
X125158100Y-105813753D01*
X125158100Y-105971446D01*
X125188861Y-106126089D01*
X125188864Y-106126101D01*
X125249202Y-106271772D01*
X125249209Y-106271785D01*
X125336810Y-106402888D01*
X125336813Y-106402892D01*
X125448307Y-106514386D01*
X125448311Y-106514389D01*
X125579414Y-106601990D01*
X125579427Y-106601997D01*
X125725098Y-106662335D01*
X125725103Y-106662337D01*
X125879753Y-106693099D01*
X125879756Y-106693100D01*
X125879758Y-106693100D01*
X125899348Y-106693100D01*
X125928788Y-106701744D01*
X125958775Y-106708268D01*
X125963790Y-106712022D01*
X125966387Y-106712785D01*
X125987029Y-106729419D01*
X126148805Y-106891195D01*
X126182290Y-106952518D01*
X126182741Y-106954685D01*
X126198477Y-107033797D01*
X126204863Y-107065897D01*
X126230441Y-107127648D01*
X126237910Y-107197116D01*
X126206635Y-107259596D01*
X126146546Y-107295248D01*
X126115880Y-107299100D01*
X123144853Y-107299100D01*
X123077814Y-107279415D01*
X123057172Y-107262781D01*
X121730022Y-105935632D01*
X121720059Y-105925669D01*
X121720058Y-105925667D01*
X121632933Y-105838542D01*
X121581709Y-105804315D01*
X121530486Y-105770088D01*
X121530483Y-105770086D01*
X121530480Y-105770085D01*
X121457934Y-105740036D01*
X121457930Y-105740034D01*
X121449992Y-105736747D01*
X121416652Y-105722937D01*
X121315695Y-105702856D01*
X121312191Y-105702159D01*
X121312168Y-105702153D01*
X121295811Y-105698900D01*
X121295807Y-105698900D01*
X121295806Y-105698900D01*
X120404950Y-105698900D01*
X120337911Y-105679215D01*
X120336059Y-105678002D01*
X120241784Y-105615009D01*
X120241772Y-105615002D01*
X120096101Y-105554664D01*
X120096089Y-105554661D01*
X119941445Y-105523900D01*
X119941442Y-105523900D01*
X119783758Y-105523900D01*
X119783755Y-105523900D01*
X119629110Y-105554661D01*
X119629098Y-105554664D01*
X119483427Y-105615002D01*
X119483414Y-105615009D01*
X119352311Y-105702610D01*
X119352307Y-105702613D01*
X119240813Y-105814107D01*
X119240810Y-105814111D01*
X119153209Y-105945214D01*
X119153202Y-105945227D01*
X119092864Y-106090898D01*
X119092861Y-106090910D01*
X119062100Y-106245553D01*
X106748700Y-106245553D01*
X106748700Y-94499535D01*
X109393500Y-94499535D01*
X109393500Y-96295270D01*
X109393501Y-96295276D01*
X109399908Y-96354883D01*
X109450202Y-96489728D01*
X109450206Y-96489735D01*
X109536452Y-96604944D01*
X109536455Y-96604947D01*
X109651664Y-96691193D01*
X109651671Y-96691197D01*
X109783082Y-96740210D01*
X109839016Y-96782081D01*
X109863433Y-96847545D01*
X109848582Y-96915818D01*
X109827431Y-96944073D01*
X109713889Y-97057615D01*
X109588951Y-97229579D01*
X109492444Y-97418985D01*
X109426753Y-97621160D01*
X109393500Y-97831113D01*
X109393500Y-98043686D01*
X109426753Y-98253639D01*
X109492444Y-98455814D01*
X109588951Y-98645220D01*
X109713890Y-98817186D01*
X109864213Y-98967509D01*
X110036179Y-99092448D01*
X110036181Y-99092449D01*
X110036184Y-99092451D01*
X110225588Y-99188957D01*
X110427757Y-99254646D01*
X110637713Y-99287900D01*
X110637714Y-99287900D01*
X110850286Y-99287900D01*
X110850287Y-99287900D01*
X111060243Y-99254646D01*
X111262412Y-99188957D01*
X111451816Y-99092451D01*
X111473789Y-99076486D01*
X111623786Y-98967509D01*
X111623788Y-98967506D01*
X111623792Y-98967504D01*
X111774104Y-98817192D01*
X111774106Y-98817188D01*
X111774109Y-98817186D01*
X111899048Y-98645220D01*
X111899047Y-98645220D01*
X111899051Y-98645216D01*
X111995557Y-98455812D01*
X112061246Y-98253643D01*
X112094500Y-98043687D01*
X112094500Y-97831113D01*
X112061246Y-97621157D01*
X111995557Y-97418988D01*
X111899051Y-97229584D01*
X111899049Y-97229581D01*
X111899048Y-97229579D01*
X111774109Y-97057613D01*
X111660569Y-96944073D01*
X111627084Y-96882750D01*
X111632068Y-96813058D01*
X111673940Y-96757125D01*
X111704915Y-96740210D01*
X111836331Y-96691196D01*
X111951546Y-96604946D01*
X112037796Y-96489731D01*
X112088091Y-96354883D01*
X112094500Y-96295273D01*
X112094499Y-94499528D01*
X112088091Y-94439917D01*
X112037796Y-94305069D01*
X112037795Y-94305068D01*
X112037793Y-94305064D01*
X111951547Y-94189855D01*
X111951544Y-94189852D01*
X111836335Y-94103606D01*
X111836328Y-94103602D01*
X111701482Y-94053308D01*
X111701483Y-94053308D01*
X111641883Y-94046901D01*
X111641881Y-94046900D01*
X111641873Y-94046900D01*
X111641864Y-94046900D01*
X109846129Y-94046900D01*
X109846123Y-94046901D01*
X109786516Y-94053308D01*
X109651671Y-94103602D01*
X109651664Y-94103606D01*
X109536455Y-94189852D01*
X109536452Y-94189855D01*
X109450206Y-94305064D01*
X109450202Y-94305071D01*
X109399908Y-94439917D01*
X109393501Y-94499516D01*
X109393501Y-94499523D01*
X109393500Y-94499535D01*
X106748700Y-94499535D01*
X106748700Y-83977989D01*
X109529700Y-83977989D01*
X109529700Y-84151211D01*
X109556798Y-84322301D01*
X109610327Y-84487045D01*
X109688968Y-84641388D01*
X109790786Y-84781528D01*
X109790788Y-84781530D01*
X109898327Y-84889069D01*
X109931812Y-84950392D01*
X109926828Y-85020084D01*
X109884956Y-85076017D01*
X109875744Y-85082288D01*
X109811544Y-85121887D01*
X109687489Y-85245942D01*
X109595387Y-85395263D01*
X109595386Y-85395266D01*
X109540201Y-85561803D01*
X109540201Y-85561804D01*
X109540200Y-85561804D01*
X109529700Y-85664583D01*
X109529700Y-86464601D01*
X109529701Y-86464619D01*
X109540200Y-86567396D01*
X109540201Y-86567399D01*
X109595385Y-86733931D01*
X109595386Y-86733934D01*
X109687488Y-86883256D01*
X109811544Y-87007312D01*
X109960866Y-87099414D01*
X110127403Y-87154599D01*
X110230191Y-87165100D01*
X111580208Y-87165099D01*
X111682997Y-87154599D01*
X111849534Y-87099414D01*
X111998856Y-87007312D01*
X112122912Y-86883256D01*
X112215014Y-86733934D01*
X112270199Y-86567397D01*
X112280700Y-86464609D01*
X112280699Y-85664592D01*
X112270199Y-85561803D01*
X112215014Y-85395266D01*
X112122912Y-85245944D01*
X111998856Y-85121888D01*
X111998852Y-85121885D01*
X111934656Y-85082288D01*
X111887931Y-85030340D01*
X111876710Y-84961377D01*
X111904553Y-84897295D01*
X111912050Y-84889091D01*
X112019614Y-84781528D01*
X112121432Y-84641388D01*
X112200073Y-84487045D01*
X112253602Y-84322301D01*
X112280700Y-84151211D01*
X112280700Y-83977989D01*
X112253602Y-83806899D01*
X112200073Y-83642155D01*
X112121432Y-83487812D01*
X112019614Y-83347672D01*
X111897128Y-83225186D01*
X111756988Y-83123368D01*
X111602645Y-83044727D01*
X111437901Y-82991198D01*
X111437899Y-82991197D01*
X111437898Y-82991197D01*
X111306471Y-82970381D01*
X111266811Y-82964100D01*
X110543589Y-82964100D01*
X110503928Y-82970381D01*
X110372502Y-82991197D01*
X110207752Y-83044728D01*
X110053411Y-83123368D01*
X109973456Y-83181459D01*
X109913272Y-83225186D01*
X109913270Y-83225188D01*
X109913269Y-83225188D01*
X109790788Y-83347669D01*
X109790788Y-83347670D01*
X109790786Y-83347672D01*
X109747059Y-83407856D01*
X109688968Y-83487811D01*
X109610328Y-83642152D01*
X109556797Y-83806902D01*
X109529700Y-83977989D01*
X106748700Y-83977989D01*
X106748700Y-77069311D01*
X110061900Y-77069311D01*
X110061900Y-77311888D01*
X110085639Y-77492211D01*
X110093562Y-77552389D01*
X110108004Y-77606286D01*
X110156347Y-77786704D01*
X110249173Y-78010805D01*
X110249177Y-78010814D01*
X110268742Y-78044701D01*
X110370464Y-78220889D01*
X110370466Y-78220892D01*
X110370467Y-78220893D01*
X110518133Y-78413336D01*
X110518139Y-78413343D01*
X110689656Y-78584860D01*
X110689663Y-78584866D01*
X110716352Y-78605345D01*
X110882111Y-78732536D01*
X111092188Y-78853824D01*
X111316300Y-78946654D01*
X111550611Y-79009438D01*
X111730986Y-79033184D01*
X111791111Y-79041100D01*
X111791112Y-79041100D01*
X112033689Y-79041100D01*
X112081788Y-79034767D01*
X112274189Y-79009438D01*
X112508500Y-78946654D01*
X112732612Y-78853824D01*
X112942689Y-78732536D01*
X113135138Y-78584865D01*
X113306665Y-78413338D01*
X113454336Y-78220889D01*
X113575624Y-78010812D01*
X113668454Y-77786700D01*
X113731238Y-77552389D01*
X113762900Y-77311888D01*
X113762900Y-77069312D01*
X113731238Y-76828811D01*
X113704023Y-76727244D01*
X113672214Y-76608531D01*
X113668453Y-76594497D01*
X113616839Y-76469890D01*
X113575624Y-76370388D01*
X113454336Y-76160311D01*
X113306665Y-75967862D01*
X113306660Y-75967856D01*
X113135143Y-75796339D01*
X113135134Y-75796331D01*
X113013258Y-75702813D01*
X121004400Y-75702813D01*
X121004400Y-76127800D01*
X121824070Y-76127800D01*
X121804325Y-76147545D01*
X121754956Y-76233055D01*
X121729400Y-76328430D01*
X121729400Y-76427170D01*
X121754956Y-76522545D01*
X121804325Y-76608055D01*
X121824070Y-76627800D01*
X121004401Y-76627800D01*
X121004401Y-77052786D01*
X121014894Y-77155497D01*
X121070041Y-77321919D01*
X121070043Y-77321924D01*
X121162084Y-77471145D01*
X121286054Y-77595115D01*
X121435275Y-77687156D01*
X121435280Y-77687158D01*
X121601702Y-77742305D01*
X121601709Y-77742306D01*
X121704419Y-77752799D01*
X121854399Y-77752799D01*
X121854400Y-77752798D01*
X121854400Y-76658130D01*
X121874145Y-76677875D01*
X121959655Y-76727244D01*
X122055030Y-76752800D01*
X122153770Y-76752800D01*
X122249145Y-76727244D01*
X122334655Y-76677875D01*
X122354400Y-76658130D01*
X122354400Y-77752799D01*
X122504372Y-77752799D01*
X122504386Y-77752798D01*
X122607097Y-77742305D01*
X122773519Y-77687158D01*
X122773524Y-77687156D01*
X122922745Y-77595115D01*
X123046715Y-77471145D01*
X123086345Y-77406894D01*
X123138293Y-77360168D01*
X123207255Y-77348945D01*
X123271337Y-77376788D01*
X123279566Y-77384308D01*
X123387472Y-77492214D01*
X123527612Y-77594032D01*
X123681955Y-77672673D01*
X123846699Y-77726202D01*
X124017789Y-77753300D01*
X124017790Y-77753300D01*
X124191010Y-77753300D01*
X124191011Y-77753300D01*
X124362101Y-77726202D01*
X124526845Y-77672673D01*
X124681188Y-77594032D01*
X124821328Y-77492214D01*
X124943814Y-77369728D01*
X125004082Y-77286775D01*
X125059412Y-77244111D01*
X125129026Y-77238132D01*
X125190821Y-77270738D01*
X125204715Y-77286773D01*
X125264986Y-77369728D01*
X125387472Y-77492214D01*
X125527612Y-77594032D01*
X125681955Y-77672673D01*
X125846699Y-77726202D01*
X126017789Y-77753300D01*
X126017790Y-77753300D01*
X126191010Y-77753300D01*
X126191011Y-77753300D01*
X126362101Y-77726202D01*
X126526845Y-77672673D01*
X126681188Y-77594032D01*
X126821328Y-77492214D01*
X126943814Y-77369728D01*
X127004082Y-77286775D01*
X127059412Y-77244111D01*
X127129026Y-77238132D01*
X127190821Y-77270738D01*
X127204715Y-77286773D01*
X127264986Y-77369728D01*
X127387472Y-77492214D01*
X127527612Y-77594032D01*
X127681955Y-77672673D01*
X127846699Y-77726202D01*
X128017789Y-77753300D01*
X128017790Y-77753300D01*
X128191010Y-77753300D01*
X128191011Y-77753300D01*
X128362101Y-77726202D01*
X128526845Y-77672673D01*
X128681188Y-77594032D01*
X128821328Y-77492214D01*
X128943814Y-77369728D01*
X129045632Y-77229588D01*
X129085985Y-77150389D01*
X133415100Y-77150389D01*
X133415100Y-77873610D01*
X133438034Y-78018414D01*
X133442198Y-78044701D01*
X133495727Y-78209445D01*
X133574368Y-78363788D01*
X133676186Y-78503928D01*
X133798672Y-78626414D01*
X133938812Y-78728232D01*
X134093155Y-78806873D01*
X134257899Y-78860402D01*
X134428989Y-78887500D01*
X134428990Y-78887500D01*
X134602210Y-78887500D01*
X134602211Y-78887500D01*
X134773301Y-78860402D01*
X134938045Y-78806873D01*
X135092388Y-78728232D01*
X135232528Y-78626414D01*
X135355014Y-78503928D01*
X135415282Y-78420975D01*
X135470612Y-78378311D01*
X135540226Y-78372332D01*
X135602021Y-78404938D01*
X135615915Y-78420973D01*
X135676186Y-78503928D01*
X135798672Y-78626414D01*
X135938812Y-78728232D01*
X136093155Y-78806873D01*
X136257899Y-78860402D01*
X136428989Y-78887500D01*
X136428990Y-78887500D01*
X136602210Y-78887500D01*
X136602211Y-78887500D01*
X136773301Y-78860402D01*
X136938045Y-78806873D01*
X137092388Y-78728232D01*
X137232528Y-78626414D01*
X137355014Y-78503928D01*
X137415282Y-78420975D01*
X137470612Y-78378311D01*
X137540226Y-78372332D01*
X137602021Y-78404938D01*
X137615915Y-78420973D01*
X137676186Y-78503928D01*
X137798672Y-78626414D01*
X137938812Y-78728232D01*
X138093155Y-78806873D01*
X138257899Y-78860402D01*
X138428989Y-78887500D01*
X138428990Y-78887500D01*
X138602210Y-78887500D01*
X138602211Y-78887500D01*
X138773301Y-78860402D01*
X138938045Y-78806873D01*
X139092388Y-78728232D01*
X139232528Y-78626414D01*
X139340436Y-78518505D01*
X139401755Y-78485023D01*
X139471447Y-78490007D01*
X139527381Y-78531878D01*
X139533653Y-78541093D01*
X139573282Y-78605343D01*
X139697254Y-78729315D01*
X139846475Y-78821356D01*
X139846480Y-78821358D01*
X140012902Y-78876505D01*
X140012909Y-78876506D01*
X140115619Y-78886999D01*
X140265599Y-78886999D01*
X140265600Y-78886998D01*
X140265600Y-77792330D01*
X140285345Y-77812075D01*
X140370855Y-77861444D01*
X140466230Y-77887000D01*
X140564970Y-77887000D01*
X140660345Y-77861444D01*
X140745855Y-77812075D01*
X140765600Y-77792330D01*
X140765600Y-78886999D01*
X140915572Y-78886999D01*
X140915586Y-78886998D01*
X141018297Y-78876505D01*
X141184719Y-78821358D01*
X141184724Y-78821356D01*
X141333945Y-78729315D01*
X141457915Y-78605345D01*
X141549956Y-78456124D01*
X141549958Y-78456119D01*
X141605105Y-78289697D01*
X141605106Y-78289690D01*
X141615599Y-78186986D01*
X141615600Y-78186973D01*
X141615600Y-77762000D01*
X140795930Y-77762000D01*
X140815675Y-77742255D01*
X140865044Y-77656745D01*
X140890600Y-77561370D01*
X140890600Y-77462630D01*
X140865044Y-77367255D01*
X140815675Y-77281745D01*
X140795930Y-77262000D01*
X141615599Y-77262000D01*
X141615599Y-76837028D01*
X141615598Y-76837013D01*
X141605105Y-76734302D01*
X141573131Y-76637810D01*
X141561309Y-76602135D01*
X148489500Y-76602135D01*
X148489500Y-78397870D01*
X148489501Y-78397876D01*
X148495908Y-78457483D01*
X148546202Y-78592328D01*
X148546206Y-78592335D01*
X148632452Y-78707544D01*
X148632455Y-78707547D01*
X148747664Y-78793793D01*
X148747671Y-78793797D01*
X148882517Y-78844091D01*
X148882516Y-78844091D01*
X148889444Y-78844835D01*
X148942127Y-78850500D01*
X150737872Y-78850499D01*
X150797483Y-78844091D01*
X150932331Y-78793796D01*
X151047546Y-78707546D01*
X151133796Y-78592331D01*
X151182810Y-78460916D01*
X151224681Y-78404984D01*
X151290145Y-78380566D01*
X151358418Y-78395417D01*
X151386673Y-78416569D01*
X151500213Y-78530109D01*
X151672179Y-78655048D01*
X151672181Y-78655049D01*
X151672184Y-78655051D01*
X151861588Y-78751557D01*
X152063757Y-78817246D01*
X152273713Y-78850500D01*
X152273714Y-78850500D01*
X152486286Y-78850500D01*
X152486287Y-78850500D01*
X152696243Y-78817246D01*
X152898412Y-78751557D01*
X153087816Y-78655051D01*
X153174138Y-78592335D01*
X153259786Y-78530109D01*
X153259788Y-78530106D01*
X153259792Y-78530104D01*
X153410104Y-78379792D01*
X153410106Y-78379788D01*
X153410109Y-78379786D01*
X153535048Y-78207820D01*
X153535047Y-78207820D01*
X153535051Y-78207816D01*
X153539514Y-78199054D01*
X153587488Y-78148259D01*
X153655308Y-78131463D01*
X153721444Y-78153999D01*
X153760486Y-78199056D01*
X153764951Y-78207820D01*
X153889890Y-78379786D01*
X154040213Y-78530109D01*
X154212179Y-78655048D01*
X154212181Y-78655049D01*
X154212184Y-78655051D01*
X154401588Y-78751557D01*
X154603757Y-78817246D01*
X154813713Y-78850500D01*
X154813714Y-78850500D01*
X155026286Y-78850500D01*
X155026287Y-78850500D01*
X155236243Y-78817246D01*
X155438412Y-78751557D01*
X155627816Y-78655051D01*
X155714138Y-78592335D01*
X155799786Y-78530109D01*
X155799788Y-78530106D01*
X155799792Y-78530104D01*
X155950104Y-78379792D01*
X155950106Y-78379788D01*
X155950109Y-78379786D01*
X156075048Y-78207820D01*
X156075047Y-78207820D01*
X156075051Y-78207816D01*
X156079514Y-78199054D01*
X156127488Y-78148259D01*
X156195308Y-78131463D01*
X156261444Y-78153999D01*
X156300486Y-78199056D01*
X156304951Y-78207820D01*
X156429890Y-78379786D01*
X156580213Y-78530109D01*
X156752179Y-78655048D01*
X156752181Y-78655049D01*
X156752184Y-78655051D01*
X156941588Y-78751557D01*
X157143757Y-78817246D01*
X157353713Y-78850500D01*
X157353714Y-78850500D01*
X157566286Y-78850500D01*
X157566287Y-78850500D01*
X157776243Y-78817246D01*
X157978412Y-78751557D01*
X158167816Y-78655051D01*
X158254138Y-78592335D01*
X158339786Y-78530109D01*
X158339788Y-78530106D01*
X158339792Y-78530104D01*
X158490104Y-78379792D01*
X158490106Y-78379788D01*
X158490109Y-78379786D01*
X158615048Y-78207820D01*
X158615047Y-78207820D01*
X158615051Y-78207816D01*
X158619514Y-78199054D01*
X158667488Y-78148259D01*
X158735308Y-78131463D01*
X158801444Y-78153999D01*
X158840486Y-78199056D01*
X158844951Y-78207820D01*
X158969890Y-78379786D01*
X159120213Y-78530109D01*
X159292179Y-78655048D01*
X159292181Y-78655049D01*
X159292184Y-78655051D01*
X159481588Y-78751557D01*
X159683757Y-78817246D01*
X159893713Y-78850500D01*
X159893714Y-78850500D01*
X160106286Y-78850500D01*
X160106287Y-78850500D01*
X160316243Y-78817246D01*
X160518412Y-78751557D01*
X160707816Y-78655051D01*
X160794138Y-78592335D01*
X160879786Y-78530109D01*
X160879788Y-78530106D01*
X160879792Y-78530104D01*
X161030104Y-78379792D01*
X161030106Y-78379788D01*
X161030109Y-78379786D01*
X161155048Y-78207820D01*
X161155047Y-78207820D01*
X161155051Y-78207816D01*
X161159514Y-78199054D01*
X161207488Y-78148259D01*
X161275308Y-78131463D01*
X161341444Y-78153999D01*
X161380486Y-78199056D01*
X161384951Y-78207820D01*
X161509890Y-78379786D01*
X161660213Y-78530109D01*
X161832179Y-78655048D01*
X161832181Y-78655049D01*
X161832184Y-78655051D01*
X162021588Y-78751557D01*
X162223757Y-78817246D01*
X162433713Y-78850500D01*
X162433714Y-78850500D01*
X162646286Y-78850500D01*
X162646287Y-78850500D01*
X162856243Y-78817246D01*
X163058412Y-78751557D01*
X163247816Y-78655051D01*
X163334138Y-78592335D01*
X163419786Y-78530109D01*
X163419788Y-78530106D01*
X163419792Y-78530104D01*
X163570104Y-78379792D01*
X163570106Y-78379788D01*
X163570109Y-78379786D01*
X163695048Y-78207820D01*
X163695047Y-78207820D01*
X163695051Y-78207816D01*
X163699514Y-78199054D01*
X163747488Y-78148259D01*
X163815308Y-78131463D01*
X163881444Y-78153999D01*
X163920486Y-78199056D01*
X163924951Y-78207820D01*
X164049890Y-78379786D01*
X164200213Y-78530109D01*
X164372179Y-78655048D01*
X164372181Y-78655049D01*
X164372184Y-78655051D01*
X164561588Y-78751557D01*
X164763757Y-78817246D01*
X164973713Y-78850500D01*
X164973714Y-78850500D01*
X165186286Y-78850500D01*
X165186287Y-78850500D01*
X165396243Y-78817246D01*
X165598412Y-78751557D01*
X165787816Y-78655051D01*
X165874138Y-78592335D01*
X165959786Y-78530109D01*
X165959788Y-78530106D01*
X165959792Y-78530104D01*
X166110104Y-78379792D01*
X166110106Y-78379788D01*
X166110109Y-78379786D01*
X166235048Y-78207820D01*
X166235047Y-78207820D01*
X166235051Y-78207816D01*
X166239514Y-78199054D01*
X166287488Y-78148259D01*
X166355308Y-78131463D01*
X166421444Y-78153999D01*
X166460486Y-78199056D01*
X166464951Y-78207820D01*
X166589890Y-78379786D01*
X166740213Y-78530109D01*
X166912179Y-78655048D01*
X166912181Y-78655049D01*
X166912184Y-78655051D01*
X167101588Y-78751557D01*
X167303757Y-78817246D01*
X167513713Y-78850500D01*
X167513714Y-78850500D01*
X167726286Y-78850500D01*
X167726287Y-78850500D01*
X167936243Y-78817246D01*
X168138412Y-78751557D01*
X168327816Y-78655051D01*
X168414138Y-78592335D01*
X168499786Y-78530109D01*
X168499788Y-78530106D01*
X168499792Y-78530104D01*
X168650104Y-78379792D01*
X168650106Y-78379788D01*
X168650109Y-78379786D01*
X168775048Y-78207820D01*
X168775047Y-78207820D01*
X168775051Y-78207816D01*
X168871557Y-78018412D01*
X168937246Y-77816243D01*
X168970500Y-77606287D01*
X168970500Y-77393713D01*
X168937246Y-77183757D01*
X168871557Y-76981588D01*
X168775051Y-76792184D01*
X168775049Y-76792181D01*
X168775048Y-76792179D01*
X168650109Y-76620213D01*
X168499786Y-76469890D01*
X168327820Y-76344951D01*
X168138414Y-76248444D01*
X168138413Y-76248443D01*
X168138412Y-76248443D01*
X167936243Y-76182754D01*
X167936241Y-76182753D01*
X167936240Y-76182753D01*
X167774957Y-76157208D01*
X167726287Y-76149500D01*
X167513713Y-76149500D01*
X167465042Y-76157208D01*
X167303760Y-76182753D01*
X167101585Y-76248444D01*
X166912179Y-76344951D01*
X166740213Y-76469890D01*
X166589890Y-76620213D01*
X166464949Y-76792182D01*
X166460484Y-76800946D01*
X166412509Y-76851742D01*
X166344688Y-76868536D01*
X166278553Y-76845998D01*
X166239516Y-76800946D01*
X166235050Y-76792182D01*
X166110109Y-76620213D01*
X165959786Y-76469890D01*
X165787820Y-76344951D01*
X165598414Y-76248444D01*
X165598413Y-76248443D01*
X165598412Y-76248443D01*
X165396243Y-76182754D01*
X165396241Y-76182753D01*
X165396240Y-76182753D01*
X165234957Y-76157208D01*
X165186287Y-76149500D01*
X164973713Y-76149500D01*
X164925042Y-76157208D01*
X164763760Y-76182753D01*
X164561585Y-76248444D01*
X164372179Y-76344951D01*
X164200213Y-76469890D01*
X164049890Y-76620213D01*
X163924949Y-76792182D01*
X163920484Y-76800946D01*
X163872509Y-76851742D01*
X163804688Y-76868536D01*
X163738553Y-76845998D01*
X163699516Y-76800946D01*
X163695050Y-76792182D01*
X163570109Y-76620213D01*
X163419786Y-76469890D01*
X163247820Y-76344951D01*
X163058414Y-76248444D01*
X163058413Y-76248443D01*
X163058412Y-76248443D01*
X162856243Y-76182754D01*
X162856241Y-76182753D01*
X162856240Y-76182753D01*
X162694957Y-76157208D01*
X162646287Y-76149500D01*
X162433713Y-76149500D01*
X162385042Y-76157208D01*
X162223760Y-76182753D01*
X162021585Y-76248444D01*
X161832179Y-76344951D01*
X161660213Y-76469890D01*
X161509890Y-76620213D01*
X161384949Y-76792182D01*
X161380484Y-76800946D01*
X161332509Y-76851742D01*
X161264688Y-76868536D01*
X161198553Y-76845998D01*
X161159516Y-76800946D01*
X161155050Y-76792182D01*
X161030109Y-76620213D01*
X160879786Y-76469890D01*
X160707820Y-76344951D01*
X160518414Y-76248444D01*
X160518413Y-76248443D01*
X160518412Y-76248443D01*
X160316243Y-76182754D01*
X160316241Y-76182753D01*
X160316240Y-76182753D01*
X160154957Y-76157208D01*
X160106287Y-76149500D01*
X159893713Y-76149500D01*
X159845042Y-76157208D01*
X159683760Y-76182753D01*
X159481585Y-76248444D01*
X159292179Y-76344951D01*
X159120213Y-76469890D01*
X158969890Y-76620213D01*
X158844949Y-76792182D01*
X158840484Y-76800946D01*
X158792509Y-76851742D01*
X158724688Y-76868536D01*
X158658553Y-76845998D01*
X158619516Y-76800946D01*
X158615050Y-76792182D01*
X158490109Y-76620213D01*
X158339786Y-76469890D01*
X158167820Y-76344951D01*
X157978414Y-76248444D01*
X157978413Y-76248443D01*
X157978412Y-76248443D01*
X157776243Y-76182754D01*
X157776241Y-76182753D01*
X157776240Y-76182753D01*
X157614957Y-76157208D01*
X157566287Y-76149500D01*
X157353713Y-76149500D01*
X157305042Y-76157208D01*
X157143760Y-76182753D01*
X156941585Y-76248444D01*
X156752179Y-76344951D01*
X156580213Y-76469890D01*
X156429890Y-76620213D01*
X156304949Y-76792182D01*
X156300484Y-76800946D01*
X156252509Y-76851742D01*
X156184688Y-76868536D01*
X156118553Y-76845998D01*
X156079516Y-76800946D01*
X156075050Y-76792182D01*
X155950109Y-76620213D01*
X155799786Y-76469890D01*
X155627820Y-76344951D01*
X155438414Y-76248444D01*
X155438413Y-76248443D01*
X155438412Y-76248443D01*
X155236243Y-76182754D01*
X155236241Y-76182753D01*
X155236240Y-76182753D01*
X155074957Y-76157208D01*
X155026287Y-76149500D01*
X154813713Y-76149500D01*
X154765042Y-76157208D01*
X154603760Y-76182753D01*
X154401585Y-76248444D01*
X154212179Y-76344951D01*
X154040213Y-76469890D01*
X153889890Y-76620213D01*
X153764949Y-76792182D01*
X153760484Y-76800946D01*
X153712509Y-76851742D01*
X153644688Y-76868536D01*
X153578553Y-76845998D01*
X153539516Y-76800946D01*
X153535050Y-76792182D01*
X153410109Y-76620213D01*
X153259786Y-76469890D01*
X153087820Y-76344951D01*
X152898414Y-76248444D01*
X152898413Y-76248443D01*
X152898412Y-76248443D01*
X152696243Y-76182754D01*
X152696241Y-76182753D01*
X152696240Y-76182753D01*
X152534957Y-76157208D01*
X152486287Y-76149500D01*
X152273713Y-76149500D01*
X152225042Y-76157208D01*
X152063760Y-76182753D01*
X151861585Y-76248444D01*
X151672179Y-76344951D01*
X151500215Y-76469889D01*
X151386673Y-76583431D01*
X151325350Y-76616915D01*
X151255658Y-76611931D01*
X151199725Y-76570059D01*
X151182810Y-76539082D01*
X151133797Y-76407671D01*
X151133793Y-76407664D01*
X151047547Y-76292455D01*
X151047544Y-76292452D01*
X150932335Y-76206206D01*
X150932328Y-76206202D01*
X150797482Y-76155908D01*
X150797483Y-76155908D01*
X150737883Y-76149501D01*
X150737881Y-76149500D01*
X150737873Y-76149500D01*
X150737864Y-76149500D01*
X148942129Y-76149500D01*
X148942123Y-76149501D01*
X148882516Y-76155908D01*
X148747671Y-76206202D01*
X148747664Y-76206206D01*
X148632455Y-76292452D01*
X148632452Y-76292455D01*
X148546206Y-76407664D01*
X148546202Y-76407671D01*
X148495908Y-76542517D01*
X148489501Y-76602116D01*
X148489500Y-76602135D01*
X141561309Y-76602135D01*
X141549958Y-76567880D01*
X141549956Y-76567875D01*
X141457915Y-76418654D01*
X141333945Y-76294684D01*
X141184724Y-76202643D01*
X141184719Y-76202641D01*
X141018297Y-76147494D01*
X141018290Y-76147493D01*
X140915586Y-76137000D01*
X140765600Y-76137000D01*
X140765600Y-77231670D01*
X140745855Y-77211925D01*
X140660345Y-77162556D01*
X140564970Y-77137000D01*
X140466230Y-77137000D01*
X140370855Y-77162556D01*
X140285345Y-77211925D01*
X140265600Y-77231670D01*
X140265600Y-76137000D01*
X140115627Y-76137000D01*
X140115612Y-76137001D01*
X140012902Y-76147494D01*
X139846480Y-76202641D01*
X139846475Y-76202643D01*
X139697254Y-76294684D01*
X139573284Y-76418654D01*
X139533653Y-76482907D01*
X139481705Y-76529631D01*
X139412742Y-76540853D01*
X139348660Y-76513010D01*
X139340433Y-76505491D01*
X139232530Y-76397588D01*
X139232528Y-76397586D01*
X139092388Y-76295768D01*
X138938045Y-76217127D01*
X138773301Y-76163598D01*
X138773299Y-76163597D01*
X138773298Y-76163597D01*
X138641871Y-76142781D01*
X138602211Y-76136500D01*
X138428989Y-76136500D01*
X138389328Y-76142781D01*
X138257902Y-76163597D01*
X138093152Y-76217128D01*
X137938811Y-76295768D01*
X137858856Y-76353859D01*
X137798672Y-76397586D01*
X137798670Y-76397588D01*
X137798669Y-76397588D01*
X137676188Y-76520069D01*
X137676181Y-76520078D01*
X137615917Y-76603023D01*
X137560587Y-76645689D01*
X137490974Y-76651667D01*
X137429179Y-76619061D01*
X137415283Y-76603023D01*
X137361959Y-76529631D01*
X137355014Y-76520072D01*
X137232528Y-76397586D01*
X137092388Y-76295768D01*
X136938045Y-76217127D01*
X136773301Y-76163598D01*
X136773299Y-76163597D01*
X136773298Y-76163597D01*
X136641871Y-76142781D01*
X136602211Y-76136500D01*
X136428989Y-76136500D01*
X136389328Y-76142781D01*
X136257902Y-76163597D01*
X136093152Y-76217128D01*
X135938811Y-76295768D01*
X135858856Y-76353859D01*
X135798672Y-76397586D01*
X135798670Y-76397588D01*
X135798669Y-76397588D01*
X135676188Y-76520069D01*
X135676181Y-76520078D01*
X135615917Y-76603023D01*
X135560587Y-76645689D01*
X135490974Y-76651667D01*
X135429179Y-76619061D01*
X135415283Y-76603023D01*
X135361959Y-76529631D01*
X135355014Y-76520072D01*
X135232528Y-76397586D01*
X135092388Y-76295768D01*
X134938045Y-76217127D01*
X134773301Y-76163598D01*
X134773299Y-76163597D01*
X134773298Y-76163597D01*
X134641871Y-76142781D01*
X134602211Y-76136500D01*
X134428989Y-76136500D01*
X134389328Y-76142781D01*
X134257902Y-76163597D01*
X134093152Y-76217128D01*
X133938811Y-76295768D01*
X133858856Y-76353859D01*
X133798672Y-76397586D01*
X133798670Y-76397588D01*
X133798669Y-76397588D01*
X133676188Y-76520069D01*
X133676188Y-76520070D01*
X133676186Y-76520072D01*
X133661088Y-76540853D01*
X133574368Y-76660211D01*
X133495728Y-76814552D01*
X133442197Y-76979302D01*
X133415100Y-77150389D01*
X129085985Y-77150389D01*
X129104400Y-77114248D01*
X129117152Y-77089222D01*
X129117153Y-77089220D01*
X129124270Y-77075250D01*
X129124273Y-77075245D01*
X129177802Y-76910501D01*
X129204900Y-76739411D01*
X129204900Y-76016189D01*
X129177802Y-75845099D01*
X129124273Y-75680355D01*
X129045632Y-75526012D01*
X128943814Y-75385872D01*
X128821328Y-75263386D01*
X128681188Y-75161568D01*
X128526845Y-75082927D01*
X128362101Y-75029398D01*
X128362099Y-75029397D01*
X128362098Y-75029397D01*
X128230671Y-75008581D01*
X128191011Y-75002300D01*
X128017789Y-75002300D01*
X127978128Y-75008581D01*
X127846702Y-75029397D01*
X127681952Y-75082928D01*
X127527611Y-75161568D01*
X127447656Y-75219659D01*
X127387472Y-75263386D01*
X127387470Y-75263388D01*
X127387469Y-75263388D01*
X127264988Y-75385869D01*
X127264981Y-75385878D01*
X127204717Y-75468823D01*
X127149387Y-75511489D01*
X127079774Y-75517467D01*
X127017979Y-75484861D01*
X127004083Y-75468823D01*
X126956299Y-75403057D01*
X126943814Y-75385872D01*
X126821328Y-75263386D01*
X126681188Y-75161568D01*
X126526845Y-75082927D01*
X126362101Y-75029398D01*
X126362099Y-75029397D01*
X126362098Y-75029397D01*
X126230671Y-75008581D01*
X126191011Y-75002300D01*
X126017789Y-75002300D01*
X125978128Y-75008581D01*
X125846702Y-75029397D01*
X125681952Y-75082928D01*
X125527611Y-75161568D01*
X125447656Y-75219659D01*
X125387472Y-75263386D01*
X125387470Y-75263388D01*
X125387469Y-75263388D01*
X125264988Y-75385869D01*
X125264981Y-75385878D01*
X125204717Y-75468823D01*
X125149387Y-75511489D01*
X125079774Y-75517467D01*
X125017979Y-75484861D01*
X125004083Y-75468823D01*
X124956299Y-75403057D01*
X124943814Y-75385872D01*
X124821328Y-75263386D01*
X124681188Y-75161568D01*
X124526845Y-75082927D01*
X124362101Y-75029398D01*
X124362099Y-75029397D01*
X124362098Y-75029397D01*
X124230671Y-75008581D01*
X124191011Y-75002300D01*
X124017789Y-75002300D01*
X123978128Y-75008581D01*
X123846702Y-75029397D01*
X123681952Y-75082928D01*
X123527611Y-75161568D01*
X123387473Y-75263385D01*
X123279566Y-75371292D01*
X123218243Y-75404776D01*
X123148551Y-75399792D01*
X123092618Y-75357920D01*
X123086346Y-75348706D01*
X123046717Y-75284456D01*
X122922745Y-75160484D01*
X122773524Y-75068443D01*
X122773519Y-75068441D01*
X122607097Y-75013294D01*
X122607090Y-75013293D01*
X122504386Y-75002800D01*
X122354400Y-75002800D01*
X122354400Y-76097470D01*
X122334655Y-76077725D01*
X122249145Y-76028356D01*
X122153770Y-76002800D01*
X122055030Y-76002800D01*
X121959655Y-76028356D01*
X121874145Y-76077725D01*
X121854400Y-76097470D01*
X121854400Y-75002800D01*
X121704427Y-75002800D01*
X121704412Y-75002801D01*
X121601702Y-75013294D01*
X121435280Y-75068441D01*
X121435275Y-75068443D01*
X121286054Y-75160484D01*
X121162084Y-75284454D01*
X121070043Y-75433675D01*
X121070041Y-75433680D01*
X121014894Y-75600102D01*
X121014893Y-75600109D01*
X121004400Y-75702813D01*
X113013258Y-75702813D01*
X112942693Y-75648667D01*
X112942692Y-75648666D01*
X112942689Y-75648664D01*
X112732612Y-75527376D01*
X112729317Y-75526011D01*
X112508504Y-75434547D01*
X112326840Y-75385870D01*
X112274189Y-75371762D01*
X112274188Y-75371761D01*
X112274185Y-75371761D01*
X112033689Y-75340100D01*
X112033688Y-75340100D01*
X111791112Y-75340100D01*
X111791111Y-75340100D01*
X111550614Y-75371761D01*
X111316295Y-75434547D01*
X111092194Y-75527373D01*
X111092185Y-75527377D01*
X110910251Y-75632417D01*
X110894778Y-75641351D01*
X110882106Y-75648667D01*
X110689663Y-75796333D01*
X110689656Y-75796339D01*
X110518139Y-75967856D01*
X110518133Y-75967863D01*
X110370467Y-76160306D01*
X110249177Y-76370385D01*
X110249173Y-76370394D01*
X110156347Y-76594495D01*
X110093561Y-76828814D01*
X110061900Y-77069311D01*
X106748700Y-77069311D01*
X106748700Y-72252500D01*
X106768385Y-72185461D01*
X106821189Y-72139706D01*
X106872700Y-72128500D01*
X174051300Y-72128500D01*
X174118339Y-72148185D01*
G37*
%TD.AperFunction*%
%TD*%
M02*
