%TF.GenerationSoftware,KiCad,Pcbnew,9.0.4*%
%TF.CreationDate,2026-06-02T20:43:56-07:00*%
%TF.ProjectId,Mykon,4d796b6f-6e2e-46b6-9963-61645f706362,rev?*%
%TF.SameCoordinates,Original*%
%TF.FileFunction,Legend,Top*%
%TF.FilePolarity,Positive*%
%FSLAX46Y46*%
G04 Gerber Fmt 4.6, Leading zero omitted, Abs format (unit mm)*
G04 Created by KiCad (PCBNEW 9.0.4) date 2026-06-02 20:43:56*
%MOMM*%
%LPD*%
G01*
G04 APERTURE LIST*
%ADD10C,0.300000*%
%ADD11C,0.150000*%
%ADD12C,0.120000*%
%ADD13C,0.152400*%
G04 APERTURE END LIST*
D10*
X127224310Y-89257712D02*
X127224310Y-87757712D01*
X127224310Y-87757712D02*
X127724310Y-88829141D01*
X127724310Y-88829141D02*
X128224310Y-87757712D01*
X128224310Y-87757712D02*
X128224310Y-89257712D01*
X128795739Y-88257712D02*
X129152882Y-89257712D01*
X129510025Y-88257712D02*
X129152882Y-89257712D01*
X129152882Y-89257712D02*
X129010025Y-89614855D01*
X129010025Y-89614855D02*
X128938596Y-89686284D01*
X128938596Y-89686284D02*
X128795739Y-89757712D01*
X130081453Y-89257712D02*
X130081453Y-87757712D01*
X130224311Y-88686284D02*
X130652882Y-89257712D01*
X130652882Y-88257712D02*
X130081453Y-88829141D01*
X131510025Y-89257712D02*
X131367168Y-89186284D01*
X131367168Y-89186284D02*
X131295739Y-89114855D01*
X131295739Y-89114855D02*
X131224311Y-88971998D01*
X131224311Y-88971998D02*
X131224311Y-88543426D01*
X131224311Y-88543426D02*
X131295739Y-88400569D01*
X131295739Y-88400569D02*
X131367168Y-88329141D01*
X131367168Y-88329141D02*
X131510025Y-88257712D01*
X131510025Y-88257712D02*
X131724311Y-88257712D01*
X131724311Y-88257712D02*
X131867168Y-88329141D01*
X131867168Y-88329141D02*
X131938597Y-88400569D01*
X131938597Y-88400569D02*
X132010025Y-88543426D01*
X132010025Y-88543426D02*
X132010025Y-88971998D01*
X132010025Y-88971998D02*
X131938597Y-89114855D01*
X131938597Y-89114855D02*
X131867168Y-89186284D01*
X131867168Y-89186284D02*
X131724311Y-89257712D01*
X131724311Y-89257712D02*
X131510025Y-89257712D01*
X132652882Y-88257712D02*
X132652882Y-89257712D01*
X132652882Y-88400569D02*
X132724311Y-88329141D01*
X132724311Y-88329141D02*
X132867168Y-88257712D01*
X132867168Y-88257712D02*
X133081454Y-88257712D01*
X133081454Y-88257712D02*
X133224311Y-88329141D01*
X133224311Y-88329141D02*
X133295740Y-88471998D01*
X133295740Y-88471998D02*
X133295740Y-89257712D01*
X135152882Y-89257712D02*
X135152882Y-87757712D01*
X135795740Y-87900569D02*
X135867168Y-87829141D01*
X135867168Y-87829141D02*
X136010026Y-87757712D01*
X136010026Y-87757712D02*
X136367168Y-87757712D01*
X136367168Y-87757712D02*
X136510026Y-87829141D01*
X136510026Y-87829141D02*
X136581454Y-87900569D01*
X136581454Y-87900569D02*
X136652883Y-88043426D01*
X136652883Y-88043426D02*
X136652883Y-88186284D01*
X136652883Y-88186284D02*
X136581454Y-88400569D01*
X136581454Y-88400569D02*
X135724311Y-89257712D01*
X135724311Y-89257712D02*
X136652883Y-89257712D01*
X138152882Y-89114855D02*
X138081454Y-89186284D01*
X138081454Y-89186284D02*
X137867168Y-89257712D01*
X137867168Y-89257712D02*
X137724311Y-89257712D01*
X137724311Y-89257712D02*
X137510025Y-89186284D01*
X137510025Y-89186284D02*
X137367168Y-89043426D01*
X137367168Y-89043426D02*
X137295739Y-88900569D01*
X137295739Y-88900569D02*
X137224311Y-88614855D01*
X137224311Y-88614855D02*
X137224311Y-88400569D01*
X137224311Y-88400569D02*
X137295739Y-88114855D01*
X137295739Y-88114855D02*
X137367168Y-87971998D01*
X137367168Y-87971998D02*
X137510025Y-87829141D01*
X137510025Y-87829141D02*
X137724311Y-87757712D01*
X137724311Y-87757712D02*
X137867168Y-87757712D01*
X137867168Y-87757712D02*
X138081454Y-87829141D01*
X138081454Y-87829141D02*
X138152882Y-87900569D01*
X139938596Y-88471998D02*
X140438596Y-88471998D01*
X140652882Y-89257712D02*
X139938596Y-89257712D01*
X139938596Y-89257712D02*
X139938596Y-87757712D01*
X139938596Y-87757712D02*
X140652882Y-87757712D01*
X141152882Y-89257712D02*
X141938597Y-88257712D01*
X141152882Y-88257712D02*
X141938597Y-89257712D01*
X142510025Y-88257712D02*
X142510025Y-89757712D01*
X142510025Y-88329141D02*
X142652883Y-88257712D01*
X142652883Y-88257712D02*
X142938597Y-88257712D01*
X142938597Y-88257712D02*
X143081454Y-88329141D01*
X143081454Y-88329141D02*
X143152883Y-88400569D01*
X143152883Y-88400569D02*
X143224311Y-88543426D01*
X143224311Y-88543426D02*
X143224311Y-88971998D01*
X143224311Y-88971998D02*
X143152883Y-89114855D01*
X143152883Y-89114855D02*
X143081454Y-89186284D01*
X143081454Y-89186284D02*
X142938597Y-89257712D01*
X142938597Y-89257712D02*
X142652883Y-89257712D01*
X142652883Y-89257712D02*
X142510025Y-89186284D01*
X144510026Y-89257712D02*
X144510026Y-88471998D01*
X144510026Y-88471998D02*
X144438597Y-88329141D01*
X144438597Y-88329141D02*
X144295740Y-88257712D01*
X144295740Y-88257712D02*
X144010026Y-88257712D01*
X144010026Y-88257712D02*
X143867168Y-88329141D01*
X144510026Y-89186284D02*
X144367168Y-89257712D01*
X144367168Y-89257712D02*
X144010026Y-89257712D01*
X144010026Y-89257712D02*
X143867168Y-89186284D01*
X143867168Y-89186284D02*
X143795740Y-89043426D01*
X143795740Y-89043426D02*
X143795740Y-88900569D01*
X143795740Y-88900569D02*
X143867168Y-88757712D01*
X143867168Y-88757712D02*
X144010026Y-88686284D01*
X144010026Y-88686284D02*
X144367168Y-88686284D01*
X144367168Y-88686284D02*
X144510026Y-88614855D01*
X145224311Y-88257712D02*
X145224311Y-89257712D01*
X145224311Y-88400569D02*
X145295740Y-88329141D01*
X145295740Y-88329141D02*
X145438597Y-88257712D01*
X145438597Y-88257712D02*
X145652883Y-88257712D01*
X145652883Y-88257712D02*
X145795740Y-88329141D01*
X145795740Y-88329141D02*
X145867169Y-88471998D01*
X145867169Y-88471998D02*
X145867169Y-89257712D01*
X147224312Y-89257712D02*
X147224312Y-87757712D01*
X147224312Y-89186284D02*
X147081454Y-89257712D01*
X147081454Y-89257712D02*
X146795740Y-89257712D01*
X146795740Y-89257712D02*
X146652883Y-89186284D01*
X146652883Y-89186284D02*
X146581454Y-89114855D01*
X146581454Y-89114855D02*
X146510026Y-88971998D01*
X146510026Y-88971998D02*
X146510026Y-88543426D01*
X146510026Y-88543426D02*
X146581454Y-88400569D01*
X146581454Y-88400569D02*
X146652883Y-88329141D01*
X146652883Y-88329141D02*
X146795740Y-88257712D01*
X146795740Y-88257712D02*
X147081454Y-88257712D01*
X147081454Y-88257712D02*
X147224312Y-88329141D01*
X148510026Y-89186284D02*
X148367169Y-89257712D01*
X148367169Y-89257712D02*
X148081455Y-89257712D01*
X148081455Y-89257712D02*
X147938597Y-89186284D01*
X147938597Y-89186284D02*
X147867169Y-89043426D01*
X147867169Y-89043426D02*
X147867169Y-88471998D01*
X147867169Y-88471998D02*
X147938597Y-88329141D01*
X147938597Y-88329141D02*
X148081455Y-88257712D01*
X148081455Y-88257712D02*
X148367169Y-88257712D01*
X148367169Y-88257712D02*
X148510026Y-88329141D01*
X148510026Y-88329141D02*
X148581455Y-88471998D01*
X148581455Y-88471998D02*
X148581455Y-88614855D01*
X148581455Y-88614855D02*
X147867169Y-88757712D01*
X149224311Y-89257712D02*
X149224311Y-88257712D01*
X149224311Y-88543426D02*
X149295740Y-88400569D01*
X149295740Y-88400569D02*
X149367169Y-88329141D01*
X149367169Y-88329141D02*
X149510026Y-88257712D01*
X149510026Y-88257712D02*
X149652883Y-88257712D01*
X127724310Y-90886914D02*
X127938596Y-90958342D01*
X127938596Y-90958342D02*
X128010025Y-91029771D01*
X128010025Y-91029771D02*
X128081453Y-91172628D01*
X128081453Y-91172628D02*
X128081453Y-91386914D01*
X128081453Y-91386914D02*
X128010025Y-91529771D01*
X128010025Y-91529771D02*
X127938596Y-91601200D01*
X127938596Y-91601200D02*
X127795739Y-91672628D01*
X127795739Y-91672628D02*
X127224310Y-91672628D01*
X127224310Y-91672628D02*
X127224310Y-90172628D01*
X127224310Y-90172628D02*
X127724310Y-90172628D01*
X127724310Y-90172628D02*
X127867168Y-90244057D01*
X127867168Y-90244057D02*
X127938596Y-90315485D01*
X127938596Y-90315485D02*
X128010025Y-90458342D01*
X128010025Y-90458342D02*
X128010025Y-90601200D01*
X128010025Y-90601200D02*
X127938596Y-90744057D01*
X127938596Y-90744057D02*
X127867168Y-90815485D01*
X127867168Y-90815485D02*
X127724310Y-90886914D01*
X127724310Y-90886914D02*
X127224310Y-90886914D01*
X128938596Y-91672628D02*
X128795739Y-91601200D01*
X128795739Y-91601200D02*
X128724310Y-91529771D01*
X128724310Y-91529771D02*
X128652882Y-91386914D01*
X128652882Y-91386914D02*
X128652882Y-90958342D01*
X128652882Y-90958342D02*
X128724310Y-90815485D01*
X128724310Y-90815485D02*
X128795739Y-90744057D01*
X128795739Y-90744057D02*
X128938596Y-90672628D01*
X128938596Y-90672628D02*
X129152882Y-90672628D01*
X129152882Y-90672628D02*
X129295739Y-90744057D01*
X129295739Y-90744057D02*
X129367168Y-90815485D01*
X129367168Y-90815485D02*
X129438596Y-90958342D01*
X129438596Y-90958342D02*
X129438596Y-91386914D01*
X129438596Y-91386914D02*
X129367168Y-91529771D01*
X129367168Y-91529771D02*
X129295739Y-91601200D01*
X129295739Y-91601200D02*
X129152882Y-91672628D01*
X129152882Y-91672628D02*
X128938596Y-91672628D01*
X130724311Y-91672628D02*
X130724311Y-90886914D01*
X130724311Y-90886914D02*
X130652882Y-90744057D01*
X130652882Y-90744057D02*
X130510025Y-90672628D01*
X130510025Y-90672628D02*
X130224311Y-90672628D01*
X130224311Y-90672628D02*
X130081453Y-90744057D01*
X130724311Y-91601200D02*
X130581453Y-91672628D01*
X130581453Y-91672628D02*
X130224311Y-91672628D01*
X130224311Y-91672628D02*
X130081453Y-91601200D01*
X130081453Y-91601200D02*
X130010025Y-91458342D01*
X130010025Y-91458342D02*
X130010025Y-91315485D01*
X130010025Y-91315485D02*
X130081453Y-91172628D01*
X130081453Y-91172628D02*
X130224311Y-91101200D01*
X130224311Y-91101200D02*
X130581453Y-91101200D01*
X130581453Y-91101200D02*
X130724311Y-91029771D01*
X131438596Y-91672628D02*
X131438596Y-90672628D01*
X131438596Y-90958342D02*
X131510025Y-90815485D01*
X131510025Y-90815485D02*
X131581454Y-90744057D01*
X131581454Y-90744057D02*
X131724311Y-90672628D01*
X131724311Y-90672628D02*
X131867168Y-90672628D01*
X133010025Y-91672628D02*
X133010025Y-90172628D01*
X133010025Y-91601200D02*
X132867167Y-91672628D01*
X132867167Y-91672628D02*
X132581453Y-91672628D01*
X132581453Y-91672628D02*
X132438596Y-91601200D01*
X132438596Y-91601200D02*
X132367167Y-91529771D01*
X132367167Y-91529771D02*
X132295739Y-91386914D01*
X132295739Y-91386914D02*
X132295739Y-90958342D01*
X132295739Y-90958342D02*
X132367167Y-90815485D01*
X132367167Y-90815485D02*
X132438596Y-90744057D01*
X132438596Y-90744057D02*
X132581453Y-90672628D01*
X132581453Y-90672628D02*
X132867167Y-90672628D01*
X132867167Y-90672628D02*
X133010025Y-90744057D01*
X134724310Y-90672628D02*
X135081453Y-91672628D01*
X135081453Y-91672628D02*
X135438596Y-90672628D01*
X136295739Y-90172628D02*
X136438596Y-90172628D01*
X136438596Y-90172628D02*
X136581453Y-90244057D01*
X136581453Y-90244057D02*
X136652882Y-90315485D01*
X136652882Y-90315485D02*
X136724310Y-90458342D01*
X136724310Y-90458342D02*
X136795739Y-90744057D01*
X136795739Y-90744057D02*
X136795739Y-91101200D01*
X136795739Y-91101200D02*
X136724310Y-91386914D01*
X136724310Y-91386914D02*
X136652882Y-91529771D01*
X136652882Y-91529771D02*
X136581453Y-91601200D01*
X136581453Y-91601200D02*
X136438596Y-91672628D01*
X136438596Y-91672628D02*
X136295739Y-91672628D01*
X136295739Y-91672628D02*
X136152882Y-91601200D01*
X136152882Y-91601200D02*
X136081453Y-91529771D01*
X136081453Y-91529771D02*
X136010024Y-91386914D01*
X136010024Y-91386914D02*
X135938596Y-91101200D01*
X135938596Y-91101200D02*
X135938596Y-90744057D01*
X135938596Y-90744057D02*
X136010024Y-90458342D01*
X136010024Y-90458342D02*
X136081453Y-90315485D01*
X136081453Y-90315485D02*
X136152882Y-90244057D01*
X136152882Y-90244057D02*
X136295739Y-90172628D01*
X137438595Y-91529771D02*
X137510024Y-91601200D01*
X137510024Y-91601200D02*
X137438595Y-91672628D01*
X137438595Y-91672628D02*
X137367167Y-91601200D01*
X137367167Y-91601200D02*
X137438595Y-91529771D01*
X137438595Y-91529771D02*
X137438595Y-91672628D01*
X138938596Y-91672628D02*
X138081453Y-91672628D01*
X138510024Y-91672628D02*
X138510024Y-90172628D01*
X138510024Y-90172628D02*
X138367167Y-90386914D01*
X138367167Y-90386914D02*
X138224310Y-90529771D01*
X138224310Y-90529771D02*
X138081453Y-90601200D01*
D11*
X143300771Y-83351019D02*
X143872199Y-83351019D01*
X143586485Y-84351019D02*
X143586485Y-83351019D01*
X144205533Y-84351019D02*
X144205533Y-83351019D01*
X144205533Y-83351019D02*
X144586485Y-83351019D01*
X144586485Y-83351019D02*
X144681723Y-83398638D01*
X144681723Y-83398638D02*
X144729342Y-83446257D01*
X144729342Y-83446257D02*
X144776961Y-83541495D01*
X144776961Y-83541495D02*
X144776961Y-83684352D01*
X144776961Y-83684352D02*
X144729342Y-83779590D01*
X144729342Y-83779590D02*
X144681723Y-83827209D01*
X144681723Y-83827209D02*
X144586485Y-83874828D01*
X144586485Y-83874828D02*
X144205533Y-83874828D01*
X144967438Y-84446257D02*
X145729342Y-84446257D01*
X145919819Y-84303400D02*
X146062676Y-84351019D01*
X146062676Y-84351019D02*
X146300771Y-84351019D01*
X146300771Y-84351019D02*
X146396009Y-84303400D01*
X146396009Y-84303400D02*
X146443628Y-84255780D01*
X146443628Y-84255780D02*
X146491247Y-84160542D01*
X146491247Y-84160542D02*
X146491247Y-84065304D01*
X146491247Y-84065304D02*
X146443628Y-83970066D01*
X146443628Y-83970066D02*
X146396009Y-83922447D01*
X146396009Y-83922447D02*
X146300771Y-83874828D01*
X146300771Y-83874828D02*
X146110295Y-83827209D01*
X146110295Y-83827209D02*
X146015057Y-83779590D01*
X146015057Y-83779590D02*
X145967438Y-83731971D01*
X145967438Y-83731971D02*
X145919819Y-83636733D01*
X145919819Y-83636733D02*
X145919819Y-83541495D01*
X145919819Y-83541495D02*
X145967438Y-83446257D01*
X145967438Y-83446257D02*
X146015057Y-83398638D01*
X146015057Y-83398638D02*
X146110295Y-83351019D01*
X146110295Y-83351019D02*
X146348390Y-83351019D01*
X146348390Y-83351019D02*
X146491247Y-83398638D01*
X146919819Y-84351019D02*
X146919819Y-83351019D01*
X146919819Y-83351019D02*
X147157914Y-83351019D01*
X147157914Y-83351019D02*
X147300771Y-83398638D01*
X147300771Y-83398638D02*
X147396009Y-83493876D01*
X147396009Y-83493876D02*
X147443628Y-83589114D01*
X147443628Y-83589114D02*
X147491247Y-83779590D01*
X147491247Y-83779590D02*
X147491247Y-83922447D01*
X147491247Y-83922447D02*
X147443628Y-84112923D01*
X147443628Y-84112923D02*
X147396009Y-84208161D01*
X147396009Y-84208161D02*
X147300771Y-84303400D01*
X147300771Y-84303400D02*
X147157914Y-84351019D01*
X147157914Y-84351019D02*
X146919819Y-84351019D01*
X147872200Y-84065304D02*
X148348390Y-84065304D01*
X147776962Y-84351019D02*
X148110295Y-83351019D01*
X148110295Y-83351019D02*
X148443628Y-84351019D01*
X156737609Y-122460657D02*
X156785228Y-122413038D01*
X156785228Y-122413038D02*
X156880466Y-122365419D01*
X156880466Y-122365419D02*
X157118561Y-122365419D01*
X157118561Y-122365419D02*
X157213799Y-122413038D01*
X157213799Y-122413038D02*
X157261418Y-122460657D01*
X157261418Y-122460657D02*
X157309037Y-122555895D01*
X157309037Y-122555895D02*
X157309037Y-122651133D01*
X157309037Y-122651133D02*
X157261418Y-122793990D01*
X157261418Y-122793990D02*
X156689990Y-123365419D01*
X156689990Y-123365419D02*
X157309037Y-123365419D01*
X157642371Y-122365419D02*
X158261418Y-122365419D01*
X158261418Y-122365419D02*
X157928085Y-122746371D01*
X157928085Y-122746371D02*
X158070942Y-122746371D01*
X158070942Y-122746371D02*
X158166180Y-122793990D01*
X158166180Y-122793990D02*
X158213799Y-122841609D01*
X158213799Y-122841609D02*
X158261418Y-122936847D01*
X158261418Y-122936847D02*
X158261418Y-123174942D01*
X158261418Y-123174942D02*
X158213799Y-123270180D01*
X158213799Y-123270180D02*
X158166180Y-123317800D01*
X158166180Y-123317800D02*
X158070942Y-123365419D01*
X158070942Y-123365419D02*
X157785228Y-123365419D01*
X157785228Y-123365419D02*
X157689990Y-123317800D01*
X157689990Y-123317800D02*
X157642371Y-123270180D01*
X158880466Y-122365419D02*
X158975704Y-122365419D01*
X158975704Y-122365419D02*
X159070942Y-122413038D01*
X159070942Y-122413038D02*
X159118561Y-122460657D01*
X159118561Y-122460657D02*
X159166180Y-122555895D01*
X159166180Y-122555895D02*
X159213799Y-122746371D01*
X159213799Y-122746371D02*
X159213799Y-122984466D01*
X159213799Y-122984466D02*
X159166180Y-123174942D01*
X159166180Y-123174942D02*
X159118561Y-123270180D01*
X159118561Y-123270180D02*
X159070942Y-123317800D01*
X159070942Y-123317800D02*
X158975704Y-123365419D01*
X158975704Y-123365419D02*
X158880466Y-123365419D01*
X158880466Y-123365419D02*
X158785228Y-123317800D01*
X158785228Y-123317800D02*
X158737609Y-123270180D01*
X158737609Y-123270180D02*
X158689990Y-123174942D01*
X158689990Y-123174942D02*
X158642371Y-122984466D01*
X158642371Y-122984466D02*
X158642371Y-122746371D01*
X158642371Y-122746371D02*
X158689990Y-122555895D01*
X158689990Y-122555895D02*
X158737609Y-122460657D01*
X158737609Y-122460657D02*
X158785228Y-122413038D01*
X158785228Y-122413038D02*
X158880466Y-122365419D01*
X160166180Y-123365419D02*
X159594752Y-123365419D01*
X159880466Y-123365419D02*
X159880466Y-122365419D01*
X159880466Y-122365419D02*
X159785228Y-122508276D01*
X159785228Y-122508276D02*
X159689990Y-122603514D01*
X159689990Y-122603514D02*
X159594752Y-122651133D01*
X160499514Y-122365419D02*
X161166180Y-122365419D01*
X161166180Y-122365419D02*
X160737609Y-123365419D01*
X161309038Y-123460657D02*
X162070942Y-123460657D01*
X162832847Y-122413038D02*
X162737609Y-122365419D01*
X162737609Y-122365419D02*
X162594752Y-122365419D01*
X162594752Y-122365419D02*
X162451895Y-122413038D01*
X162451895Y-122413038D02*
X162356657Y-122508276D01*
X162356657Y-122508276D02*
X162309038Y-122603514D01*
X162309038Y-122603514D02*
X162261419Y-122793990D01*
X162261419Y-122793990D02*
X162261419Y-122936847D01*
X162261419Y-122936847D02*
X162309038Y-123127323D01*
X162309038Y-123127323D02*
X162356657Y-123222561D01*
X162356657Y-123222561D02*
X162451895Y-123317800D01*
X162451895Y-123317800D02*
X162594752Y-123365419D01*
X162594752Y-123365419D02*
X162689990Y-123365419D01*
X162689990Y-123365419D02*
X162832847Y-123317800D01*
X162832847Y-123317800D02*
X162880466Y-123270180D01*
X162880466Y-123270180D02*
X162880466Y-122936847D01*
X162880466Y-122936847D02*
X162689990Y-122936847D01*
X163309038Y-123365419D02*
X163309038Y-122365419D01*
X163309038Y-122365419D02*
X163689990Y-122365419D01*
X163689990Y-122365419D02*
X163785228Y-122413038D01*
X163785228Y-122413038D02*
X163832847Y-122460657D01*
X163832847Y-122460657D02*
X163880466Y-122555895D01*
X163880466Y-122555895D02*
X163880466Y-122698752D01*
X163880466Y-122698752D02*
X163832847Y-122793990D01*
X163832847Y-122793990D02*
X163785228Y-122841609D01*
X163785228Y-122841609D02*
X163689990Y-122889228D01*
X163689990Y-122889228D02*
X163309038Y-122889228D01*
X164261419Y-123079704D02*
X164737609Y-123079704D01*
X164166181Y-123365419D02*
X164499514Y-122365419D01*
X164499514Y-122365419D02*
X164832847Y-123365419D01*
X165689990Y-123365419D02*
X165118562Y-123365419D01*
X165404276Y-123365419D02*
X165404276Y-122365419D01*
X165404276Y-122365419D02*
X165309038Y-122508276D01*
X165309038Y-122508276D02*
X165213800Y-122603514D01*
X165213800Y-122603514D02*
X165118562Y-122651133D01*
X147585133Y-98524219D02*
X147251800Y-98048028D01*
X147013705Y-98524219D02*
X147013705Y-97524219D01*
X147013705Y-97524219D02*
X147394657Y-97524219D01*
X147394657Y-97524219D02*
X147489895Y-97571838D01*
X147489895Y-97571838D02*
X147537514Y-97619457D01*
X147537514Y-97619457D02*
X147585133Y-97714695D01*
X147585133Y-97714695D02*
X147585133Y-97857552D01*
X147585133Y-97857552D02*
X147537514Y-97952790D01*
X147537514Y-97952790D02*
X147489895Y-98000409D01*
X147489895Y-98000409D02*
X147394657Y-98048028D01*
X147394657Y-98048028D02*
X147013705Y-98048028D01*
X147966086Y-97619457D02*
X148013705Y-97571838D01*
X148013705Y-97571838D02*
X148108943Y-97524219D01*
X148108943Y-97524219D02*
X148347038Y-97524219D01*
X148347038Y-97524219D02*
X148442276Y-97571838D01*
X148442276Y-97571838D02*
X148489895Y-97619457D01*
X148489895Y-97619457D02*
X148537514Y-97714695D01*
X148537514Y-97714695D02*
X148537514Y-97809933D01*
X148537514Y-97809933D02*
X148489895Y-97952790D01*
X148489895Y-97952790D02*
X147918467Y-98524219D01*
X147918467Y-98524219D02*
X148537514Y-98524219D01*
X155890933Y-110976580D02*
X155843314Y-111024200D01*
X155843314Y-111024200D02*
X155700457Y-111071819D01*
X155700457Y-111071819D02*
X155605219Y-111071819D01*
X155605219Y-111071819D02*
X155462362Y-111024200D01*
X155462362Y-111024200D02*
X155367124Y-110928961D01*
X155367124Y-110928961D02*
X155319505Y-110833723D01*
X155319505Y-110833723D02*
X155271886Y-110643247D01*
X155271886Y-110643247D02*
X155271886Y-110500390D01*
X155271886Y-110500390D02*
X155319505Y-110309914D01*
X155319505Y-110309914D02*
X155367124Y-110214676D01*
X155367124Y-110214676D02*
X155462362Y-110119438D01*
X155462362Y-110119438D02*
X155605219Y-110071819D01*
X155605219Y-110071819D02*
X155700457Y-110071819D01*
X155700457Y-110071819D02*
X155843314Y-110119438D01*
X155843314Y-110119438D02*
X155890933Y-110167057D01*
X156843314Y-111071819D02*
X156271886Y-111071819D01*
X156557600Y-111071819D02*
X156557600Y-110071819D01*
X156557600Y-110071819D02*
X156462362Y-110214676D01*
X156462362Y-110214676D02*
X156367124Y-110309914D01*
X156367124Y-110309914D02*
X156271886Y-110357533D01*
X125887266Y-108171419D02*
X125887266Y-108885704D01*
X125887266Y-108885704D02*
X125839647Y-109028561D01*
X125839647Y-109028561D02*
X125744409Y-109123800D01*
X125744409Y-109123800D02*
X125601552Y-109171419D01*
X125601552Y-109171419D02*
X125506314Y-109171419D01*
X126363457Y-109171419D02*
X126363457Y-108171419D01*
X126363457Y-108171419D02*
X126744409Y-108171419D01*
X126744409Y-108171419D02*
X126839647Y-108219038D01*
X126839647Y-108219038D02*
X126887266Y-108266657D01*
X126887266Y-108266657D02*
X126934885Y-108361895D01*
X126934885Y-108361895D02*
X126934885Y-108504752D01*
X126934885Y-108504752D02*
X126887266Y-108599990D01*
X126887266Y-108599990D02*
X126839647Y-108647609D01*
X126839647Y-108647609D02*
X126744409Y-108695228D01*
X126744409Y-108695228D02*
X126363457Y-108695228D01*
X127792028Y-108171419D02*
X127601552Y-108171419D01*
X127601552Y-108171419D02*
X127506314Y-108219038D01*
X127506314Y-108219038D02*
X127458695Y-108266657D01*
X127458695Y-108266657D02*
X127363457Y-108409514D01*
X127363457Y-108409514D02*
X127315838Y-108599990D01*
X127315838Y-108599990D02*
X127315838Y-108980942D01*
X127315838Y-108980942D02*
X127363457Y-109076180D01*
X127363457Y-109076180D02*
X127411076Y-109123800D01*
X127411076Y-109123800D02*
X127506314Y-109171419D01*
X127506314Y-109171419D02*
X127696790Y-109171419D01*
X127696790Y-109171419D02*
X127792028Y-109123800D01*
X127792028Y-109123800D02*
X127839647Y-109076180D01*
X127839647Y-109076180D02*
X127887266Y-108980942D01*
X127887266Y-108980942D02*
X127887266Y-108742847D01*
X127887266Y-108742847D02*
X127839647Y-108647609D01*
X127839647Y-108647609D02*
X127792028Y-108599990D01*
X127792028Y-108599990D02*
X127696790Y-108552371D01*
X127696790Y-108552371D02*
X127506314Y-108552371D01*
X127506314Y-108552371D02*
X127411076Y-108599990D01*
X127411076Y-108599990D02*
X127363457Y-108647609D01*
X127363457Y-108647609D02*
X127315838Y-108742847D01*
X129895695Y-112627219D02*
X129895695Y-113436742D01*
X129895695Y-113436742D02*
X129943314Y-113531980D01*
X129943314Y-113531980D02*
X129990933Y-113579600D01*
X129990933Y-113579600D02*
X130086171Y-113627219D01*
X130086171Y-113627219D02*
X130276647Y-113627219D01*
X130276647Y-113627219D02*
X130371885Y-113579600D01*
X130371885Y-113579600D02*
X130419504Y-113531980D01*
X130419504Y-113531980D02*
X130467123Y-113436742D01*
X130467123Y-113436742D02*
X130467123Y-112627219D01*
X130895695Y-112722457D02*
X130943314Y-112674838D01*
X130943314Y-112674838D02*
X131038552Y-112627219D01*
X131038552Y-112627219D02*
X131276647Y-112627219D01*
X131276647Y-112627219D02*
X131371885Y-112674838D01*
X131371885Y-112674838D02*
X131419504Y-112722457D01*
X131419504Y-112722457D02*
X131467123Y-112817695D01*
X131467123Y-112817695D02*
X131467123Y-112912933D01*
X131467123Y-112912933D02*
X131419504Y-113055790D01*
X131419504Y-113055790D02*
X130848076Y-113627219D01*
X130848076Y-113627219D02*
X131467123Y-113627219D01*
X124610833Y-102359619D02*
X124277500Y-101883428D01*
X124039405Y-102359619D02*
X124039405Y-101359619D01*
X124039405Y-101359619D02*
X124420357Y-101359619D01*
X124420357Y-101359619D02*
X124515595Y-101407238D01*
X124515595Y-101407238D02*
X124563214Y-101454857D01*
X124563214Y-101454857D02*
X124610833Y-101550095D01*
X124610833Y-101550095D02*
X124610833Y-101692952D01*
X124610833Y-101692952D02*
X124563214Y-101788190D01*
X124563214Y-101788190D02*
X124515595Y-101835809D01*
X124515595Y-101835809D02*
X124420357Y-101883428D01*
X124420357Y-101883428D02*
X124039405Y-101883428D01*
X125467976Y-101359619D02*
X125277500Y-101359619D01*
X125277500Y-101359619D02*
X125182262Y-101407238D01*
X125182262Y-101407238D02*
X125134643Y-101454857D01*
X125134643Y-101454857D02*
X125039405Y-101597714D01*
X125039405Y-101597714D02*
X124991786Y-101788190D01*
X124991786Y-101788190D02*
X124991786Y-102169142D01*
X124991786Y-102169142D02*
X125039405Y-102264380D01*
X125039405Y-102264380D02*
X125087024Y-102312000D01*
X125087024Y-102312000D02*
X125182262Y-102359619D01*
X125182262Y-102359619D02*
X125372738Y-102359619D01*
X125372738Y-102359619D02*
X125467976Y-102312000D01*
X125467976Y-102312000D02*
X125515595Y-102264380D01*
X125515595Y-102264380D02*
X125563214Y-102169142D01*
X125563214Y-102169142D02*
X125563214Y-101931047D01*
X125563214Y-101931047D02*
X125515595Y-101835809D01*
X125515595Y-101835809D02*
X125467976Y-101788190D01*
X125467976Y-101788190D02*
X125372738Y-101740571D01*
X125372738Y-101740571D02*
X125182262Y-101740571D01*
X125182262Y-101740571D02*
X125087024Y-101788190D01*
X125087024Y-101788190D02*
X125039405Y-101835809D01*
X125039405Y-101835809D02*
X124991786Y-101931047D01*
X146969266Y-108131019D02*
X146969266Y-108845304D01*
X146969266Y-108845304D02*
X146921647Y-108988161D01*
X146921647Y-108988161D02*
X146826409Y-109083400D01*
X146826409Y-109083400D02*
X146683552Y-109131019D01*
X146683552Y-109131019D02*
X146588314Y-109131019D01*
X147445457Y-109131019D02*
X147445457Y-108131019D01*
X147445457Y-108131019D02*
X147826409Y-108131019D01*
X147826409Y-108131019D02*
X147921647Y-108178638D01*
X147921647Y-108178638D02*
X147969266Y-108226257D01*
X147969266Y-108226257D02*
X148016885Y-108321495D01*
X148016885Y-108321495D02*
X148016885Y-108464352D01*
X148016885Y-108464352D02*
X147969266Y-108559590D01*
X147969266Y-108559590D02*
X147921647Y-108607209D01*
X147921647Y-108607209D02*
X147826409Y-108654828D01*
X147826409Y-108654828D02*
X147445457Y-108654828D01*
X148969266Y-109131019D02*
X148397838Y-109131019D01*
X148683552Y-109131019D02*
X148683552Y-108131019D01*
X148683552Y-108131019D02*
X148588314Y-108273876D01*
X148588314Y-108273876D02*
X148493076Y-108369114D01*
X148493076Y-108369114D02*
X148397838Y-108416733D01*
X116753666Y-96435419D02*
X116753666Y-97149704D01*
X116753666Y-97149704D02*
X116706047Y-97292561D01*
X116706047Y-97292561D02*
X116610809Y-97387800D01*
X116610809Y-97387800D02*
X116467952Y-97435419D01*
X116467952Y-97435419D02*
X116372714Y-97435419D01*
X117229857Y-97435419D02*
X117229857Y-96435419D01*
X117229857Y-96435419D02*
X117610809Y-96435419D01*
X117610809Y-96435419D02*
X117706047Y-96483038D01*
X117706047Y-96483038D02*
X117753666Y-96530657D01*
X117753666Y-96530657D02*
X117801285Y-96625895D01*
X117801285Y-96625895D02*
X117801285Y-96768752D01*
X117801285Y-96768752D02*
X117753666Y-96863990D01*
X117753666Y-96863990D02*
X117706047Y-96911609D01*
X117706047Y-96911609D02*
X117610809Y-96959228D01*
X117610809Y-96959228D02*
X117229857Y-96959228D01*
X118134619Y-96435419D02*
X118801285Y-96435419D01*
X118801285Y-96435419D02*
X118372714Y-97435419D01*
X141260533Y-98575019D02*
X140927200Y-98098828D01*
X140689105Y-98575019D02*
X140689105Y-97575019D01*
X140689105Y-97575019D02*
X141070057Y-97575019D01*
X141070057Y-97575019D02*
X141165295Y-97622638D01*
X141165295Y-97622638D02*
X141212914Y-97670257D01*
X141212914Y-97670257D02*
X141260533Y-97765495D01*
X141260533Y-97765495D02*
X141260533Y-97908352D01*
X141260533Y-97908352D02*
X141212914Y-98003590D01*
X141212914Y-98003590D02*
X141165295Y-98051209D01*
X141165295Y-98051209D02*
X141070057Y-98098828D01*
X141070057Y-98098828D02*
X140689105Y-98098828D01*
X142117676Y-97908352D02*
X142117676Y-98575019D01*
X141879581Y-97527400D02*
X141641486Y-98241685D01*
X141641486Y-98241685D02*
X142260533Y-98241685D01*
X122509162Y-73932619D02*
X122509162Y-72932619D01*
X122937733Y-73027857D02*
X122985352Y-72980238D01*
X122985352Y-72980238D02*
X123080590Y-72932619D01*
X123080590Y-72932619D02*
X123318685Y-72932619D01*
X123318685Y-72932619D02*
X123413923Y-72980238D01*
X123413923Y-72980238D02*
X123461542Y-73027857D01*
X123461542Y-73027857D02*
X123509161Y-73123095D01*
X123509161Y-73123095D02*
X123509161Y-73218333D01*
X123509161Y-73218333D02*
X123461542Y-73361190D01*
X123461542Y-73361190D02*
X122890114Y-73932619D01*
X122890114Y-73932619D02*
X123509161Y-73932619D01*
X124509161Y-73837380D02*
X124461542Y-73885000D01*
X124461542Y-73885000D02*
X124318685Y-73932619D01*
X124318685Y-73932619D02*
X124223447Y-73932619D01*
X124223447Y-73932619D02*
X124080590Y-73885000D01*
X124080590Y-73885000D02*
X123985352Y-73789761D01*
X123985352Y-73789761D02*
X123937733Y-73694523D01*
X123937733Y-73694523D02*
X123890114Y-73504047D01*
X123890114Y-73504047D02*
X123890114Y-73361190D01*
X123890114Y-73361190D02*
X123937733Y-73170714D01*
X123937733Y-73170714D02*
X123985352Y-73075476D01*
X123985352Y-73075476D02*
X124080590Y-72980238D01*
X124080590Y-72980238D02*
X124223447Y-72932619D01*
X124223447Y-72932619D02*
X124318685Y-72932619D01*
X124318685Y-72932619D02*
X124461542Y-72980238D01*
X124461542Y-72980238D02*
X124509161Y-73027857D01*
X124699638Y-74027857D02*
X125461542Y-74027857D01*
X125699638Y-73932619D02*
X125699638Y-72932619D01*
X126175828Y-73932619D02*
X126175828Y-72932619D01*
X126175828Y-72932619D02*
X126747256Y-73932619D01*
X126747256Y-73932619D02*
X126747256Y-72932619D01*
X127747256Y-73932619D02*
X127175828Y-73932619D01*
X127461542Y-73932619D02*
X127461542Y-72932619D01*
X127461542Y-72932619D02*
X127366304Y-73075476D01*
X127366304Y-73075476D02*
X127271066Y-73170714D01*
X127271066Y-73170714D02*
X127175828Y-73218333D01*
X169354819Y-99339304D02*
X170164342Y-99339304D01*
X170164342Y-99339304D02*
X170259580Y-99291685D01*
X170259580Y-99291685D02*
X170307200Y-99244066D01*
X170307200Y-99244066D02*
X170354819Y-99148828D01*
X170354819Y-99148828D02*
X170354819Y-98958352D01*
X170354819Y-98958352D02*
X170307200Y-98863114D01*
X170307200Y-98863114D02*
X170259580Y-98815495D01*
X170259580Y-98815495D02*
X170164342Y-98767876D01*
X170164342Y-98767876D02*
X169354819Y-98767876D01*
X170354819Y-97767876D02*
X170354819Y-98339304D01*
X170354819Y-98053590D02*
X169354819Y-98053590D01*
X169354819Y-98053590D02*
X169497676Y-98148828D01*
X169497676Y-98148828D02*
X169592914Y-98244066D01*
X169592914Y-98244066D02*
X169640533Y-98339304D01*
X108692323Y-124552904D02*
X109168513Y-124552904D01*
X108597085Y-124838619D02*
X108930418Y-123838619D01*
X108930418Y-123838619D02*
X109263751Y-124838619D01*
X109597085Y-124171952D02*
X109597085Y-124838619D01*
X109597085Y-124267190D02*
X109644704Y-124219571D01*
X109644704Y-124219571D02*
X109739942Y-124171952D01*
X109739942Y-124171952D02*
X109882799Y-124171952D01*
X109882799Y-124171952D02*
X109978037Y-124219571D01*
X109978037Y-124219571D02*
X110025656Y-124314809D01*
X110025656Y-124314809D02*
X110025656Y-124838619D01*
X110930418Y-124838619D02*
X110930418Y-124314809D01*
X110930418Y-124314809D02*
X110882799Y-124219571D01*
X110882799Y-124219571D02*
X110787561Y-124171952D01*
X110787561Y-124171952D02*
X110597085Y-124171952D01*
X110597085Y-124171952D02*
X110501847Y-124219571D01*
X110930418Y-124791000D02*
X110835180Y-124838619D01*
X110835180Y-124838619D02*
X110597085Y-124838619D01*
X110597085Y-124838619D02*
X110501847Y-124791000D01*
X110501847Y-124791000D02*
X110454228Y-124695761D01*
X110454228Y-124695761D02*
X110454228Y-124600523D01*
X110454228Y-124600523D02*
X110501847Y-124505285D01*
X110501847Y-124505285D02*
X110597085Y-124457666D01*
X110597085Y-124457666D02*
X110835180Y-124457666D01*
X110835180Y-124457666D02*
X110930418Y-124410047D01*
X111549466Y-124838619D02*
X111454228Y-124791000D01*
X111454228Y-124791000D02*
X111406609Y-124695761D01*
X111406609Y-124695761D02*
X111406609Y-123838619D01*
X112073276Y-124838619D02*
X111978038Y-124791000D01*
X111978038Y-124791000D02*
X111930419Y-124743380D01*
X111930419Y-124743380D02*
X111882800Y-124648142D01*
X111882800Y-124648142D02*
X111882800Y-124362428D01*
X111882800Y-124362428D02*
X111930419Y-124267190D01*
X111930419Y-124267190D02*
X111978038Y-124219571D01*
X111978038Y-124219571D02*
X112073276Y-124171952D01*
X112073276Y-124171952D02*
X112216133Y-124171952D01*
X112216133Y-124171952D02*
X112311371Y-124219571D01*
X112311371Y-124219571D02*
X112358990Y-124267190D01*
X112358990Y-124267190D02*
X112406609Y-124362428D01*
X112406609Y-124362428D02*
X112406609Y-124648142D01*
X112406609Y-124648142D02*
X112358990Y-124743380D01*
X112358990Y-124743380D02*
X112311371Y-124791000D01*
X112311371Y-124791000D02*
X112216133Y-124838619D01*
X112216133Y-124838619D02*
X112073276Y-124838619D01*
X113263752Y-124171952D02*
X113263752Y-124981476D01*
X113263752Y-124981476D02*
X113216133Y-125076714D01*
X113216133Y-125076714D02*
X113168514Y-125124333D01*
X113168514Y-125124333D02*
X113073276Y-125171952D01*
X113073276Y-125171952D02*
X112930419Y-125171952D01*
X112930419Y-125171952D02*
X112835181Y-125124333D01*
X113263752Y-124791000D02*
X113168514Y-124838619D01*
X113168514Y-124838619D02*
X112978038Y-124838619D01*
X112978038Y-124838619D02*
X112882800Y-124791000D01*
X112882800Y-124791000D02*
X112835181Y-124743380D01*
X112835181Y-124743380D02*
X112787562Y-124648142D01*
X112787562Y-124648142D02*
X112787562Y-124362428D01*
X112787562Y-124362428D02*
X112835181Y-124267190D01*
X112835181Y-124267190D02*
X112882800Y-124219571D01*
X112882800Y-124219571D02*
X112978038Y-124171952D01*
X112978038Y-124171952D02*
X113168514Y-124171952D01*
X113168514Y-124171952D02*
X113263752Y-124219571D01*
X113501848Y-124933857D02*
X114263752Y-124933857D01*
X115073276Y-124743380D02*
X115025657Y-124791000D01*
X115025657Y-124791000D02*
X114882800Y-124838619D01*
X114882800Y-124838619D02*
X114787562Y-124838619D01*
X114787562Y-124838619D02*
X114644705Y-124791000D01*
X114644705Y-124791000D02*
X114549467Y-124695761D01*
X114549467Y-124695761D02*
X114501848Y-124600523D01*
X114501848Y-124600523D02*
X114454229Y-124410047D01*
X114454229Y-124410047D02*
X114454229Y-124267190D01*
X114454229Y-124267190D02*
X114501848Y-124076714D01*
X114501848Y-124076714D02*
X114549467Y-123981476D01*
X114549467Y-123981476D02*
X114644705Y-123886238D01*
X114644705Y-123886238D02*
X114787562Y-123838619D01*
X114787562Y-123838619D02*
X114882800Y-123838619D01*
X114882800Y-123838619D02*
X115025657Y-123886238D01*
X115025657Y-123886238D02*
X115073276Y-123933857D01*
X115644705Y-124838619D02*
X115549467Y-124791000D01*
X115549467Y-124791000D02*
X115501848Y-124743380D01*
X115501848Y-124743380D02*
X115454229Y-124648142D01*
X115454229Y-124648142D02*
X115454229Y-124362428D01*
X115454229Y-124362428D02*
X115501848Y-124267190D01*
X115501848Y-124267190D02*
X115549467Y-124219571D01*
X115549467Y-124219571D02*
X115644705Y-124171952D01*
X115644705Y-124171952D02*
X115787562Y-124171952D01*
X115787562Y-124171952D02*
X115882800Y-124219571D01*
X115882800Y-124219571D02*
X115930419Y-124267190D01*
X115930419Y-124267190D02*
X115978038Y-124362428D01*
X115978038Y-124362428D02*
X115978038Y-124648142D01*
X115978038Y-124648142D02*
X115930419Y-124743380D01*
X115930419Y-124743380D02*
X115882800Y-124791000D01*
X115882800Y-124791000D02*
X115787562Y-124838619D01*
X115787562Y-124838619D02*
X115644705Y-124838619D01*
X116406610Y-124838619D02*
X116406610Y-124171952D01*
X116406610Y-124267190D02*
X116454229Y-124219571D01*
X116454229Y-124219571D02*
X116549467Y-124171952D01*
X116549467Y-124171952D02*
X116692324Y-124171952D01*
X116692324Y-124171952D02*
X116787562Y-124219571D01*
X116787562Y-124219571D02*
X116835181Y-124314809D01*
X116835181Y-124314809D02*
X116835181Y-124838619D01*
X116835181Y-124314809D02*
X116882800Y-124219571D01*
X116882800Y-124219571D02*
X116978038Y-124171952D01*
X116978038Y-124171952D02*
X117120895Y-124171952D01*
X117120895Y-124171952D02*
X117216134Y-124219571D01*
X117216134Y-124219571D02*
X117263753Y-124314809D01*
X117263753Y-124314809D02*
X117263753Y-124838619D01*
X117739943Y-124171952D02*
X117739943Y-125171952D01*
X117739943Y-124219571D02*
X117835181Y-124171952D01*
X117835181Y-124171952D02*
X118025657Y-124171952D01*
X118025657Y-124171952D02*
X118120895Y-124219571D01*
X118120895Y-124219571D02*
X118168514Y-124267190D01*
X118168514Y-124267190D02*
X118216133Y-124362428D01*
X118216133Y-124362428D02*
X118216133Y-124648142D01*
X118216133Y-124648142D02*
X118168514Y-124743380D01*
X118168514Y-124743380D02*
X118120895Y-124791000D01*
X118120895Y-124791000D02*
X118025657Y-124838619D01*
X118025657Y-124838619D02*
X117835181Y-124838619D01*
X117835181Y-124838619D02*
X117739943Y-124791000D01*
X118787562Y-124838619D02*
X118692324Y-124791000D01*
X118692324Y-124791000D02*
X118644705Y-124743380D01*
X118644705Y-124743380D02*
X118597086Y-124648142D01*
X118597086Y-124648142D02*
X118597086Y-124362428D01*
X118597086Y-124362428D02*
X118644705Y-124267190D01*
X118644705Y-124267190D02*
X118692324Y-124219571D01*
X118692324Y-124219571D02*
X118787562Y-124171952D01*
X118787562Y-124171952D02*
X118930419Y-124171952D01*
X118930419Y-124171952D02*
X119025657Y-124219571D01*
X119025657Y-124219571D02*
X119073276Y-124267190D01*
X119073276Y-124267190D02*
X119120895Y-124362428D01*
X119120895Y-124362428D02*
X119120895Y-124648142D01*
X119120895Y-124648142D02*
X119073276Y-124743380D01*
X119073276Y-124743380D02*
X119025657Y-124791000D01*
X119025657Y-124791000D02*
X118930419Y-124838619D01*
X118930419Y-124838619D02*
X118787562Y-124838619D01*
X119549467Y-124171952D02*
X119549467Y-124838619D01*
X119549467Y-124267190D02*
X119597086Y-124219571D01*
X119597086Y-124219571D02*
X119692324Y-124171952D01*
X119692324Y-124171952D02*
X119835181Y-124171952D01*
X119835181Y-124171952D02*
X119930419Y-124219571D01*
X119930419Y-124219571D02*
X119978038Y-124314809D01*
X119978038Y-124314809D02*
X119978038Y-124838619D01*
X120835181Y-124791000D02*
X120739943Y-124838619D01*
X120739943Y-124838619D02*
X120549467Y-124838619D01*
X120549467Y-124838619D02*
X120454229Y-124791000D01*
X120454229Y-124791000D02*
X120406610Y-124695761D01*
X120406610Y-124695761D02*
X120406610Y-124314809D01*
X120406610Y-124314809D02*
X120454229Y-124219571D01*
X120454229Y-124219571D02*
X120549467Y-124171952D01*
X120549467Y-124171952D02*
X120739943Y-124171952D01*
X120739943Y-124171952D02*
X120835181Y-124219571D01*
X120835181Y-124219571D02*
X120882800Y-124314809D01*
X120882800Y-124314809D02*
X120882800Y-124410047D01*
X120882800Y-124410047D02*
X120406610Y-124505285D01*
X121311372Y-124171952D02*
X121311372Y-124838619D01*
X121311372Y-124267190D02*
X121358991Y-124219571D01*
X121358991Y-124219571D02*
X121454229Y-124171952D01*
X121454229Y-124171952D02*
X121597086Y-124171952D01*
X121597086Y-124171952D02*
X121692324Y-124219571D01*
X121692324Y-124219571D02*
X121739943Y-124314809D01*
X121739943Y-124314809D02*
X121739943Y-124838619D01*
X122073277Y-124171952D02*
X122454229Y-124171952D01*
X122216134Y-123838619D02*
X122216134Y-124695761D01*
X122216134Y-124695761D02*
X122263753Y-124791000D01*
X122263753Y-124791000D02*
X122358991Y-124838619D01*
X122358991Y-124838619D02*
X122454229Y-124838619D01*
X122549468Y-124933857D02*
X123311372Y-124933857D01*
X124073277Y-124838619D02*
X123501849Y-124838619D01*
X123787563Y-124838619D02*
X123787563Y-123838619D01*
X123787563Y-123838619D02*
X123692325Y-123981476D01*
X123692325Y-123981476D02*
X123597087Y-124076714D01*
X123597087Y-124076714D02*
X123501849Y-124124333D01*
X119327633Y-102385019D02*
X118994300Y-101908828D01*
X118756205Y-102385019D02*
X118756205Y-101385019D01*
X118756205Y-101385019D02*
X119137157Y-101385019D01*
X119137157Y-101385019D02*
X119232395Y-101432638D01*
X119232395Y-101432638D02*
X119280014Y-101480257D01*
X119280014Y-101480257D02*
X119327633Y-101575495D01*
X119327633Y-101575495D02*
X119327633Y-101718352D01*
X119327633Y-101718352D02*
X119280014Y-101813590D01*
X119280014Y-101813590D02*
X119232395Y-101861209D01*
X119232395Y-101861209D02*
X119137157Y-101908828D01*
X119137157Y-101908828D02*
X118756205Y-101908828D01*
X120232395Y-101385019D02*
X119756205Y-101385019D01*
X119756205Y-101385019D02*
X119708586Y-101861209D01*
X119708586Y-101861209D02*
X119756205Y-101813590D01*
X119756205Y-101813590D02*
X119851443Y-101765971D01*
X119851443Y-101765971D02*
X120089538Y-101765971D01*
X120089538Y-101765971D02*
X120184776Y-101813590D01*
X120184776Y-101813590D02*
X120232395Y-101861209D01*
X120232395Y-101861209D02*
X120280014Y-101956447D01*
X120280014Y-101956447D02*
X120280014Y-102194542D01*
X120280014Y-102194542D02*
X120232395Y-102289780D01*
X120232395Y-102289780D02*
X120184776Y-102337400D01*
X120184776Y-102337400D02*
X120089538Y-102385019D01*
X120089538Y-102385019D02*
X119851443Y-102385019D01*
X119851443Y-102385019D02*
X119756205Y-102337400D01*
X119756205Y-102337400D02*
X119708586Y-102289780D01*
X107156952Y-92885419D02*
X107156952Y-91885419D01*
X107156952Y-91885419D02*
X107537904Y-91885419D01*
X107537904Y-91885419D02*
X107633142Y-91933038D01*
X107633142Y-91933038D02*
X107680761Y-91980657D01*
X107680761Y-91980657D02*
X107728380Y-92075895D01*
X107728380Y-92075895D02*
X107728380Y-92218752D01*
X107728380Y-92218752D02*
X107680761Y-92313990D01*
X107680761Y-92313990D02*
X107633142Y-92361609D01*
X107633142Y-92361609D02*
X107537904Y-92409228D01*
X107537904Y-92409228D02*
X107156952Y-92409228D01*
X108299809Y-92885419D02*
X108204571Y-92837800D01*
X108204571Y-92837800D02*
X108156952Y-92790180D01*
X108156952Y-92790180D02*
X108109333Y-92694942D01*
X108109333Y-92694942D02*
X108109333Y-92409228D01*
X108109333Y-92409228D02*
X108156952Y-92313990D01*
X108156952Y-92313990D02*
X108204571Y-92266371D01*
X108204571Y-92266371D02*
X108299809Y-92218752D01*
X108299809Y-92218752D02*
X108442666Y-92218752D01*
X108442666Y-92218752D02*
X108537904Y-92266371D01*
X108537904Y-92266371D02*
X108585523Y-92313990D01*
X108585523Y-92313990D02*
X108633142Y-92409228D01*
X108633142Y-92409228D02*
X108633142Y-92694942D01*
X108633142Y-92694942D02*
X108585523Y-92790180D01*
X108585523Y-92790180D02*
X108537904Y-92837800D01*
X108537904Y-92837800D02*
X108442666Y-92885419D01*
X108442666Y-92885419D02*
X108299809Y-92885419D01*
X108966476Y-92218752D02*
X109156952Y-92885419D01*
X109156952Y-92885419D02*
X109347428Y-92409228D01*
X109347428Y-92409228D02*
X109537904Y-92885419D01*
X109537904Y-92885419D02*
X109728380Y-92218752D01*
X110490285Y-92837800D02*
X110395047Y-92885419D01*
X110395047Y-92885419D02*
X110204571Y-92885419D01*
X110204571Y-92885419D02*
X110109333Y-92837800D01*
X110109333Y-92837800D02*
X110061714Y-92742561D01*
X110061714Y-92742561D02*
X110061714Y-92361609D01*
X110061714Y-92361609D02*
X110109333Y-92266371D01*
X110109333Y-92266371D02*
X110204571Y-92218752D01*
X110204571Y-92218752D02*
X110395047Y-92218752D01*
X110395047Y-92218752D02*
X110490285Y-92266371D01*
X110490285Y-92266371D02*
X110537904Y-92361609D01*
X110537904Y-92361609D02*
X110537904Y-92456847D01*
X110537904Y-92456847D02*
X110061714Y-92552085D01*
X110966476Y-92885419D02*
X110966476Y-92218752D01*
X110966476Y-92409228D02*
X111014095Y-92313990D01*
X111014095Y-92313990D02*
X111061714Y-92266371D01*
X111061714Y-92266371D02*
X111156952Y-92218752D01*
X111156952Y-92218752D02*
X111252190Y-92218752D01*
X111347429Y-92980657D02*
X112109333Y-92980657D01*
X112299810Y-92837800D02*
X112442667Y-92885419D01*
X112442667Y-92885419D02*
X112680762Y-92885419D01*
X112680762Y-92885419D02*
X112776000Y-92837800D01*
X112776000Y-92837800D02*
X112823619Y-92790180D01*
X112823619Y-92790180D02*
X112871238Y-92694942D01*
X112871238Y-92694942D02*
X112871238Y-92599704D01*
X112871238Y-92599704D02*
X112823619Y-92504466D01*
X112823619Y-92504466D02*
X112776000Y-92456847D01*
X112776000Y-92456847D02*
X112680762Y-92409228D01*
X112680762Y-92409228D02*
X112490286Y-92361609D01*
X112490286Y-92361609D02*
X112395048Y-92313990D01*
X112395048Y-92313990D02*
X112347429Y-92266371D01*
X112347429Y-92266371D02*
X112299810Y-92171133D01*
X112299810Y-92171133D02*
X112299810Y-92075895D01*
X112299810Y-92075895D02*
X112347429Y-91980657D01*
X112347429Y-91980657D02*
X112395048Y-91933038D01*
X112395048Y-91933038D02*
X112490286Y-91885419D01*
X112490286Y-91885419D02*
X112728381Y-91885419D01*
X112728381Y-91885419D02*
X112871238Y-91933038D01*
X113204572Y-92218752D02*
X113395048Y-92885419D01*
X113395048Y-92885419D02*
X113585524Y-92409228D01*
X113585524Y-92409228D02*
X113776000Y-92885419D01*
X113776000Y-92885419D02*
X113966476Y-92218752D01*
X114347429Y-92885419D02*
X114347429Y-92218752D01*
X114347429Y-91885419D02*
X114299810Y-91933038D01*
X114299810Y-91933038D02*
X114347429Y-91980657D01*
X114347429Y-91980657D02*
X114395048Y-91933038D01*
X114395048Y-91933038D02*
X114347429Y-91885419D01*
X114347429Y-91885419D02*
X114347429Y-91980657D01*
X114680762Y-92218752D02*
X115061714Y-92218752D01*
X114823619Y-91885419D02*
X114823619Y-92742561D01*
X114823619Y-92742561D02*
X114871238Y-92837800D01*
X114871238Y-92837800D02*
X114966476Y-92885419D01*
X114966476Y-92885419D02*
X115061714Y-92885419D01*
X115823619Y-92837800D02*
X115728381Y-92885419D01*
X115728381Y-92885419D02*
X115537905Y-92885419D01*
X115537905Y-92885419D02*
X115442667Y-92837800D01*
X115442667Y-92837800D02*
X115395048Y-92790180D01*
X115395048Y-92790180D02*
X115347429Y-92694942D01*
X115347429Y-92694942D02*
X115347429Y-92409228D01*
X115347429Y-92409228D02*
X115395048Y-92313990D01*
X115395048Y-92313990D02*
X115442667Y-92266371D01*
X115442667Y-92266371D02*
X115537905Y-92218752D01*
X115537905Y-92218752D02*
X115728381Y-92218752D01*
X115728381Y-92218752D02*
X115823619Y-92266371D01*
X116252191Y-92885419D02*
X116252191Y-91885419D01*
X116680762Y-92885419D02*
X116680762Y-92361609D01*
X116680762Y-92361609D02*
X116633143Y-92266371D01*
X116633143Y-92266371D02*
X116537905Y-92218752D01*
X116537905Y-92218752D02*
X116395048Y-92218752D01*
X116395048Y-92218752D02*
X116299810Y-92266371D01*
X116299810Y-92266371D02*
X116252191Y-92313990D01*
X116918858Y-92980657D02*
X117680762Y-92980657D01*
X118442667Y-92885419D02*
X117871239Y-92885419D01*
X118156953Y-92885419D02*
X118156953Y-91885419D01*
X118156953Y-91885419D02*
X118061715Y-92028276D01*
X118061715Y-92028276D02*
X117966477Y-92123514D01*
X117966477Y-92123514D02*
X117871239Y-92171133D01*
X136332933Y-114303980D02*
X136285314Y-114351600D01*
X136285314Y-114351600D02*
X136142457Y-114399219D01*
X136142457Y-114399219D02*
X136047219Y-114399219D01*
X136047219Y-114399219D02*
X135904362Y-114351600D01*
X135904362Y-114351600D02*
X135809124Y-114256361D01*
X135809124Y-114256361D02*
X135761505Y-114161123D01*
X135761505Y-114161123D02*
X135713886Y-113970647D01*
X135713886Y-113970647D02*
X135713886Y-113827790D01*
X135713886Y-113827790D02*
X135761505Y-113637314D01*
X135761505Y-113637314D02*
X135809124Y-113542076D01*
X135809124Y-113542076D02*
X135904362Y-113446838D01*
X135904362Y-113446838D02*
X136047219Y-113399219D01*
X136047219Y-113399219D02*
X136142457Y-113399219D01*
X136142457Y-113399219D02*
X136285314Y-113446838D01*
X136285314Y-113446838D02*
X136332933Y-113494457D01*
X136666267Y-113399219D02*
X137285314Y-113399219D01*
X137285314Y-113399219D02*
X136951981Y-113780171D01*
X136951981Y-113780171D02*
X137094838Y-113780171D01*
X137094838Y-113780171D02*
X137190076Y-113827790D01*
X137190076Y-113827790D02*
X137237695Y-113875409D01*
X137237695Y-113875409D02*
X137285314Y-113970647D01*
X137285314Y-113970647D02*
X137285314Y-114208742D01*
X137285314Y-114208742D02*
X137237695Y-114303980D01*
X137237695Y-114303980D02*
X137190076Y-114351600D01*
X137190076Y-114351600D02*
X137094838Y-114399219D01*
X137094838Y-114399219D02*
X136809124Y-114399219D01*
X136809124Y-114399219D02*
X136713886Y-114351600D01*
X136713886Y-114351600D02*
X136666267Y-114303980D01*
X156170333Y-89157980D02*
X156122714Y-89205600D01*
X156122714Y-89205600D02*
X155979857Y-89253219D01*
X155979857Y-89253219D02*
X155884619Y-89253219D01*
X155884619Y-89253219D02*
X155741762Y-89205600D01*
X155741762Y-89205600D02*
X155646524Y-89110361D01*
X155646524Y-89110361D02*
X155598905Y-89015123D01*
X155598905Y-89015123D02*
X155551286Y-88824647D01*
X155551286Y-88824647D02*
X155551286Y-88681790D01*
X155551286Y-88681790D02*
X155598905Y-88491314D01*
X155598905Y-88491314D02*
X155646524Y-88396076D01*
X155646524Y-88396076D02*
X155741762Y-88300838D01*
X155741762Y-88300838D02*
X155884619Y-88253219D01*
X155884619Y-88253219D02*
X155979857Y-88253219D01*
X155979857Y-88253219D02*
X156122714Y-88300838D01*
X156122714Y-88300838D02*
X156170333Y-88348457D01*
X156551286Y-88348457D02*
X156598905Y-88300838D01*
X156598905Y-88300838D02*
X156694143Y-88253219D01*
X156694143Y-88253219D02*
X156932238Y-88253219D01*
X156932238Y-88253219D02*
X157027476Y-88300838D01*
X157027476Y-88300838D02*
X157075095Y-88348457D01*
X157075095Y-88348457D02*
X157122714Y-88443695D01*
X157122714Y-88443695D02*
X157122714Y-88538933D01*
X157122714Y-88538933D02*
X157075095Y-88681790D01*
X157075095Y-88681790D02*
X156503667Y-89253219D01*
X156503667Y-89253219D02*
X157122714Y-89253219D01*
X143794266Y-108131019D02*
X143794266Y-108845304D01*
X143794266Y-108845304D02*
X143746647Y-108988161D01*
X143746647Y-108988161D02*
X143651409Y-109083400D01*
X143651409Y-109083400D02*
X143508552Y-109131019D01*
X143508552Y-109131019D02*
X143413314Y-109131019D01*
X144270457Y-109131019D02*
X144270457Y-108131019D01*
X144270457Y-108131019D02*
X144651409Y-108131019D01*
X144651409Y-108131019D02*
X144746647Y-108178638D01*
X144746647Y-108178638D02*
X144794266Y-108226257D01*
X144794266Y-108226257D02*
X144841885Y-108321495D01*
X144841885Y-108321495D02*
X144841885Y-108464352D01*
X144841885Y-108464352D02*
X144794266Y-108559590D01*
X144794266Y-108559590D02*
X144746647Y-108607209D01*
X144746647Y-108607209D02*
X144651409Y-108654828D01*
X144651409Y-108654828D02*
X144270457Y-108654828D01*
X145222838Y-108226257D02*
X145270457Y-108178638D01*
X145270457Y-108178638D02*
X145365695Y-108131019D01*
X145365695Y-108131019D02*
X145603790Y-108131019D01*
X145603790Y-108131019D02*
X145699028Y-108178638D01*
X145699028Y-108178638D02*
X145746647Y-108226257D01*
X145746647Y-108226257D02*
X145794266Y-108321495D01*
X145794266Y-108321495D02*
X145794266Y-108416733D01*
X145794266Y-108416733D02*
X145746647Y-108559590D01*
X145746647Y-108559590D02*
X145175219Y-109131019D01*
X145175219Y-109131019D02*
X145794266Y-109131019D01*
X134202895Y-73911619D02*
X134202895Y-72911619D01*
X134631466Y-73006857D02*
X134679085Y-72959238D01*
X134679085Y-72959238D02*
X134774323Y-72911619D01*
X134774323Y-72911619D02*
X135012418Y-72911619D01*
X135012418Y-72911619D02*
X135107656Y-72959238D01*
X135107656Y-72959238D02*
X135155275Y-73006857D01*
X135155275Y-73006857D02*
X135202894Y-73102095D01*
X135202894Y-73102095D02*
X135202894Y-73197333D01*
X135202894Y-73197333D02*
X135155275Y-73340190D01*
X135155275Y-73340190D02*
X134583847Y-73911619D01*
X134583847Y-73911619D02*
X135202894Y-73911619D01*
X136202894Y-73816380D02*
X136155275Y-73864000D01*
X136155275Y-73864000D02*
X136012418Y-73911619D01*
X136012418Y-73911619D02*
X135917180Y-73911619D01*
X135917180Y-73911619D02*
X135774323Y-73864000D01*
X135774323Y-73864000D02*
X135679085Y-73768761D01*
X135679085Y-73768761D02*
X135631466Y-73673523D01*
X135631466Y-73673523D02*
X135583847Y-73483047D01*
X135583847Y-73483047D02*
X135583847Y-73340190D01*
X135583847Y-73340190D02*
X135631466Y-73149714D01*
X135631466Y-73149714D02*
X135679085Y-73054476D01*
X135679085Y-73054476D02*
X135774323Y-72959238D01*
X135774323Y-72959238D02*
X135917180Y-72911619D01*
X135917180Y-72911619D02*
X136012418Y-72911619D01*
X136012418Y-72911619D02*
X136155275Y-72959238D01*
X136155275Y-72959238D02*
X136202894Y-73006857D01*
X136393371Y-74006857D02*
X137155275Y-74006857D01*
X137583847Y-72911619D02*
X137774323Y-72911619D01*
X137774323Y-72911619D02*
X137869561Y-72959238D01*
X137869561Y-72959238D02*
X137964799Y-73054476D01*
X137964799Y-73054476D02*
X138012418Y-73244952D01*
X138012418Y-73244952D02*
X138012418Y-73578285D01*
X138012418Y-73578285D02*
X137964799Y-73768761D01*
X137964799Y-73768761D02*
X137869561Y-73864000D01*
X137869561Y-73864000D02*
X137774323Y-73911619D01*
X137774323Y-73911619D02*
X137583847Y-73911619D01*
X137583847Y-73911619D02*
X137488609Y-73864000D01*
X137488609Y-73864000D02*
X137393371Y-73768761D01*
X137393371Y-73768761D02*
X137345752Y-73578285D01*
X137345752Y-73578285D02*
X137345752Y-73244952D01*
X137345752Y-73244952D02*
X137393371Y-73054476D01*
X137393371Y-73054476D02*
X137488609Y-72959238D01*
X137488609Y-72959238D02*
X137583847Y-72911619D01*
X138440990Y-72911619D02*
X138440990Y-73721142D01*
X138440990Y-73721142D02*
X138488609Y-73816380D01*
X138488609Y-73816380D02*
X138536228Y-73864000D01*
X138536228Y-73864000D02*
X138631466Y-73911619D01*
X138631466Y-73911619D02*
X138821942Y-73911619D01*
X138821942Y-73911619D02*
X138917180Y-73864000D01*
X138917180Y-73864000D02*
X138964799Y-73816380D01*
X138964799Y-73816380D02*
X139012418Y-73721142D01*
X139012418Y-73721142D02*
X139012418Y-72911619D01*
X139345752Y-72911619D02*
X139917180Y-72911619D01*
X139631466Y-73911619D02*
X139631466Y-72911619D01*
X140774323Y-73911619D02*
X140202895Y-73911619D01*
X140488609Y-73911619D02*
X140488609Y-72911619D01*
X140488609Y-72911619D02*
X140393371Y-73054476D01*
X140393371Y-73054476D02*
X140298133Y-73149714D01*
X140298133Y-73149714D02*
X140202895Y-73197333D01*
X159294533Y-106474419D02*
X158961200Y-105998228D01*
X158723105Y-106474419D02*
X158723105Y-105474419D01*
X158723105Y-105474419D02*
X159104057Y-105474419D01*
X159104057Y-105474419D02*
X159199295Y-105522038D01*
X159199295Y-105522038D02*
X159246914Y-105569657D01*
X159246914Y-105569657D02*
X159294533Y-105664895D01*
X159294533Y-105664895D02*
X159294533Y-105807752D01*
X159294533Y-105807752D02*
X159246914Y-105902990D01*
X159246914Y-105902990D02*
X159199295Y-105950609D01*
X159199295Y-105950609D02*
X159104057Y-105998228D01*
X159104057Y-105998228D02*
X158723105Y-105998228D01*
X160246914Y-106474419D02*
X159675486Y-106474419D01*
X159961200Y-106474419D02*
X159961200Y-105474419D01*
X159961200Y-105474419D02*
X159865962Y-105617276D01*
X159865962Y-105617276D02*
X159770724Y-105712514D01*
X159770724Y-105712514D02*
X159675486Y-105760133D01*
X118927666Y-108105619D02*
X118927666Y-108819904D01*
X118927666Y-108819904D02*
X118880047Y-108962761D01*
X118880047Y-108962761D02*
X118784809Y-109058000D01*
X118784809Y-109058000D02*
X118641952Y-109105619D01*
X118641952Y-109105619D02*
X118546714Y-109105619D01*
X119403857Y-109105619D02*
X119403857Y-108105619D01*
X119403857Y-108105619D02*
X119784809Y-108105619D01*
X119784809Y-108105619D02*
X119880047Y-108153238D01*
X119880047Y-108153238D02*
X119927666Y-108200857D01*
X119927666Y-108200857D02*
X119975285Y-108296095D01*
X119975285Y-108296095D02*
X119975285Y-108438952D01*
X119975285Y-108438952D02*
X119927666Y-108534190D01*
X119927666Y-108534190D02*
X119880047Y-108581809D01*
X119880047Y-108581809D02*
X119784809Y-108629428D01*
X119784809Y-108629428D02*
X119403857Y-108629428D01*
X120832428Y-108438952D02*
X120832428Y-109105619D01*
X120594333Y-108058000D02*
X120356238Y-108772285D01*
X120356238Y-108772285D02*
X120975285Y-108772285D01*
X144435533Y-98600419D02*
X144102200Y-98124228D01*
X143864105Y-98600419D02*
X143864105Y-97600419D01*
X143864105Y-97600419D02*
X144245057Y-97600419D01*
X144245057Y-97600419D02*
X144340295Y-97648038D01*
X144340295Y-97648038D02*
X144387914Y-97695657D01*
X144387914Y-97695657D02*
X144435533Y-97790895D01*
X144435533Y-97790895D02*
X144435533Y-97933752D01*
X144435533Y-97933752D02*
X144387914Y-98028990D01*
X144387914Y-98028990D02*
X144340295Y-98076609D01*
X144340295Y-98076609D02*
X144245057Y-98124228D01*
X144245057Y-98124228D02*
X143864105Y-98124228D01*
X144768867Y-97600419D02*
X145387914Y-97600419D01*
X145387914Y-97600419D02*
X145054581Y-97981371D01*
X145054581Y-97981371D02*
X145197438Y-97981371D01*
X145197438Y-97981371D02*
X145292676Y-98028990D01*
X145292676Y-98028990D02*
X145340295Y-98076609D01*
X145340295Y-98076609D02*
X145387914Y-98171847D01*
X145387914Y-98171847D02*
X145387914Y-98409942D01*
X145387914Y-98409942D02*
X145340295Y-98505180D01*
X145340295Y-98505180D02*
X145292676Y-98552800D01*
X145292676Y-98552800D02*
X145197438Y-98600419D01*
X145197438Y-98600419D02*
X144911724Y-98600419D01*
X144911724Y-98600419D02*
X144816486Y-98552800D01*
X144816486Y-98552800D02*
X144768867Y-98505180D01*
X128453523Y-124705304D02*
X128929713Y-124705304D01*
X128358285Y-124991019D02*
X128691618Y-123991019D01*
X128691618Y-123991019D02*
X129024951Y-124991019D01*
X129358285Y-124324352D02*
X129358285Y-124991019D01*
X129358285Y-124419590D02*
X129405904Y-124371971D01*
X129405904Y-124371971D02*
X129501142Y-124324352D01*
X129501142Y-124324352D02*
X129643999Y-124324352D01*
X129643999Y-124324352D02*
X129739237Y-124371971D01*
X129739237Y-124371971D02*
X129786856Y-124467209D01*
X129786856Y-124467209D02*
X129786856Y-124991019D01*
X130691618Y-124991019D02*
X130691618Y-124467209D01*
X130691618Y-124467209D02*
X130643999Y-124371971D01*
X130643999Y-124371971D02*
X130548761Y-124324352D01*
X130548761Y-124324352D02*
X130358285Y-124324352D01*
X130358285Y-124324352D02*
X130263047Y-124371971D01*
X130691618Y-124943400D02*
X130596380Y-124991019D01*
X130596380Y-124991019D02*
X130358285Y-124991019D01*
X130358285Y-124991019D02*
X130263047Y-124943400D01*
X130263047Y-124943400D02*
X130215428Y-124848161D01*
X130215428Y-124848161D02*
X130215428Y-124752923D01*
X130215428Y-124752923D02*
X130263047Y-124657685D01*
X130263047Y-124657685D02*
X130358285Y-124610066D01*
X130358285Y-124610066D02*
X130596380Y-124610066D01*
X130596380Y-124610066D02*
X130691618Y-124562447D01*
X131310666Y-124991019D02*
X131215428Y-124943400D01*
X131215428Y-124943400D02*
X131167809Y-124848161D01*
X131167809Y-124848161D02*
X131167809Y-123991019D01*
X131834476Y-124991019D02*
X131739238Y-124943400D01*
X131739238Y-124943400D02*
X131691619Y-124895780D01*
X131691619Y-124895780D02*
X131644000Y-124800542D01*
X131644000Y-124800542D02*
X131644000Y-124514828D01*
X131644000Y-124514828D02*
X131691619Y-124419590D01*
X131691619Y-124419590D02*
X131739238Y-124371971D01*
X131739238Y-124371971D02*
X131834476Y-124324352D01*
X131834476Y-124324352D02*
X131977333Y-124324352D01*
X131977333Y-124324352D02*
X132072571Y-124371971D01*
X132072571Y-124371971D02*
X132120190Y-124419590D01*
X132120190Y-124419590D02*
X132167809Y-124514828D01*
X132167809Y-124514828D02*
X132167809Y-124800542D01*
X132167809Y-124800542D02*
X132120190Y-124895780D01*
X132120190Y-124895780D02*
X132072571Y-124943400D01*
X132072571Y-124943400D02*
X131977333Y-124991019D01*
X131977333Y-124991019D02*
X131834476Y-124991019D01*
X133024952Y-124324352D02*
X133024952Y-125133876D01*
X133024952Y-125133876D02*
X132977333Y-125229114D01*
X132977333Y-125229114D02*
X132929714Y-125276733D01*
X132929714Y-125276733D02*
X132834476Y-125324352D01*
X132834476Y-125324352D02*
X132691619Y-125324352D01*
X132691619Y-125324352D02*
X132596381Y-125276733D01*
X133024952Y-124943400D02*
X132929714Y-124991019D01*
X132929714Y-124991019D02*
X132739238Y-124991019D01*
X132739238Y-124991019D02*
X132644000Y-124943400D01*
X132644000Y-124943400D02*
X132596381Y-124895780D01*
X132596381Y-124895780D02*
X132548762Y-124800542D01*
X132548762Y-124800542D02*
X132548762Y-124514828D01*
X132548762Y-124514828D02*
X132596381Y-124419590D01*
X132596381Y-124419590D02*
X132644000Y-124371971D01*
X132644000Y-124371971D02*
X132739238Y-124324352D01*
X132739238Y-124324352D02*
X132929714Y-124324352D01*
X132929714Y-124324352D02*
X133024952Y-124371971D01*
X133263048Y-125086257D02*
X134024952Y-125086257D01*
X134834476Y-124895780D02*
X134786857Y-124943400D01*
X134786857Y-124943400D02*
X134644000Y-124991019D01*
X134644000Y-124991019D02*
X134548762Y-124991019D01*
X134548762Y-124991019D02*
X134405905Y-124943400D01*
X134405905Y-124943400D02*
X134310667Y-124848161D01*
X134310667Y-124848161D02*
X134263048Y-124752923D01*
X134263048Y-124752923D02*
X134215429Y-124562447D01*
X134215429Y-124562447D02*
X134215429Y-124419590D01*
X134215429Y-124419590D02*
X134263048Y-124229114D01*
X134263048Y-124229114D02*
X134310667Y-124133876D01*
X134310667Y-124133876D02*
X134405905Y-124038638D01*
X134405905Y-124038638D02*
X134548762Y-123991019D01*
X134548762Y-123991019D02*
X134644000Y-123991019D01*
X134644000Y-123991019D02*
X134786857Y-124038638D01*
X134786857Y-124038638D02*
X134834476Y-124086257D01*
X135405905Y-124991019D02*
X135310667Y-124943400D01*
X135310667Y-124943400D02*
X135263048Y-124895780D01*
X135263048Y-124895780D02*
X135215429Y-124800542D01*
X135215429Y-124800542D02*
X135215429Y-124514828D01*
X135215429Y-124514828D02*
X135263048Y-124419590D01*
X135263048Y-124419590D02*
X135310667Y-124371971D01*
X135310667Y-124371971D02*
X135405905Y-124324352D01*
X135405905Y-124324352D02*
X135548762Y-124324352D01*
X135548762Y-124324352D02*
X135644000Y-124371971D01*
X135644000Y-124371971D02*
X135691619Y-124419590D01*
X135691619Y-124419590D02*
X135739238Y-124514828D01*
X135739238Y-124514828D02*
X135739238Y-124800542D01*
X135739238Y-124800542D02*
X135691619Y-124895780D01*
X135691619Y-124895780D02*
X135644000Y-124943400D01*
X135644000Y-124943400D02*
X135548762Y-124991019D01*
X135548762Y-124991019D02*
X135405905Y-124991019D01*
X136167810Y-124991019D02*
X136167810Y-124324352D01*
X136167810Y-124419590D02*
X136215429Y-124371971D01*
X136215429Y-124371971D02*
X136310667Y-124324352D01*
X136310667Y-124324352D02*
X136453524Y-124324352D01*
X136453524Y-124324352D02*
X136548762Y-124371971D01*
X136548762Y-124371971D02*
X136596381Y-124467209D01*
X136596381Y-124467209D02*
X136596381Y-124991019D01*
X136596381Y-124467209D02*
X136644000Y-124371971D01*
X136644000Y-124371971D02*
X136739238Y-124324352D01*
X136739238Y-124324352D02*
X136882095Y-124324352D01*
X136882095Y-124324352D02*
X136977334Y-124371971D01*
X136977334Y-124371971D02*
X137024953Y-124467209D01*
X137024953Y-124467209D02*
X137024953Y-124991019D01*
X137501143Y-124324352D02*
X137501143Y-125324352D01*
X137501143Y-124371971D02*
X137596381Y-124324352D01*
X137596381Y-124324352D02*
X137786857Y-124324352D01*
X137786857Y-124324352D02*
X137882095Y-124371971D01*
X137882095Y-124371971D02*
X137929714Y-124419590D01*
X137929714Y-124419590D02*
X137977333Y-124514828D01*
X137977333Y-124514828D02*
X137977333Y-124800542D01*
X137977333Y-124800542D02*
X137929714Y-124895780D01*
X137929714Y-124895780D02*
X137882095Y-124943400D01*
X137882095Y-124943400D02*
X137786857Y-124991019D01*
X137786857Y-124991019D02*
X137596381Y-124991019D01*
X137596381Y-124991019D02*
X137501143Y-124943400D01*
X138548762Y-124991019D02*
X138453524Y-124943400D01*
X138453524Y-124943400D02*
X138405905Y-124895780D01*
X138405905Y-124895780D02*
X138358286Y-124800542D01*
X138358286Y-124800542D02*
X138358286Y-124514828D01*
X138358286Y-124514828D02*
X138405905Y-124419590D01*
X138405905Y-124419590D02*
X138453524Y-124371971D01*
X138453524Y-124371971D02*
X138548762Y-124324352D01*
X138548762Y-124324352D02*
X138691619Y-124324352D01*
X138691619Y-124324352D02*
X138786857Y-124371971D01*
X138786857Y-124371971D02*
X138834476Y-124419590D01*
X138834476Y-124419590D02*
X138882095Y-124514828D01*
X138882095Y-124514828D02*
X138882095Y-124800542D01*
X138882095Y-124800542D02*
X138834476Y-124895780D01*
X138834476Y-124895780D02*
X138786857Y-124943400D01*
X138786857Y-124943400D02*
X138691619Y-124991019D01*
X138691619Y-124991019D02*
X138548762Y-124991019D01*
X139310667Y-124324352D02*
X139310667Y-124991019D01*
X139310667Y-124419590D02*
X139358286Y-124371971D01*
X139358286Y-124371971D02*
X139453524Y-124324352D01*
X139453524Y-124324352D02*
X139596381Y-124324352D01*
X139596381Y-124324352D02*
X139691619Y-124371971D01*
X139691619Y-124371971D02*
X139739238Y-124467209D01*
X139739238Y-124467209D02*
X139739238Y-124991019D01*
X140596381Y-124943400D02*
X140501143Y-124991019D01*
X140501143Y-124991019D02*
X140310667Y-124991019D01*
X140310667Y-124991019D02*
X140215429Y-124943400D01*
X140215429Y-124943400D02*
X140167810Y-124848161D01*
X140167810Y-124848161D02*
X140167810Y-124467209D01*
X140167810Y-124467209D02*
X140215429Y-124371971D01*
X140215429Y-124371971D02*
X140310667Y-124324352D01*
X140310667Y-124324352D02*
X140501143Y-124324352D01*
X140501143Y-124324352D02*
X140596381Y-124371971D01*
X140596381Y-124371971D02*
X140644000Y-124467209D01*
X140644000Y-124467209D02*
X140644000Y-124562447D01*
X140644000Y-124562447D02*
X140167810Y-124657685D01*
X141072572Y-124324352D02*
X141072572Y-124991019D01*
X141072572Y-124419590D02*
X141120191Y-124371971D01*
X141120191Y-124371971D02*
X141215429Y-124324352D01*
X141215429Y-124324352D02*
X141358286Y-124324352D01*
X141358286Y-124324352D02*
X141453524Y-124371971D01*
X141453524Y-124371971D02*
X141501143Y-124467209D01*
X141501143Y-124467209D02*
X141501143Y-124991019D01*
X141834477Y-124324352D02*
X142215429Y-124324352D01*
X141977334Y-123991019D02*
X141977334Y-124848161D01*
X141977334Y-124848161D02*
X142024953Y-124943400D01*
X142024953Y-124943400D02*
X142120191Y-124991019D01*
X142120191Y-124991019D02*
X142215429Y-124991019D01*
X142310668Y-125086257D02*
X143072572Y-125086257D01*
X143263049Y-124086257D02*
X143310668Y-124038638D01*
X143310668Y-124038638D02*
X143405906Y-123991019D01*
X143405906Y-123991019D02*
X143644001Y-123991019D01*
X143644001Y-123991019D02*
X143739239Y-124038638D01*
X143739239Y-124038638D02*
X143786858Y-124086257D01*
X143786858Y-124086257D02*
X143834477Y-124181495D01*
X143834477Y-124181495D02*
X143834477Y-124276733D01*
X143834477Y-124276733D02*
X143786858Y-124419590D01*
X143786858Y-124419590D02*
X143215430Y-124991019D01*
X143215430Y-124991019D02*
X143834477Y-124991019D01*
X143248381Y-72559019D02*
X143819809Y-72559019D01*
X143534095Y-73559019D02*
X143534095Y-72559019D01*
X144153143Y-73559019D02*
X144153143Y-72559019D01*
X144153143Y-72559019D02*
X144534095Y-72559019D01*
X144534095Y-72559019D02*
X144629333Y-72606638D01*
X144629333Y-72606638D02*
X144676952Y-72654257D01*
X144676952Y-72654257D02*
X144724571Y-72749495D01*
X144724571Y-72749495D02*
X144724571Y-72892352D01*
X144724571Y-72892352D02*
X144676952Y-72987590D01*
X144676952Y-72987590D02*
X144629333Y-73035209D01*
X144629333Y-73035209D02*
X144534095Y-73082828D01*
X144534095Y-73082828D02*
X144153143Y-73082828D01*
X144915048Y-73654257D02*
X145676952Y-73654257D01*
X145867429Y-73511400D02*
X146010286Y-73559019D01*
X146010286Y-73559019D02*
X146248381Y-73559019D01*
X146248381Y-73559019D02*
X146343619Y-73511400D01*
X146343619Y-73511400D02*
X146391238Y-73463780D01*
X146391238Y-73463780D02*
X146438857Y-73368542D01*
X146438857Y-73368542D02*
X146438857Y-73273304D01*
X146438857Y-73273304D02*
X146391238Y-73178066D01*
X146391238Y-73178066D02*
X146343619Y-73130447D01*
X146343619Y-73130447D02*
X146248381Y-73082828D01*
X146248381Y-73082828D02*
X146057905Y-73035209D01*
X146057905Y-73035209D02*
X145962667Y-72987590D01*
X145962667Y-72987590D02*
X145915048Y-72939971D01*
X145915048Y-72939971D02*
X145867429Y-72844733D01*
X145867429Y-72844733D02*
X145867429Y-72749495D01*
X145867429Y-72749495D02*
X145915048Y-72654257D01*
X145915048Y-72654257D02*
X145962667Y-72606638D01*
X145962667Y-72606638D02*
X146057905Y-72559019D01*
X146057905Y-72559019D02*
X146296000Y-72559019D01*
X146296000Y-72559019D02*
X146438857Y-72606638D01*
X147438857Y-73463780D02*
X147391238Y-73511400D01*
X147391238Y-73511400D02*
X147248381Y-73559019D01*
X147248381Y-73559019D02*
X147153143Y-73559019D01*
X147153143Y-73559019D02*
X147010286Y-73511400D01*
X147010286Y-73511400D02*
X146915048Y-73416161D01*
X146915048Y-73416161D02*
X146867429Y-73320923D01*
X146867429Y-73320923D02*
X146819810Y-73130447D01*
X146819810Y-73130447D02*
X146819810Y-72987590D01*
X146819810Y-72987590D02*
X146867429Y-72797114D01*
X146867429Y-72797114D02*
X146915048Y-72701876D01*
X146915048Y-72701876D02*
X147010286Y-72606638D01*
X147010286Y-72606638D02*
X147153143Y-72559019D01*
X147153143Y-72559019D02*
X147248381Y-72559019D01*
X147248381Y-72559019D02*
X147391238Y-72606638D01*
X147391238Y-72606638D02*
X147438857Y-72654257D01*
X148343619Y-73559019D02*
X147867429Y-73559019D01*
X147867429Y-73559019D02*
X147867429Y-72559019D01*
X108064752Y-90167619D02*
X107588562Y-90167619D01*
X107588562Y-90167619D02*
X107588562Y-89167619D01*
X108398086Y-90167619D02*
X108398086Y-89167619D01*
X108874276Y-90167619D02*
X108874276Y-89167619D01*
X108874276Y-89167619D02*
X109255228Y-89167619D01*
X109255228Y-89167619D02*
X109350466Y-89215238D01*
X109350466Y-89215238D02*
X109398085Y-89262857D01*
X109398085Y-89262857D02*
X109445704Y-89358095D01*
X109445704Y-89358095D02*
X109445704Y-89500952D01*
X109445704Y-89500952D02*
X109398085Y-89596190D01*
X109398085Y-89596190D02*
X109350466Y-89643809D01*
X109350466Y-89643809D02*
X109255228Y-89691428D01*
X109255228Y-89691428D02*
X108874276Y-89691428D01*
X110064752Y-89167619D02*
X110255228Y-89167619D01*
X110255228Y-89167619D02*
X110350466Y-89215238D01*
X110350466Y-89215238D02*
X110445704Y-89310476D01*
X110445704Y-89310476D02*
X110493323Y-89500952D01*
X110493323Y-89500952D02*
X110493323Y-89834285D01*
X110493323Y-89834285D02*
X110445704Y-90024761D01*
X110445704Y-90024761D02*
X110350466Y-90120000D01*
X110350466Y-90120000D02*
X110255228Y-90167619D01*
X110255228Y-90167619D02*
X110064752Y-90167619D01*
X110064752Y-90167619D02*
X109969514Y-90120000D01*
X109969514Y-90120000D02*
X109874276Y-90024761D01*
X109874276Y-90024761D02*
X109826657Y-89834285D01*
X109826657Y-89834285D02*
X109826657Y-89500952D01*
X109826657Y-89500952D02*
X109874276Y-89310476D01*
X109874276Y-89310476D02*
X109969514Y-89215238D01*
X109969514Y-89215238D02*
X110064752Y-89167619D01*
X110683800Y-90262857D02*
X111445704Y-90262857D01*
X111874276Y-89167619D02*
X112064752Y-89167619D01*
X112064752Y-89167619D02*
X112159990Y-89215238D01*
X112159990Y-89215238D02*
X112255228Y-89310476D01*
X112255228Y-89310476D02*
X112302847Y-89500952D01*
X112302847Y-89500952D02*
X112302847Y-89834285D01*
X112302847Y-89834285D02*
X112255228Y-90024761D01*
X112255228Y-90024761D02*
X112159990Y-90120000D01*
X112159990Y-90120000D02*
X112064752Y-90167619D01*
X112064752Y-90167619D02*
X111874276Y-90167619D01*
X111874276Y-90167619D02*
X111779038Y-90120000D01*
X111779038Y-90120000D02*
X111683800Y-90024761D01*
X111683800Y-90024761D02*
X111636181Y-89834285D01*
X111636181Y-89834285D02*
X111636181Y-89500952D01*
X111636181Y-89500952D02*
X111683800Y-89310476D01*
X111683800Y-89310476D02*
X111779038Y-89215238D01*
X111779038Y-89215238D02*
X111874276Y-89167619D01*
X112731419Y-89167619D02*
X112731419Y-89977142D01*
X112731419Y-89977142D02*
X112779038Y-90072380D01*
X112779038Y-90072380D02*
X112826657Y-90120000D01*
X112826657Y-90120000D02*
X112921895Y-90167619D01*
X112921895Y-90167619D02*
X113112371Y-90167619D01*
X113112371Y-90167619D02*
X113207609Y-90120000D01*
X113207609Y-90120000D02*
X113255228Y-90072380D01*
X113255228Y-90072380D02*
X113302847Y-89977142D01*
X113302847Y-89977142D02*
X113302847Y-89167619D01*
X113636181Y-89167619D02*
X114207609Y-89167619D01*
X113921895Y-90167619D02*
X113921895Y-89167619D01*
X114302848Y-90262857D02*
X115064752Y-90262857D01*
X115826657Y-90167619D02*
X115255229Y-90167619D01*
X115540943Y-90167619D02*
X115540943Y-89167619D01*
X115540943Y-89167619D02*
X115445705Y-89310476D01*
X115445705Y-89310476D02*
X115350467Y-89405714D01*
X115350467Y-89405714D02*
X115255229Y-89453333D01*
X122382066Y-108120619D02*
X122382066Y-108834904D01*
X122382066Y-108834904D02*
X122334447Y-108977761D01*
X122334447Y-108977761D02*
X122239209Y-109073000D01*
X122239209Y-109073000D02*
X122096352Y-109120619D01*
X122096352Y-109120619D02*
X122001114Y-109120619D01*
X122858257Y-109120619D02*
X122858257Y-108120619D01*
X122858257Y-108120619D02*
X123239209Y-108120619D01*
X123239209Y-108120619D02*
X123334447Y-108168238D01*
X123334447Y-108168238D02*
X123382066Y-108215857D01*
X123382066Y-108215857D02*
X123429685Y-108311095D01*
X123429685Y-108311095D02*
X123429685Y-108453952D01*
X123429685Y-108453952D02*
X123382066Y-108549190D01*
X123382066Y-108549190D02*
X123334447Y-108596809D01*
X123334447Y-108596809D02*
X123239209Y-108644428D01*
X123239209Y-108644428D02*
X122858257Y-108644428D01*
X124334447Y-108120619D02*
X123858257Y-108120619D01*
X123858257Y-108120619D02*
X123810638Y-108596809D01*
X123810638Y-108596809D02*
X123858257Y-108549190D01*
X123858257Y-108549190D02*
X123953495Y-108501571D01*
X123953495Y-108501571D02*
X124191590Y-108501571D01*
X124191590Y-108501571D02*
X124286828Y-108549190D01*
X124286828Y-108549190D02*
X124334447Y-108596809D01*
X124334447Y-108596809D02*
X124382066Y-108692047D01*
X124382066Y-108692047D02*
X124382066Y-108930142D01*
X124382066Y-108930142D02*
X124334447Y-109025380D01*
X124334447Y-109025380D02*
X124286828Y-109073000D01*
X124286828Y-109073000D02*
X124191590Y-109120619D01*
X124191590Y-109120619D02*
X123953495Y-109120619D01*
X123953495Y-109120619D02*
X123858257Y-109073000D01*
X123858257Y-109073000D02*
X123810638Y-109025380D01*
X134891781Y-95139619D02*
X135463209Y-95139619D01*
X135177495Y-96139619D02*
X135177495Y-95139619D01*
X135796543Y-96139619D02*
X135796543Y-95139619D01*
X135796543Y-95139619D02*
X136177495Y-95139619D01*
X136177495Y-95139619D02*
X136272733Y-95187238D01*
X136272733Y-95187238D02*
X136320352Y-95234857D01*
X136320352Y-95234857D02*
X136367971Y-95330095D01*
X136367971Y-95330095D02*
X136367971Y-95472952D01*
X136367971Y-95472952D02*
X136320352Y-95568190D01*
X136320352Y-95568190D02*
X136272733Y-95615809D01*
X136272733Y-95615809D02*
X136177495Y-95663428D01*
X136177495Y-95663428D02*
X135796543Y-95663428D01*
X136558448Y-96234857D02*
X137320352Y-96234857D01*
X137463210Y-95139619D02*
X138082257Y-95139619D01*
X138082257Y-95139619D02*
X137748924Y-95520571D01*
X137748924Y-95520571D02*
X137891781Y-95520571D01*
X137891781Y-95520571D02*
X137987019Y-95568190D01*
X137987019Y-95568190D02*
X138034638Y-95615809D01*
X138034638Y-95615809D02*
X138082257Y-95711047D01*
X138082257Y-95711047D02*
X138082257Y-95949142D01*
X138082257Y-95949142D02*
X138034638Y-96044380D01*
X138034638Y-96044380D02*
X137987019Y-96092000D01*
X137987019Y-96092000D02*
X137891781Y-96139619D01*
X137891781Y-96139619D02*
X137606067Y-96139619D01*
X137606067Y-96139619D02*
X137510829Y-96092000D01*
X137510829Y-96092000D02*
X137463210Y-96044380D01*
X138367972Y-95139619D02*
X138701305Y-96139619D01*
X138701305Y-96139619D02*
X139034638Y-95139619D01*
X139272734Y-95139619D02*
X139891781Y-95139619D01*
X139891781Y-95139619D02*
X139558448Y-95520571D01*
X139558448Y-95520571D02*
X139701305Y-95520571D01*
X139701305Y-95520571D02*
X139796543Y-95568190D01*
X139796543Y-95568190D02*
X139844162Y-95615809D01*
X139844162Y-95615809D02*
X139891781Y-95711047D01*
X139891781Y-95711047D02*
X139891781Y-95949142D01*
X139891781Y-95949142D02*
X139844162Y-96044380D01*
X139844162Y-96044380D02*
X139796543Y-96092000D01*
X139796543Y-96092000D02*
X139701305Y-96139619D01*
X139701305Y-96139619D02*
X139415591Y-96139619D01*
X139415591Y-96139619D02*
X139320353Y-96092000D01*
X139320353Y-96092000D02*
X139272734Y-96044380D01*
X109842562Y-74800619D02*
X109842562Y-73800619D01*
X109842562Y-73800619D02*
X110175895Y-74514904D01*
X110175895Y-74514904D02*
X110509228Y-73800619D01*
X110509228Y-73800619D02*
X110509228Y-74800619D01*
X110985419Y-74800619D02*
X110985419Y-73800619D01*
X110985419Y-73800619D02*
X111556847Y-74800619D01*
X111556847Y-74800619D02*
X111556847Y-73800619D01*
X111890181Y-73800619D02*
X112461609Y-73800619D01*
X112175895Y-74800619D02*
X112175895Y-73800619D01*
X112556848Y-74895857D02*
X113318752Y-74895857D01*
X114080657Y-74800619D02*
X113509229Y-74800619D01*
X113794943Y-74800619D02*
X113794943Y-73800619D01*
X113794943Y-73800619D02*
X113699705Y-73943476D01*
X113699705Y-73943476D02*
X113604467Y-74038714D01*
X113604467Y-74038714D02*
X113509229Y-74086333D01*
X140517666Y-108105619D02*
X140517666Y-108819904D01*
X140517666Y-108819904D02*
X140470047Y-108962761D01*
X140470047Y-108962761D02*
X140374809Y-109058000D01*
X140374809Y-109058000D02*
X140231952Y-109105619D01*
X140231952Y-109105619D02*
X140136714Y-109105619D01*
X140993857Y-109105619D02*
X140993857Y-108105619D01*
X140993857Y-108105619D02*
X141374809Y-108105619D01*
X141374809Y-108105619D02*
X141470047Y-108153238D01*
X141470047Y-108153238D02*
X141517666Y-108200857D01*
X141517666Y-108200857D02*
X141565285Y-108296095D01*
X141565285Y-108296095D02*
X141565285Y-108438952D01*
X141565285Y-108438952D02*
X141517666Y-108534190D01*
X141517666Y-108534190D02*
X141470047Y-108581809D01*
X141470047Y-108581809D02*
X141374809Y-108629428D01*
X141374809Y-108629428D02*
X140993857Y-108629428D01*
X141898619Y-108105619D02*
X142517666Y-108105619D01*
X142517666Y-108105619D02*
X142184333Y-108486571D01*
X142184333Y-108486571D02*
X142327190Y-108486571D01*
X142327190Y-108486571D02*
X142422428Y-108534190D01*
X142422428Y-108534190D02*
X142470047Y-108581809D01*
X142470047Y-108581809D02*
X142517666Y-108677047D01*
X142517666Y-108677047D02*
X142517666Y-108915142D01*
X142517666Y-108915142D02*
X142470047Y-109010380D01*
X142470047Y-109010380D02*
X142422428Y-109058000D01*
X142422428Y-109058000D02*
X142327190Y-109105619D01*
X142327190Y-109105619D02*
X142041476Y-109105619D01*
X142041476Y-109105619D02*
X141946238Y-109058000D01*
X141946238Y-109058000D02*
X141898619Y-109010380D01*
X154811981Y-73692657D02*
X154859600Y-73645038D01*
X154859600Y-73645038D02*
X154954838Y-73597419D01*
X154954838Y-73597419D02*
X155192933Y-73597419D01*
X155192933Y-73597419D02*
X155288171Y-73645038D01*
X155288171Y-73645038D02*
X155335790Y-73692657D01*
X155335790Y-73692657D02*
X155383409Y-73787895D01*
X155383409Y-73787895D02*
X155383409Y-73883133D01*
X155383409Y-73883133D02*
X155335790Y-74025990D01*
X155335790Y-74025990D02*
X154764362Y-74597419D01*
X154764362Y-74597419D02*
X155383409Y-74597419D01*
X155716743Y-73597419D02*
X156335790Y-73597419D01*
X156335790Y-73597419D02*
X156002457Y-73978371D01*
X156002457Y-73978371D02*
X156145314Y-73978371D01*
X156145314Y-73978371D02*
X156240552Y-74025990D01*
X156240552Y-74025990D02*
X156288171Y-74073609D01*
X156288171Y-74073609D02*
X156335790Y-74168847D01*
X156335790Y-74168847D02*
X156335790Y-74406942D01*
X156335790Y-74406942D02*
X156288171Y-74502180D01*
X156288171Y-74502180D02*
X156240552Y-74549800D01*
X156240552Y-74549800D02*
X156145314Y-74597419D01*
X156145314Y-74597419D02*
X155859600Y-74597419D01*
X155859600Y-74597419D02*
X155764362Y-74549800D01*
X155764362Y-74549800D02*
X155716743Y-74502180D01*
X156954838Y-73597419D02*
X157050076Y-73597419D01*
X157050076Y-73597419D02*
X157145314Y-73645038D01*
X157145314Y-73645038D02*
X157192933Y-73692657D01*
X157192933Y-73692657D02*
X157240552Y-73787895D01*
X157240552Y-73787895D02*
X157288171Y-73978371D01*
X157288171Y-73978371D02*
X157288171Y-74216466D01*
X157288171Y-74216466D02*
X157240552Y-74406942D01*
X157240552Y-74406942D02*
X157192933Y-74502180D01*
X157192933Y-74502180D02*
X157145314Y-74549800D01*
X157145314Y-74549800D02*
X157050076Y-74597419D01*
X157050076Y-74597419D02*
X156954838Y-74597419D01*
X156954838Y-74597419D02*
X156859600Y-74549800D01*
X156859600Y-74549800D02*
X156811981Y-74502180D01*
X156811981Y-74502180D02*
X156764362Y-74406942D01*
X156764362Y-74406942D02*
X156716743Y-74216466D01*
X156716743Y-74216466D02*
X156716743Y-73978371D01*
X156716743Y-73978371D02*
X156764362Y-73787895D01*
X156764362Y-73787895D02*
X156811981Y-73692657D01*
X156811981Y-73692657D02*
X156859600Y-73645038D01*
X156859600Y-73645038D02*
X156954838Y-73597419D01*
X158240552Y-74597419D02*
X157669124Y-74597419D01*
X157954838Y-74597419D02*
X157954838Y-73597419D01*
X157954838Y-73597419D02*
X157859600Y-73740276D01*
X157859600Y-73740276D02*
X157764362Y-73835514D01*
X157764362Y-73835514D02*
X157669124Y-73883133D01*
X158573886Y-73597419D02*
X159240552Y-73597419D01*
X159240552Y-73597419D02*
X158811981Y-74597419D01*
X159383410Y-74692657D02*
X160145314Y-74692657D01*
X160907219Y-73645038D02*
X160811981Y-73597419D01*
X160811981Y-73597419D02*
X160669124Y-73597419D01*
X160669124Y-73597419D02*
X160526267Y-73645038D01*
X160526267Y-73645038D02*
X160431029Y-73740276D01*
X160431029Y-73740276D02*
X160383410Y-73835514D01*
X160383410Y-73835514D02*
X160335791Y-74025990D01*
X160335791Y-74025990D02*
X160335791Y-74168847D01*
X160335791Y-74168847D02*
X160383410Y-74359323D01*
X160383410Y-74359323D02*
X160431029Y-74454561D01*
X160431029Y-74454561D02*
X160526267Y-74549800D01*
X160526267Y-74549800D02*
X160669124Y-74597419D01*
X160669124Y-74597419D02*
X160764362Y-74597419D01*
X160764362Y-74597419D02*
X160907219Y-74549800D01*
X160907219Y-74549800D02*
X160954838Y-74502180D01*
X160954838Y-74502180D02*
X160954838Y-74168847D01*
X160954838Y-74168847D02*
X160764362Y-74168847D01*
X161383410Y-74597419D02*
X161383410Y-73597419D01*
X161383410Y-73597419D02*
X161764362Y-73597419D01*
X161764362Y-73597419D02*
X161859600Y-73645038D01*
X161859600Y-73645038D02*
X161907219Y-73692657D01*
X161907219Y-73692657D02*
X161954838Y-73787895D01*
X161954838Y-73787895D02*
X161954838Y-73930752D01*
X161954838Y-73930752D02*
X161907219Y-74025990D01*
X161907219Y-74025990D02*
X161859600Y-74073609D01*
X161859600Y-74073609D02*
X161764362Y-74121228D01*
X161764362Y-74121228D02*
X161383410Y-74121228D01*
X162716743Y-74073609D02*
X162859600Y-74121228D01*
X162859600Y-74121228D02*
X162907219Y-74168847D01*
X162907219Y-74168847D02*
X162954838Y-74264085D01*
X162954838Y-74264085D02*
X162954838Y-74406942D01*
X162954838Y-74406942D02*
X162907219Y-74502180D01*
X162907219Y-74502180D02*
X162859600Y-74549800D01*
X162859600Y-74549800D02*
X162764362Y-74597419D01*
X162764362Y-74597419D02*
X162383410Y-74597419D01*
X162383410Y-74597419D02*
X162383410Y-73597419D01*
X162383410Y-73597419D02*
X162716743Y-73597419D01*
X162716743Y-73597419D02*
X162811981Y-73645038D01*
X162811981Y-73645038D02*
X162859600Y-73692657D01*
X162859600Y-73692657D02*
X162907219Y-73787895D01*
X162907219Y-73787895D02*
X162907219Y-73883133D01*
X162907219Y-73883133D02*
X162859600Y-73978371D01*
X162859600Y-73978371D02*
X162811981Y-74025990D01*
X162811981Y-74025990D02*
X162716743Y-74073609D01*
X162716743Y-74073609D02*
X162383410Y-74073609D01*
X163907219Y-74597419D02*
X163335791Y-74597419D01*
X163621505Y-74597419D02*
X163621505Y-73597419D01*
X163621505Y-73597419D02*
X163526267Y-73740276D01*
X163526267Y-73740276D02*
X163431029Y-73835514D01*
X163431029Y-73835514D02*
X163335791Y-73883133D01*
X108502819Y-116482019D02*
X108026629Y-116482019D01*
X108026629Y-116482019D02*
X108026629Y-115482019D01*
X108836153Y-116482019D02*
X108836153Y-115482019D01*
X109312343Y-116482019D02*
X109312343Y-115482019D01*
X109312343Y-115482019D02*
X109693295Y-115482019D01*
X109693295Y-115482019D02*
X109788533Y-115529638D01*
X109788533Y-115529638D02*
X109836152Y-115577257D01*
X109836152Y-115577257D02*
X109883771Y-115672495D01*
X109883771Y-115672495D02*
X109883771Y-115815352D01*
X109883771Y-115815352D02*
X109836152Y-115910590D01*
X109836152Y-115910590D02*
X109788533Y-115958209D01*
X109788533Y-115958209D02*
X109693295Y-116005828D01*
X109693295Y-116005828D02*
X109312343Y-116005828D01*
X110502819Y-115482019D02*
X110693295Y-115482019D01*
X110693295Y-115482019D02*
X110788533Y-115529638D01*
X110788533Y-115529638D02*
X110883771Y-115624876D01*
X110883771Y-115624876D02*
X110931390Y-115815352D01*
X110931390Y-115815352D02*
X110931390Y-116148685D01*
X110931390Y-116148685D02*
X110883771Y-116339161D01*
X110883771Y-116339161D02*
X110788533Y-116434400D01*
X110788533Y-116434400D02*
X110693295Y-116482019D01*
X110693295Y-116482019D02*
X110502819Y-116482019D01*
X110502819Y-116482019D02*
X110407581Y-116434400D01*
X110407581Y-116434400D02*
X110312343Y-116339161D01*
X110312343Y-116339161D02*
X110264724Y-116148685D01*
X110264724Y-116148685D02*
X110264724Y-115815352D01*
X110264724Y-115815352D02*
X110312343Y-115624876D01*
X110312343Y-115624876D02*
X110407581Y-115529638D01*
X110407581Y-115529638D02*
X110502819Y-115482019D01*
X111121867Y-116577257D02*
X111883771Y-116577257D01*
X112121867Y-116482019D02*
X112121867Y-115482019D01*
X112598057Y-116482019D02*
X112598057Y-115482019D01*
X112598057Y-115482019D02*
X113169485Y-116482019D01*
X113169485Y-116482019D02*
X113169485Y-115482019D01*
X113407581Y-116577257D02*
X114169485Y-116577257D01*
X114931390Y-116482019D02*
X114359962Y-116482019D01*
X114645676Y-116482019D02*
X114645676Y-115482019D01*
X114645676Y-115482019D02*
X114550438Y-115624876D01*
X114550438Y-115624876D02*
X114455200Y-115720114D01*
X114455200Y-115720114D02*
X114359962Y-115767733D01*
X146139162Y-112824419D02*
X146139162Y-111824419D01*
X146139162Y-111824419D02*
X146472495Y-112538704D01*
X146472495Y-112538704D02*
X146805828Y-111824419D01*
X146805828Y-111824419D02*
X146805828Y-112824419D01*
X147282019Y-112824419D02*
X147282019Y-111824419D01*
X147282019Y-111824419D02*
X147853447Y-112824419D01*
X147853447Y-112824419D02*
X147853447Y-111824419D01*
X148186781Y-111824419D02*
X148758209Y-111824419D01*
X148472495Y-112824419D02*
X148472495Y-111824419D01*
X148853448Y-112919657D02*
X149615352Y-112919657D01*
X149805829Y-111919657D02*
X149853448Y-111872038D01*
X149853448Y-111872038D02*
X149948686Y-111824419D01*
X149948686Y-111824419D02*
X150186781Y-111824419D01*
X150186781Y-111824419D02*
X150282019Y-111872038D01*
X150282019Y-111872038D02*
X150329638Y-111919657D01*
X150329638Y-111919657D02*
X150377257Y-112014895D01*
X150377257Y-112014895D02*
X150377257Y-112110133D01*
X150377257Y-112110133D02*
X150329638Y-112252990D01*
X150329638Y-112252990D02*
X149758210Y-112824419D01*
X149758210Y-112824419D02*
X150377257Y-112824419D01*
D12*
%TO.C,TP_SDA*%
X144922200Y-80863400D02*
X146822200Y-80863400D01*
X144922200Y-82763400D02*
X144922200Y-80863400D01*
X146822200Y-80863400D02*
X146822200Y-82763400D01*
X146822200Y-82763400D02*
X144922200Y-82763400D01*
%TO.C,23017_GPA1*%
X153420000Y-118620000D02*
X153420000Y-121380000D01*
X166230000Y-118620000D02*
X153420000Y-118620000D01*
X166230000Y-118620000D02*
X166230000Y-121380000D01*
X166230000Y-121380000D02*
X153420000Y-121380000D01*
X167500000Y-118620000D02*
X168880000Y-118620000D01*
X168880000Y-118620000D02*
X168880000Y-120000000D01*
D13*
%TO.C,R2*%
X147002500Y-100332750D02*
X147002500Y-100708250D01*
X148602700Y-100708250D02*
X148602700Y-100332750D01*
D12*
%TO.C,JP6*%
X125720600Y-109714600D02*
X127720600Y-109714600D01*
X125720600Y-112514600D02*
X125720600Y-109714600D01*
X127720600Y-109714600D02*
X127720600Y-112514600D01*
X127720600Y-112514600D02*
X125720600Y-112514600D01*
D11*
%TO.C,U2*%
X129032600Y-114097400D02*
X129032600Y-114322400D01*
X129032600Y-114097400D02*
X132282600Y-114097400D01*
X129032600Y-117347400D02*
X129032600Y-117122400D01*
X129032600Y-117347400D02*
X132282600Y-117347400D01*
X132282600Y-114097400D02*
X132282600Y-114322400D01*
X132282600Y-117347400D02*
X132282600Y-117122400D01*
D12*
X128557600Y-114322400D02*
X128317600Y-113992400D01*
X128797600Y-113992400D01*
X128557600Y-114322400D01*
G36*
X128557600Y-114322400D02*
G01*
X128317600Y-113992400D01*
X128797600Y-113992400D01*
X128557600Y-114322400D01*
G37*
D13*
%TO.C,R6*%
X124691350Y-104584500D02*
X125066850Y-104584500D01*
X125066850Y-102984300D02*
X124691350Y-102984300D01*
D12*
%TO.C,JP1*%
X146828000Y-104594200D02*
X148828000Y-104594200D01*
X146828000Y-107394200D02*
X146828000Y-104594200D01*
X148828000Y-104594200D02*
X148828000Y-107394200D01*
X148828000Y-107394200D02*
X146828000Y-107394200D01*
%TO.C,JP7*%
X116187000Y-97780600D02*
X118987000Y-97780600D01*
X116187000Y-99780600D02*
X116187000Y-97780600D01*
X118987000Y-97780600D02*
X118987000Y-99780600D01*
X118987000Y-99780600D02*
X116187000Y-99780600D01*
D13*
%TO.C,R4*%
X140601700Y-100358150D02*
X140601700Y-100733650D01*
X142201900Y-100733650D02*
X142201900Y-100358150D01*
D12*
%TO.C,I2C_IN1*%
X119744400Y-74267800D02*
X119744400Y-75517800D01*
X120044400Y-74567800D02*
X120044400Y-79287800D01*
X120044400Y-75877800D02*
X120654400Y-75877800D01*
X120044400Y-77177800D02*
X120654400Y-77177800D01*
X120044400Y-79287800D02*
X130164400Y-79287800D01*
X120654400Y-75177800D02*
X120654400Y-78677800D01*
X120654400Y-78677800D02*
X129554400Y-78677800D01*
X120994400Y-74267800D02*
X119744400Y-74267800D01*
X121504400Y-74367800D02*
X121504400Y-74567800D01*
X121804400Y-74367800D02*
X121504400Y-74367800D01*
X121804400Y-74467800D02*
X121504400Y-74467800D01*
X121804400Y-74567800D02*
X121804400Y-74367800D01*
X122604400Y-74567800D02*
X122604400Y-75177800D01*
X122604400Y-75177800D02*
X120654400Y-75177800D01*
X123004400Y-78177800D02*
X123204400Y-78177800D01*
X123004400Y-78677800D02*
X123004400Y-78177800D01*
X123104400Y-78677800D02*
X123104400Y-78177800D01*
X123204400Y-78177800D02*
X123204400Y-78677800D01*
X125004400Y-78177800D02*
X125204400Y-78177800D01*
X125004400Y-78677800D02*
X125004400Y-78177800D01*
X125104400Y-78677800D02*
X125104400Y-78177800D01*
X125204400Y-78177800D02*
X125204400Y-78677800D01*
X127004400Y-78177800D02*
X127204400Y-78177800D01*
X127004400Y-78677800D02*
X127004400Y-78177800D01*
X127104400Y-78677800D02*
X127104400Y-78177800D01*
X127204400Y-78177800D02*
X127204400Y-78677800D01*
X127604400Y-75177800D02*
X127604400Y-74567800D01*
X129554400Y-75177800D02*
X127604400Y-75177800D01*
X129554400Y-78677800D02*
X129554400Y-75177800D01*
X130164400Y-74567800D02*
X120044400Y-74567800D01*
X130164400Y-75877800D02*
X129554400Y-75877800D01*
X130164400Y-77177800D02*
X129554400Y-77177800D01*
X130164400Y-79287800D02*
X130164400Y-74567800D01*
%TO.C,U1*%
X150940000Y-94717400D02*
X151185000Y-94717400D01*
X150940000Y-98577400D02*
X150940000Y-94717400D01*
X150940000Y-98577400D02*
X150940000Y-102437400D01*
X150940000Y-102437400D02*
X151185000Y-102437400D01*
X169060000Y-94717400D02*
X168815000Y-94717400D01*
X169060000Y-98577400D02*
X169060000Y-94717400D01*
X169060000Y-98577400D02*
X169060000Y-102437400D01*
X169060000Y-102437400D02*
X168815000Y-102437400D01*
X169285000Y-94204900D02*
X168815000Y-93864900D01*
X169285000Y-93524900D01*
X169285000Y-94204900D01*
G36*
X169285000Y-94204900D02*
G01*
X168815000Y-93864900D01*
X169285000Y-93524900D01*
X169285000Y-94204900D01*
G37*
%TO.C,Analog_Component_1*%
X110710200Y-122792000D02*
X110710200Y-121412000D01*
X112090200Y-122792000D02*
X110710200Y-122792000D01*
X113360200Y-120032000D02*
X123630200Y-120032000D01*
X113360200Y-122792000D02*
X113360200Y-120032000D01*
X113360200Y-122792000D02*
X123630200Y-122792000D01*
X123630200Y-122792000D02*
X123630200Y-120032000D01*
D13*
%TO.C,R5*%
X119370050Y-104609900D02*
X119745550Y-104609900D01*
X119745550Y-103009700D02*
X119370050Y-103009700D01*
D12*
%TO.C,Power_Switch_1*%
X109364000Y-94017400D02*
X110744000Y-94017400D01*
X109364000Y-95397400D02*
X109364000Y-94017400D01*
X109364000Y-96667400D02*
X109364000Y-99317400D01*
X109364000Y-96667400D02*
X112124000Y-96667400D01*
X109364000Y-99317400D02*
X112124000Y-99317400D01*
X112124000Y-96667400D02*
X112124000Y-99317400D01*
%TO.C,JP2*%
X143449800Y-104568800D02*
X145449800Y-104568800D01*
X143449800Y-107368800D02*
X143449800Y-104568800D01*
X145449800Y-104568800D02*
X145449800Y-107368800D01*
X145449800Y-107368800D02*
X143449800Y-107368800D01*
%TO.C,I2C_OUT1*%
X132455600Y-74602000D02*
X132455600Y-79322000D01*
X132455600Y-76712000D02*
X133065600Y-76712000D01*
X132455600Y-78012000D02*
X133065600Y-78012000D01*
X132455600Y-79322000D02*
X142575600Y-79322000D01*
X133065600Y-75212000D02*
X133065600Y-78712000D01*
X133065600Y-78712000D02*
X135015600Y-78712000D01*
X135015600Y-78712000D02*
X135015600Y-79322000D01*
X135415600Y-75712000D02*
X135415600Y-75212000D01*
X135515600Y-75212000D02*
X135515600Y-75712000D01*
X135615600Y-75212000D02*
X135615600Y-75712000D01*
X135615600Y-75712000D02*
X135415600Y-75712000D01*
X137415600Y-75712000D02*
X137415600Y-75212000D01*
X137515600Y-75212000D02*
X137515600Y-75712000D01*
X137615600Y-75212000D02*
X137615600Y-75712000D01*
X137615600Y-75712000D02*
X137415600Y-75712000D01*
X139415600Y-75712000D02*
X139415600Y-75212000D01*
X139515600Y-75212000D02*
X139515600Y-75712000D01*
X139615600Y-75212000D02*
X139615600Y-75712000D01*
X139615600Y-75712000D02*
X139415600Y-75712000D01*
X140015600Y-78712000D02*
X141965600Y-78712000D01*
X140015600Y-79322000D02*
X140015600Y-78712000D01*
X140815600Y-79322000D02*
X140815600Y-79522000D01*
X140815600Y-79422000D02*
X141115600Y-79422000D01*
X140815600Y-79522000D02*
X141115600Y-79522000D01*
X141115600Y-79522000D02*
X141115600Y-79322000D01*
X141625600Y-79622000D02*
X142875600Y-79622000D01*
X141965600Y-75212000D02*
X133065600Y-75212000D01*
X141965600Y-78712000D02*
X141965600Y-75212000D01*
X142575600Y-74602000D02*
X132455600Y-74602000D01*
X142575600Y-76712000D02*
X141965600Y-76712000D01*
X142575600Y-78012000D02*
X141965600Y-78012000D01*
X142575600Y-79322000D02*
X142575600Y-74602000D01*
X142875600Y-79622000D02*
X142875600Y-78372000D01*
D13*
%TO.C,R1*%
X156593750Y-106895900D02*
X156969250Y-106895900D01*
X156969250Y-105295700D02*
X156593750Y-105295700D01*
D12*
%TO.C,JP4*%
X118735600Y-109663800D02*
X120735600Y-109663800D01*
X118735600Y-112463800D02*
X118735600Y-109663800D01*
X120735600Y-109663800D02*
X120735600Y-112463800D01*
X120735600Y-112463800D02*
X118735600Y-112463800D01*
D13*
%TO.C,R3*%
X143802100Y-100370850D02*
X143802100Y-100746350D01*
X145402300Y-100746350D02*
X145402300Y-100370850D01*
D12*
%TO.C,Analog_Component_2*%
X131665200Y-123046000D02*
X131665200Y-121666000D01*
X133045200Y-123046000D02*
X131665200Y-123046000D01*
X134315200Y-120286000D02*
X144585200Y-120286000D01*
X134315200Y-123046000D02*
X134315200Y-120286000D01*
X134315200Y-123046000D02*
X144585200Y-123046000D01*
X144585200Y-123046000D02*
X144585200Y-120286000D01*
%TO.C,TP_SCL*%
X144846000Y-73802200D02*
X146746000Y-73802200D01*
X144846000Y-75702200D02*
X144846000Y-73802200D01*
X146746000Y-73802200D02*
X146746000Y-75702200D01*
X146746000Y-75702200D02*
X144846000Y-75702200D01*
%TO.C,LIPO_OUT_1*%
X108795200Y-87174600D02*
X108795200Y-88424600D01*
X108795200Y-88424600D02*
X110045200Y-88424600D01*
X108895200Y-86364600D02*
X108895200Y-86664600D01*
X108895200Y-86664600D02*
X109095200Y-86664600D01*
X108995200Y-86364600D02*
X108995200Y-86664600D01*
X109095200Y-82004600D02*
X109095200Y-88124600D01*
X109095200Y-85564600D02*
X109705200Y-85564600D01*
X109095200Y-86364600D02*
X108895200Y-86364600D01*
X109095200Y-88124600D02*
X113815200Y-88124600D01*
X109705200Y-82614600D02*
X109705200Y-84564600D01*
X109705200Y-84564600D02*
X109095200Y-84564600D01*
X109705200Y-85564600D02*
X109705200Y-87514600D01*
X109705200Y-87514600D02*
X113205200Y-87514600D01*
X110405200Y-82004600D02*
X110405200Y-82614600D01*
X110405200Y-88124600D02*
X110405200Y-87514600D01*
X111705200Y-82004600D02*
X111705200Y-82614600D01*
X111705200Y-88124600D02*
X111705200Y-87514600D01*
X112705200Y-84964600D02*
X113205200Y-84964600D01*
X112705200Y-85164600D02*
X112705200Y-84964600D01*
X113205200Y-82614600D02*
X109705200Y-82614600D01*
X113205200Y-85064600D02*
X112705200Y-85064600D01*
X113205200Y-85164600D02*
X112705200Y-85164600D01*
X113205200Y-87514600D02*
X113205200Y-82614600D01*
X113815200Y-82004600D02*
X109095200Y-82004600D01*
X113815200Y-88124600D02*
X113815200Y-82004600D01*
%TO.C,JP5*%
X122317000Y-109689200D02*
X124317000Y-109689200D01*
X122317000Y-112489200D02*
X122317000Y-109689200D01*
X124317000Y-109689200D02*
X124317000Y-112489200D01*
X124317000Y-112489200D02*
X122317000Y-112489200D01*
%TO.C,TP_3V3*%
X136489400Y-96382800D02*
X138389400Y-96382800D01*
X136489400Y-98282800D02*
X136489400Y-96382800D01*
X138389400Y-96382800D02*
X138389400Y-98282800D01*
X138389400Y-98282800D02*
X136489400Y-98282800D01*
%TO.C,JP3*%
X140274800Y-104543400D02*
X142274800Y-104543400D01*
X140274800Y-107343400D02*
X140274800Y-104543400D01*
X142274800Y-104543400D02*
X142274800Y-107343400D01*
X142274800Y-107343400D02*
X140274800Y-107343400D01*
%TO.C,23017_GPB1*%
X148460000Y-78880000D02*
X148460000Y-77500000D01*
X149840000Y-78880000D02*
X148460000Y-78880000D01*
X151110000Y-76120000D02*
X169000000Y-76120000D01*
X151110000Y-78880000D02*
X151110000Y-76120000D01*
X151110000Y-78880000D02*
X169000000Y-78880000D01*
X169000000Y-78880000D02*
X169000000Y-76120000D01*
%TO.C,LIPO_IN_1*%
X108837200Y-113574600D02*
X108837200Y-114824600D01*
X108837200Y-114824600D02*
X110087200Y-114824600D01*
X108937200Y-112764600D02*
X108937200Y-113064600D01*
X108937200Y-113064600D02*
X109137200Y-113064600D01*
X109037200Y-112764600D02*
X109037200Y-113064600D01*
X109137200Y-108404600D02*
X109137200Y-114524600D01*
X109137200Y-111964600D02*
X109747200Y-111964600D01*
X109137200Y-112764600D02*
X108937200Y-112764600D01*
X109137200Y-114524600D02*
X113857200Y-114524600D01*
X109747200Y-109014600D02*
X109747200Y-110964600D01*
X109747200Y-110964600D02*
X109137200Y-110964600D01*
X109747200Y-111964600D02*
X109747200Y-113914600D01*
X109747200Y-113914600D02*
X113247200Y-113914600D01*
X110447200Y-108404600D02*
X110447200Y-109014600D01*
X110447200Y-114524600D02*
X110447200Y-113914600D01*
X111747200Y-108404600D02*
X111747200Y-109014600D01*
X111747200Y-114524600D02*
X111747200Y-113914600D01*
X112747200Y-111364600D02*
X113247200Y-111364600D01*
X112747200Y-111564600D02*
X112747200Y-111364600D01*
X113247200Y-109014600D02*
X109747200Y-109014600D01*
X113247200Y-111464600D02*
X112747200Y-111464600D01*
X113247200Y-111564600D02*
X112747200Y-111564600D01*
X113247200Y-113914600D02*
X113247200Y-109014600D01*
X113857200Y-108404600D02*
X109137200Y-108404600D01*
X113857200Y-114524600D02*
X113857200Y-108404600D01*
%TD*%
M02*
