%TF.GenerationSoftware,KiCad,Pcbnew,9.0.4*%
%TF.CreationDate,2026-06-02T20:43:56-07:00*%
%TF.ProjectId,Mykon,4d796b6f-6e2e-46b6-9963-61645f706362,rev?*%
%TF.SameCoordinates,Original*%
%TF.FileFunction,Soldermask,Bot*%
%TF.FilePolarity,Negative*%
%FSLAX46Y46*%
G04 Gerber Fmt 4.6, Leading zero omitted, Abs format (unit mm)*
G04 Created by KiCad (PCBNEW 9.0.4) date 2026-06-02 20:43:56*
%MOMM*%
%LPD*%
G01*
G04 APERTURE LIST*
G04 Aperture macros list*
%AMRoundRect*
0 Rectangle with rounded corners*
0 $1 Rounding radius*
0 $2 $3 $4 $5 $6 $7 $8 $9 X,Y pos of 4 corners*
0 Add a 4 corners polygon primitive as box body*
4,1,4,$2,$3,$4,$5,$6,$7,$8,$9,$2,$3,0*
0 Add four circle primitives for the rounded corners*
1,1,$1+$1,$2,$3*
1,1,$1+$1,$4,$5*
1,1,$1+$1,$6,$7*
1,1,$1+$1,$8,$9*
0 Add four rect primitives between the rounded corners*
20,1,$1+$1,$2,$3,$4,$5,0*
20,1,$1+$1,$4,$5,$6,$7,0*
20,1,$1+$1,$6,$7,$8,$9,0*
20,1,$1+$1,$8,$9,$2,$3,0*%
G04 Aperture macros list end*
%ADD10R,1.700000X1.700000*%
%ADD11C,1.700000*%
%ADD12RoundRect,0.250000X-0.350000X-0.625000X0.350000X-0.625000X0.350000X0.625000X-0.350000X0.625000X0*%
%ADD13O,1.200000X1.750000*%
%ADD14RoundRect,0.250000X0.350000X0.625000X-0.350000X0.625000X-0.350000X-0.625000X0.350000X-0.625000X0*%
%ADD15RoundRect,0.250000X0.625000X-0.350000X0.625000X0.350000X-0.625000X0.350000X-0.625000X-0.350000X0*%
%ADD16O,1.750000X1.200000*%
%ADD17C,3.200000*%
G04 APERTURE END LIST*
D10*
%TO.C,23017_GPA1*%
X167500000Y-120000000D03*
D11*
X164960000Y-120000000D03*
X162420000Y-120000000D03*
X159880000Y-120000000D03*
X157340000Y-120000000D03*
X154800000Y-120000000D03*
%TD*%
D12*
%TO.C,I2C_IN1*%
X122104400Y-76377800D03*
D13*
X124104400Y-76377800D03*
X126104400Y-76377800D03*
X128104400Y-76377800D03*
%TD*%
D10*
%TO.C,Analog_Component_1*%
X112090200Y-121412000D03*
D11*
X114630200Y-121412000D03*
X117170200Y-121412000D03*
X119710200Y-121412000D03*
X122250200Y-121412000D03*
%TD*%
D10*
%TO.C,Power_Switch_1*%
X110744000Y-95397400D03*
D11*
X110744000Y-97937400D03*
%TD*%
D14*
%TO.C,I2C_OUT1*%
X140515600Y-77512000D03*
D13*
X138515600Y-77512000D03*
X136515600Y-77512000D03*
X134515600Y-77512000D03*
%TD*%
D10*
%TO.C,Analog_Component_2*%
X133045200Y-121666000D03*
D11*
X135585200Y-121666000D03*
X138125200Y-121666000D03*
X140665200Y-121666000D03*
X143205200Y-121666000D03*
%TD*%
D15*
%TO.C,LIPO_OUT_1*%
X110905200Y-86064600D03*
D16*
X110905200Y-84064600D03*
%TD*%
D17*
%TO.C,MNT_1*%
X111912400Y-77190600D03*
%TD*%
D10*
%TO.C,23017_GPB1*%
X149840000Y-77500000D03*
D11*
X152380000Y-77500000D03*
X154920000Y-77500000D03*
X157460000Y-77500000D03*
X160000000Y-77500000D03*
X162540000Y-77500000D03*
X165080000Y-77500000D03*
X167620000Y-77500000D03*
%TD*%
D15*
%TO.C,LIPO_IN_1*%
X110947200Y-112464600D03*
D16*
X110947200Y-110464600D03*
%TD*%
D17*
%TO.C,MNT_2*%
X148310600Y-115316000D03*
%TD*%
M02*
